<svg width="86" height="76" viewBox="0 0 86 76" fill="none" xmlns="http://www.w3.org/2000/svg">
<path fill-rule="evenodd" clip-rule="evenodd" d="M10.3333 1.5C5.45058 1.5 1.5 5.42173 1.5 10.25V65.75C1.5 70.5783 5.45058 74.5 10.3333 74.5H75.6667C80.5494 74.5 84.5 70.5783 84.5 65.75V10.25C84.5 5.42173 80.5494 1.5 75.6667 1.5H10.3333ZM0.5 10.25C0.5 4.861 4.90677 0.5 10.3333 0.5H75.6667C81.0932 0.5 85.5 4.861 85.5 10.25V65.75C85.5 71.139 81.0932 75.5 75.6667 75.5H10.3333C4.90677 75.5 0.5 71.139 0.5 65.75V10.25Z" fill="#939299"/>
<path fill-rule="evenodd" clip-rule="evenodd" d="M25.5 33.5C24.704 33.5 23.9409 33.8157 23.3783 34.3773L1.35326 56.3655C1.15783 56.5606 0.841249 56.5603 0.646151 56.3649C0.451052 56.1695 0.451317 55.8529 0.646743 55.6578L22.6718 33.6696C23.422 32.9206 24.4394 32.5 25.5 32.5C26.5606 32.5 27.5779 32.9206 28.3281 33.6696L47.8784 53.1871C48.4409 53.7487 49.2041 54.0644 50 54.0644C50.7959 54.0644 51.5591 53.7487 52.1216 53.1871L61.1719 44.152C61.9221 43.403 62.9394 42.9824 64 42.9824C65.0606 42.9824 66.0779 43.403 66.8281 44.152L85.3533 62.6461C85.5487 62.8412 85.549 63.1578 85.3539 63.3533C85.1588 63.5487 84.8422 63.5489 84.6467 63.3538L66.1216 44.8597C65.5591 44.2981 64.7959 43.9824 64 43.9824C63.2041 43.9824 62.4409 44.2981 61.8784 44.8597L52.8281 53.8948C52.0779 54.6438 51.0606 55.0644 50 55.0644C48.9394 55.0644 47.9221 54.6438 47.1718 53.8948L27.6216 34.3773C27.059 33.8157 26.2959 33.5 25.5 33.5Z" fill="#939299"/>
<path fill-rule="evenodd" clip-rule="evenodd" d="M63.5 13.5C59.0817 13.5 55.5 17.0817 55.5 21.5C55.5 25.9183 59.0817 29.5 63.5 29.5C67.9183 29.5 71.5 25.9183 71.5 21.5C71.5 17.0817 67.9183 13.5 63.5 13.5ZM54.5 21.5C54.5 16.5294 58.5294 12.5 63.5 12.5C68.4706 12.5 72.5 16.5294 72.5 21.5C72.5 26.4706 68.4706 30.5 63.5 30.5C58.5294 30.5 54.5 26.4706 54.5 21.5Z" fill="#939299"/>
</svg>
