<svg width="66" height="68" viewBox="0 0 66 68" fill="none" xmlns="http://www.w3.org/2000/svg">
<g clip-path="url(#clip0_5_1859)">
<path d="M50.8244 0.00012207H9.44198C5.18195 0.00012207 1.72852 3.43821 1.72852 7.67932V42.5888C1.72852 46.8299 5.18195 50.268 9.44198 50.268H50.8244C55.0845 50.268 58.5379 46.8299 58.5379 42.5888V7.67932C58.5379 3.43821 55.0845 0.00012207 50.8244 0.00012207Z" fill="#FBB900"/>
<path d="M40.3587 68.0043C39.3752 68.0043 38.4319 67.6154 37.7364 66.923C37.0409 66.2306 36.6502 65.2914 36.6502 64.3122V59.543C36.6266 59.0626 36.4183 58.6098 36.0685 58.2782C35.7187 57.9465 35.2542 57.7616 34.7712 57.7616C34.2882 57.7616 33.8237 57.9465 33.4739 58.2782C33.1241 58.6098 32.9158 59.0626 32.8922 59.543V64.4106C32.8922 65.3631 32.5121 66.2766 31.8356 66.9502C31.159 67.6237 30.2414 68.0022 29.2847 68.0022C28.3279 68.0022 27.4103 67.6237 26.7338 66.9502C26.0572 66.2766 25.6771 65.3631 25.6771 64.4106V60.2537C25.6771 60.0759 25.7481 59.9053 25.8744 59.7795C26.0007 59.6538 26.172 59.5832 26.3506 59.5832C26.5292 59.5832 26.7005 59.6538 26.8268 59.7795C26.9531 59.9053 27.0241 60.0759 27.0241 60.2537V64.4106C27.0241 65.0075 27.2622 65.5799 27.6862 66.002C28.1101 66.424 28.6851 66.6612 29.2847 66.6612C29.8842 66.6612 30.4592 66.424 30.8832 66.002C31.3071 65.5799 31.5453 65.0075 31.5453 64.4106V59.543C31.5764 58.7119 31.9299 57.9253 32.5315 57.3483C33.1331 56.7713 33.9359 56.449 34.7712 56.449C35.6065 56.449 36.4093 56.7713 37.0109 57.3483C37.6125 57.9253 37.966 58.7119 37.9971 59.543V64.3122C37.9832 64.6293 38.034 64.9459 38.1463 65.243C38.2586 65.54 38.4301 65.8113 38.6506 66.0406C38.871 66.2699 39.1358 66.4523 39.429 66.577C39.7222 66.7016 40.0377 66.7659 40.3565 66.7659C40.6753 66.7659 40.9908 66.7016 41.284 66.577C41.5772 66.4523 41.842 66.2699 42.0624 66.0406C42.2829 65.8113 42.4544 65.54 42.5667 65.243C42.6791 64.9459 42.7298 64.6293 42.7159 64.3122V50.9027C42.6996 50.4632 42.7724 50.0249 42.9301 49.614C43.0878 49.2031 43.3271 48.8281 43.6337 48.5114C43.9403 48.1947 44.3079 47.9427 44.7145 47.7706C45.1211 47.5986 45.5584 47.5099 46.0002 47.5099C46.442 47.5099 46.8793 47.5986 47.2859 47.7706C47.6925 47.9427 48.0601 48.1947 48.3667 48.5114C48.6732 48.8281 48.9125 49.2031 49.0702 49.614C49.2279 50.0249 49.3008 50.4632 49.2845 50.9027V54.3043C49.2839 54.6402 49.3499 54.9729 49.4787 55.2834C49.6076 55.5939 49.7967 55.876 50.0353 56.1135C50.2739 56.3511 50.5573 56.5394 50.8691 56.6677C51.181 56.796 51.5152 56.8616 51.8526 56.861C52.3813 56.861 52.8884 56.6519 53.2622 56.2797C53.6361 55.9075 53.8461 55.4028 53.8461 54.8765V40.9528C53.8532 39.41 54.4735 37.9328 55.5714 36.844C56.6693 35.7551 58.1556 35.1432 59.7053 35.142C61.0164 35.1338 62.2712 34.6101 63.1963 33.685C64.1213 32.7598 64.6417 31.5083 64.6441 30.2029V9.64159C64.6429 8.86825 64.3334 8.12698 63.7837 7.58056C63.2341 7.03415 62.489 6.72724 61.7122 6.72725H11.0988C10.3986 6.72725 9.72708 7.00419 9.23199 7.49708C8.73689 7.98998 8.45876 8.65846 8.45876 9.35552V40.1974C8.45876 40.3753 8.3878 40.5459 8.2615 40.6716C8.1352 40.7973 7.9639 40.8679 7.78529 40.8679C7.60667 40.8679 7.43537 40.7973 7.30907 40.6716C7.18277 40.5459 7.11182 40.3753 7.11182 40.1974V9.35552C7.113 8.30318 7.53344 7.2943 8.28088 6.55019C9.02832 5.80607 10.0417 5.38747 11.0988 5.38629H61.7302C62.8638 5.38747 63.9508 5.83603 64.7528 6.63367C65.5549 7.43131 66.0066 8.51297 66.009 9.64159V30.2029C66.0054 31.8636 65.3428 33.4555 64.1654 34.6319C62.988 35.8082 61.3913 36.4735 59.7233 36.483C58.5308 36.4841 57.3871 36.9548 56.5418 37.7922C55.6965 38.6295 55.2181 39.7657 55.211 40.9528V54.8765C55.2104 55.3145 55.123 55.7481 54.9538 56.1525C54.7846 56.5569 54.5369 56.924 54.225 57.233C53.913 57.5419 53.5429 57.7865 53.1358 57.9528C52.7287 58.119 52.2926 58.2038 51.8526 58.202C50.8166 58.1996 49.8238 57.7885 49.0916 57.0588C48.3595 56.329 47.9477 55.3402 47.9465 54.3088V50.9072C47.9591 50.6461 47.9184 50.3852 47.8267 50.1402C47.7351 49.8953 47.5944 49.6714 47.4133 49.4822C47.2321 49.293 47.0143 49.1423 46.7729 49.0394C46.5316 48.9364 46.2717 48.8833 46.0092 48.8833C45.7466 48.8833 45.4868 48.9364 45.2454 49.0394C45.0041 49.1423 44.7862 49.293 44.6051 49.4822C44.4239 49.6714 44.2832 49.8953 44.1916 50.1402C44.0999 50.3852 44.0592 50.6461 44.0718 50.9072V64.3167C44.0712 64.8016 43.9747 65.2815 43.7878 65.7293C43.6009 66.177 43.3272 66.5837 42.9824 66.9262C42.6376 67.2686 42.2285 67.5401 41.7783 67.7251C41.3281 67.9101 40.8458 68.0049 40.3587 68.0043Z" fill="black"/>
<path d="M33.4446 50.0311C33.2662 50.0305 33.0952 49.9598 32.9687 49.8345L16.3834 33.3229C16.3204 33.2609 16.2704 33.1872 16.2363 33.1058C16.2021 33.0245 16.1846 32.9372 16.1846 32.8491C16.1846 32.7609 16.2021 32.6736 16.2363 32.5923C16.2704 32.511 16.3204 32.4372 16.3834 32.3752L38.5271 10.33C38.5893 10.2673 38.6634 10.2175 38.7451 10.1835C38.8268 10.1495 38.9145 10.132 39.003 10.132C39.0915 10.132 39.1792 10.1495 39.2609 10.1835C39.3426 10.2175 39.4167 10.2673 39.4789 10.33L56.0642 26.8371C56.1273 26.8995 56.1774 26.9736 56.2116 27.0553C56.2458 27.137 56.2634 27.2246 56.2634 27.3132C56.2634 27.4017 56.2458 27.4893 56.2116 27.571C56.1774 27.6527 56.1273 27.7268 56.0642 27.7892L33.9206 49.8345C33.7941 49.9598 33.6231 50.0305 33.4446 50.0311ZM17.8112 32.8491L33.4446 48.4131L54.6365 27.3109L39.003 11.7514L17.8112 32.8491Z" fill="black"/>
<path d="M6.87849 62.0237C6.32704 62.0237 5.78799 61.8609 5.32948 61.5559C4.87097 61.2509 4.5136 60.8174 4.30257 60.3102C4.09154 59.803 4.03632 59.2448 4.14391 58.7063C4.25149 58.1679 4.51704 57.6734 4.90697 57.2852C5.2969 56.897 5.79371 56.6325 6.33456 56.5254C6.87541 56.4183 7.43601 56.4734 7.94548 56.6834C8.45495 56.8935 8.89041 57.2493 9.19678 57.7057C9.50314 58.1622 9.66666 58.6989 9.66666 59.2479C9.66666 59.9841 9.37291 60.6901 8.85003 61.2107C8.32714 61.7312 7.61796 62.0237 6.87849 62.0237ZM6.87849 57.8175C6.59325 57.8175 6.31444 57.9018 6.07734 58.0596C5.84023 58.2175 5.65551 58.4419 5.54656 58.7044C5.43761 58.9668 5.40933 59.2555 5.4653 59.534C5.52128 59.8124 5.65899 60.068 5.861 60.2685C6.06301 60.469 6.32022 60.6053 6.60009 60.6601C6.87995 60.715 7.16988 60.6859 7.43315 60.5767C7.69642 60.4674 7.92119 60.2827 8.07901 60.0462C8.23684 59.8097 8.32061 59.5319 8.31973 59.2479C8.31973 59.0597 8.28242 58.8733 8.20993 58.6995C8.13745 58.5256 8.03122 58.3678 7.89733 58.2349C7.76344 58.102 7.60452 57.9967 7.42969 57.9251C7.25485 57.8535 7.06754 57.8169 6.87849 57.8175Z" fill="black"/>
<path d="M7.00834 66.3863C5.9724 66.3785 4.95446 66.1159 4.04507 65.6219C2.69856 64.9139 1.60186 63.8127 0.90221 62.4662C-0.0406473 60.6783 -1.06432 57.1426 2.69813 53.8125C6.28997 50.6076 10.259 47.2464 13.1459 44.7879C14.4928 43.6258 15.5973 42.705 16.2169 42.1597C17.061 41.4267 16.9847 36.9031 16.4324 33.1395C16.4194 33.0514 16.424 32.9617 16.4459 32.8754C16.4677 32.7891 16.5065 32.708 16.5598 32.6366C16.6132 32.5652 16.6802 32.505 16.7569 32.4594C16.8337 32.4138 16.9187 32.3836 17.0071 32.3707C17.0956 32.3578 17.1857 32.3624 17.2724 32.3841C17.359 32.4059 17.4406 32.4445 17.5123 32.4976C17.584 32.5507 17.6445 32.6173 17.6903 32.6937C17.7361 32.7701 17.7664 32.8548 17.7794 32.9428C17.9904 34.3732 18.9467 41.5786 17.1238 43.1699C16.5043 43.7152 15.4132 44.6404 14.0394 45.8071C11.1569 48.261 7.21037 51.6178 3.60956 54.8138C0.695679 57.4018 1.19405 60.0658 2.12344 61.8448C2.7009 62.9539 3.60897 63.858 4.72303 64.4329C8.17568 66.2208 11.0087 63.5389 12.0549 62.3187C12.2838 62.046 12.7732 61.456 13.4018 60.6693C17.8916 55.2206 22.2602 50.0176 23.6924 48.9002C25.1247 47.7827 31.6169 48.4532 33.57 48.6946C33.6584 48.7051 33.7439 48.733 33.8215 48.7764C33.8992 48.8199 33.9675 48.8781 34.0225 48.9479C34.0775 49.0176 34.1182 49.0974 34.1423 49.1828C34.1663 49.2682 34.1732 49.3574 34.1626 49.4455C34.152 49.5335 34.1241 49.6186 34.0804 49.6959C34.0368 49.7732 33.9783 49.8413 33.9082 49.8961C33.8382 49.9509 33.758 49.9914 33.6722 50.0153C33.5864 50.0393 33.4968 50.0461 33.4083 50.0355C29.6683 49.5885 25.21 49.4277 24.523 49.9641C23.0055 51.1486 17.0071 58.4254 14.4434 61.532C13.7879 62.3231 13.2985 62.9221 13.0606 63.1947C12.2794 64.0708 10.0165 66.3863 7.00834 66.3863Z" fill="black"/>
<path d="M38.1275 45.3825C38.0391 45.3827 37.9515 45.3653 37.8698 45.3315C37.7881 45.2978 37.7139 45.2482 37.6516 45.1857L24.9141 32.4959C24.8479 32.4345 24.7948 32.3605 24.758 32.2783C24.7212 32.1961 24.7014 32.1072 24.6998 32.0172C24.6982 31.9271 24.7148 31.8378 24.7487 31.7543C24.7826 31.6708 24.833 31.595 24.897 31.5313C24.9609 31.4677 25.0371 31.4174 25.1209 31.3837C25.2048 31.35 25.2946 31.3334 25.3851 31.335C25.4755 31.3366 25.5647 31.3563 25.6473 31.393C25.7299 31.4296 25.8042 31.4825 25.8659 31.5483L38.6169 44.2382C38.7419 44.3645 38.812 44.5347 38.812 44.712C38.812 44.8893 38.7419 45.0595 38.6169 45.1857C38.5524 45.249 38.4759 45.299 38.3919 45.3327C38.308 45.3665 38.2181 45.3835 38.1275 45.3825Z" fill="black"/>
<path d="M46.7253 36.8182C46.6332 36.8184 46.5421 36.7995 46.4578 36.7625C46.3735 36.7256 46.298 36.6714 46.2359 36.6036C45.4804 35.7215 44.9492 34.6714 44.687 33.5419C44.1841 31.45 44.5792 29.9659 46.1013 28.2048C46.7074 27.512 47.5021 26.5108 47.4033 25.8314C47.4033 25.7241 47.3404 25.3843 46.7074 24.9865C45.7421 24.3607 45.1045 24.8033 44.1527 25.5766C44 25.7017 43.8519 25.8224 43.7037 25.9252C43.3286 26.1996 42.8996 26.392 42.4446 26.4899C41.9897 26.5877 41.5191 26.5887 41.0637 26.4929C40.5627 26.3704 40.0949 26.1395 39.6937 25.8165C39.2925 25.4936 38.9677 25.0865 38.7425 24.6244C37.7008 22.7337 39.0029 21.2006 40.2645 19.7077C40.8272 19.0838 41.3321 18.4106 41.7731 17.6962C42.0902 17.1361 42.2262 16.4923 42.1628 15.8525C42.0993 15.2127 41.8394 14.6079 41.4184 14.1204C41.3472 14.058 41.2899 13.9813 41.2506 13.8953C41.2112 13.8094 41.1904 13.7161 41.1898 13.6216C41.1891 13.5272 41.2085 13.4337 41.2467 13.3472C41.2849 13.2607 41.341 13.1832 41.4113 13.1198C41.4817 13.0564 41.5647 13.0085 41.6549 12.9793C41.7452 12.9501 41.8406 12.9402 41.935 12.9503C42.0293 12.9604 42.1205 12.9901 42.2024 13.0377C42.2844 13.0853 42.3553 13.1496 42.4106 13.2264C43.0246 13.9193 43.4061 14.7857 43.5019 15.7047C43.5977 16.6238 43.403 17.5497 42.9449 18.3533C42.4675 19.1493 41.9142 19.8978 41.2927 20.5882C40.04 22.0677 39.3576 22.9527 39.9233 23.9853C40.0587 24.2773 40.2567 24.5362 40.5034 24.7439C40.75 24.9516 41.0393 25.1031 41.351 25.1876C41.6185 25.2413 41.8942 25.2392 42.1608 25.1815C42.4274 25.1238 42.6791 25.0117 42.9 24.8524C43.0302 24.7585 43.1604 24.6513 43.2996 24.544C44.1572 23.8467 45.5939 22.6801 47.4347 23.8646C47.7701 24.0488 48.0605 24.3046 48.2848 24.6137C48.5091 24.9229 48.6619 25.2776 48.7323 25.6525C48.9074 26.8504 48.0139 28.0662 47.1159 29.0943C45.7196 30.699 45.6433 31.7762 45.989 33.2378C46.2055 34.1426 46.6262 34.9864 47.2192 35.7052C47.3071 35.8013 47.3651 35.9208 47.386 36.0491C47.407 36.1774 47.39 36.309 47.3372 36.4278C47.2844 36.5467 47.198 36.6478 47.0886 36.7187C46.9792 36.7896 46.8514 36.8272 46.7208 36.8271L46.7253 36.8182Z" fill="black"/>
</g>
<defs>
<clipPath id="clip0_5_1859">
<rect width="66" height="68" fill="white"/>
</clipPath>
</defs>
</svg>
