<svg width="57" height="68" viewBox="0 0 57 68" fill="none" xmlns="http://www.w3.org/2000/svg">
<g clip-path="url(#clip0_5_1855)">
<path d="M56.9991 63.2836C40.6335 69.5748 22.5106 69.5748 6.14502 63.2836V11.7313C22.5106 18.0226 40.6335 18.0226 56.9991 11.7313V63.2836Z" fill="#FBB900"/>
<path d="M25.3934 64.0456C0.70836 64.0456 0.23504 56.1623 0.23504 55.826V10.7608C0.23504 10.5915 0.302425 10.4291 0.422377 10.3094C0.542329 10.1896 0.705023 10.1223 0.874661 10.1223C1.0443 10.1223 1.20699 10.1896 1.32694 10.3094C1.4469 10.4291 1.51428 10.5915 1.51428 10.7608V55.8005C1.51428 55.843 2.23492 62.7601 25.3934 62.7601C48.0445 62.7601 51.2725 53.1954 51.5113 52.3696V3.99278C49.2811 7.28318 43.1664 11.9527 26.4169 12.5784C10.4818 13.1743 1.65074 9.35187 0.192409 5.54642C-0.0178013 5.07582 -0.0656791 4.54891 0.05624 4.04823C0.178159 3.54754 0.462969 3.10136 0.866124 2.7796C5.38611 -0.970512 13.2577 -0.034049 16.4302 0.544856C18.9162 0.99606 19.8799 1.5026 19.8671 2.35393C19.8671 2.74129 19.8415 3.89485 13.714 4.86963V9.20718C13.714 9.37652 13.6466 9.53893 13.5266 9.65867C13.4067 9.77841 13.244 9.84568 13.0744 9.84568C12.9047 9.84568 12.7421 9.77841 12.6221 9.65867C12.5022 9.53893 12.4347 9.37652 12.4347 9.20718V4.32055C12.435 4.16835 12.4897 4.02121 12.589 3.9057C12.6883 3.79019 12.8256 3.71387 12.9763 3.69053C15.3216 3.34148 17.5688 2.77961 18.3662 2.36245C17.6662 2.09868 16.94 1.91034 16.2 1.8006C13.859 1.37493 5.90211 0.259685 1.70193 3.76291C1.50463 3.91467 1.36704 4.13083 1.31325 4.37361C1.25947 4.61638 1.29288 4.87032 1.40768 5.09098C2.44813 7.81524 10.1449 11.9016 26.387 11.3014C50.7225 10.3948 51.5199 0.770466 51.5454 0.659793C51.5476 0.576496 51.5664 0.494477 51.6008 0.418538C51.6351 0.342599 51.6844 0.274304 51.7455 0.217605C51.8067 0.160906 51.8786 0.116965 51.957 0.0883775C52.0354 0.0597896 52.1187 0.0471252 52.2021 0.0511214C52.3684 0.0566187 52.5261 0.126162 52.6422 0.245196C52.7582 0.36423 52.8237 0.523512 52.8247 0.689619V52.4462C52.8288 52.4915 52.8288 52.5371 52.8247 52.5824C52.6712 53.0634 49.9677 64.0456 25.3934 64.0456Z" fill="black"/>
<path d="M19.1977 10.365C19.0281 10.365 18.8654 10.2977 18.7454 10.1779C18.6255 10.0582 18.5581 9.8958 18.5581 9.72646V2.21772C18.5581 2.04838 18.6255 1.88597 18.7454 1.76623C18.8654 1.64649 19.0281 1.57922 19.1977 1.57922C19.3674 1.57922 19.53 1.64649 19.65 1.76623C19.7699 1.88597 19.8373 2.04838 19.8373 2.21772V9.72646C19.8373 9.8958 19.7699 10.0582 19.65 10.1779C19.53 10.2977 19.3674 10.365 19.1977 10.365Z" fill="black"/>
</g>
<defs>
<clipPath id="clip0_5_1855">
<rect width="57" height="68" fill="white"/>
</clipPath>
</defs>
</svg>
