<svg width="77" height="55" viewBox="0 0 77 55" fill="none" xmlns="http://www.w3.org/2000/svg">
<g clip-path="url(#clip0_5_1727)">
<path d="M34.7027 8.04779H74.7386L49.3338 33.6576H9.12012L34.7027 8.04779Z" fill="#FBB900"/>
<path d="M0.620072 32.0573C0.4975 32.0572 0.377719 32.0204 0.275839 31.9517C0.173959 31.883 0.0945454 31.7854 0.0476538 31.6713C0.000762272 31.5571 -0.0115053 31.4315 0.0123776 31.3103C0.0362606 31.1891 0.0952273 31.0778 0.181845 30.9904L29.8036 1.12958C29.9198 1.01231 30.0774 0.946374 30.2418 0.946228H55.6177C55.7822 0.946228 55.9399 1.01209 56.0562 1.12932C56.1725 1.24656 56.2379 1.40557 56.2379 1.57137C56.2379 1.73716 56.1725 1.89617 56.0562 2.01341C55.9399 2.13065 55.7822 2.1965 55.6177 2.1965H30.4981L1.0583 31.8739C0.941858 31.9908 0.784396 32.0567 0.620072 32.0573Z" fill="black"/>
<path d="M46.9196 31.8989H0.616228C0.451758 31.8989 0.294021 31.833 0.177723 31.7158C0.0614255 31.5985 -0.00390625 31.4396 -0.00390625 31.2738C-0.00390625 31.108 0.0614255 30.949 0.177723 30.8317C0.294021 30.7145 0.451758 30.6486 0.616228 30.6486H46.6633L74.8835 2.1965H62.2121C62.0476 2.1965 61.8899 2.13065 61.7736 2.01341C61.6573 1.89617 61.592 1.73716 61.592 1.57137C61.592 1.40557 61.6573 1.24656 61.7736 1.12932C61.8899 1.01209 62.0476 0.946228 62.2121 0.946228H76.3801C76.5027 0.946337 76.6224 0.983042 76.7243 1.05174C76.8262 1.12044 76.9056 1.21805 76.9525 1.33221C76.9994 1.44637 77.0117 1.57197 76.9878 1.69316C76.9639 1.81435 76.9049 1.92568 76.8183 2.0131L47.3578 31.7155C47.2416 31.8328 47.084 31.8988 46.9196 31.8989Z" fill="black"/>
<path d="M76.3799 11.5819C76.2154 11.5819 76.0577 11.516 75.9414 11.3988C75.8251 11.2815 75.7598 11.1226 75.7598 10.9568V1.57137C75.7598 1.40557 75.8251 1.24656 75.9414 1.12932C76.0577 1.01209 76.2154 0.946228 76.3799 0.946228C76.5444 0.946228 76.7021 1.01209 76.8184 1.12932C76.9347 1.24656 77 1.40557 77 1.57137V10.9568C77 11.1226 76.9347 11.2815 76.8184 11.3988C76.7021 11.516 76.5444 11.5819 76.3799 11.5819Z" fill="black"/>
<path d="M46.9195 41.3051C46.755 41.3051 46.5972 41.2393 46.4809 41.122C46.3646 41.0048 46.2993 40.8458 46.2993 40.68V31.2946C46.2993 31.1288 46.3646 30.9698 46.4809 30.8525C46.5972 30.7353 46.755 30.6694 46.9195 30.6694C47.0839 30.6694 47.2417 30.7353 47.358 30.8525C47.4743 30.9698 47.5396 31.1288 47.5396 31.2946V40.68C47.5396 40.8458 47.4743 41.0048 47.358 41.122C47.2417 41.2393 47.0839 41.3051 46.9195 41.3051Z" fill="black"/>
<path d="M0.620134 41.4926C0.455664 41.4926 0.297927 41.4268 0.181629 41.3096C0.0653318 41.1923 0 41.0333 0 40.8675V31.3196C0 31.1538 0.0653318 30.9948 0.181629 30.8776C0.297927 30.7603 0.455664 30.6945 0.620134 30.6945C0.784604 30.6945 0.942341 30.7603 1.05864 30.8776C1.17494 30.9948 1.24027 31.1538 1.24027 31.3196V40.8675C1.24027 41.0333 1.17494 41.1923 1.05864 41.3096C0.942341 41.4268 0.784604 41.4926 0.620134 41.4926Z" fill="black"/>
<path d="M6.85862 31.6697C6.77705 31.6708 6.6961 31.6551 6.62075 31.6236C6.5454 31.592 6.47722 31.5453 6.4204 31.4863C6.3624 31.4285 6.31635 31.3598 6.28492 31.2839C6.25349 31.2081 6.2373 31.1267 6.2373 31.0446C6.2373 30.9624 6.25349 30.881 6.28492 30.8052C6.31635 30.7294 6.3624 30.6605 6.4204 30.6028L31.6392 5.18048C31.7554 5.06321 31.913 4.99728 32.0774 4.99713H53.0338C53.1983 4.99713 53.356 5.06299 53.4723 5.18023C53.5886 5.29746 53.654 5.45647 53.654 5.62227C53.654 5.78807 53.5886 5.94708 53.4723 6.06431C53.356 6.18155 53.1983 6.24741 53.0338 6.24741H32.3379L7.29685 31.4905C7.23925 31.5482 7.17083 31.5938 7.09559 31.6245C7.02035 31.6553 6.93981 31.6706 6.85862 31.6697Z" fill="black"/>
<path d="M72.1215 6.2432H62.1704C62.006 6.2432 61.8482 6.17734 61.7319 6.0601C61.6156 5.94287 61.5503 5.78386 61.5503 5.61806C61.5503 5.45226 61.6156 5.29325 61.7319 5.17602C61.8482 5.05878 62.006 4.99292 62.1704 4.99292H72.1257C72.2901 4.99292 72.4479 5.05878 72.5642 5.17602C72.6805 5.29325 72.7458 5.45226 72.7458 5.61806C72.7458 5.78386 72.6805 5.94287 72.5642 6.0601C72.4479 6.17734 72.2901 6.2432 72.1257 6.2432H72.1215Z" fill="black"/>
<path d="M46.9194 41.4927H0.946794C0.782325 41.4927 0.624613 41.4268 0.508315 41.3096C0.392017 41.1923 0.32666 41.0333 0.32666 40.8675C0.32666 40.7017 0.392017 40.5427 0.508315 40.4255C0.624613 40.3082 0.782325 40.2424 0.946794 40.2424H46.6631L75.9417 10.7275C76.0593 10.6171 76.2148 10.557 76.3754 10.5599C76.5361 10.5627 76.6893 10.6283 76.803 10.7428C76.9166 10.8574 76.9817 11.0119 76.9845 11.1738C76.9873 11.3358 76.9277 11.4926 76.8182 11.6111L47.3576 41.3093C47.2415 41.4266 47.0838 41.4925 46.9194 41.4927Z" fill="black"/>
<path d="M6.49904 54.9999C6.33457 54.9999 6.17683 54.934 6.06054 54.8168C5.94424 54.6995 5.87891 54.5405 5.87891 54.3747V41.0801C5.87891 40.9143 5.94424 40.7553 6.06054 40.6381C6.17683 40.5208 6.33457 40.455 6.49904 40.455C6.66351 40.455 6.82122 40.5208 6.93752 40.6381C7.05382 40.7553 7.11917 40.9143 7.11917 41.0801V54.3747C7.11917 54.5405 7.05382 54.6995 6.93752 54.8168C6.82122 54.934 6.66351 54.9999 6.49904 54.9999Z" fill="black"/>
<path d="M43.2896 54.9999C43.1251 54.9999 42.9674 54.934 42.8511 54.8168C42.7348 54.6995 42.6694 54.5405 42.6694 54.3747V41.0801C42.6694 40.9143 42.7348 40.7553 42.8511 40.6381C42.9674 40.5208 43.1251 40.455 43.2896 40.455C43.454 40.455 43.6118 40.5208 43.7281 40.6381C43.8444 40.7553 43.9097 40.9143 43.9097 41.0801V54.3747C43.9097 54.5405 43.8444 54.6995 43.7281 54.8168C43.6118 54.934 43.454 54.9999 43.2896 54.9999Z" fill="black"/>
<path d="M23.0522 54.9998H9.9922C9.82773 54.9998 9.67002 54.9339 9.55373 54.8167C9.43743 54.6995 9.37207 54.5405 9.37207 54.3747V44.1308C9.37207 43.965 9.43743 43.8059 9.55373 43.6887C9.67002 43.5715 9.82773 43.5056 9.9922 43.5056H23.0522C23.2167 43.5056 23.3744 43.5715 23.4907 43.6887C23.607 43.8059 23.6724 43.965 23.6724 44.1308V54.3747C23.6724 54.5405 23.607 54.6995 23.4907 54.8167C23.3744 54.9339 23.2167 54.9998 23.0522 54.9998ZM10.6123 53.7495H22.4321V44.7434H10.6123V53.7495Z" fill="black"/>
<path d="M39.6226 54.9998H26.2608C26.0963 54.9998 25.9386 54.9339 25.8223 54.8167C25.706 54.6995 25.6406 54.5405 25.6406 54.3747V44.1308C25.6406 43.965 25.706 43.8059 25.8223 43.6887C25.9386 43.5715 26.0963 43.5056 26.2608 43.5056H39.6226C39.7871 43.5056 39.9448 43.5715 40.0611 43.6887C40.1774 43.8059 40.2427 43.965 40.2427 44.1308V54.3747C40.2427 54.5405 40.1774 54.6995 40.0611 54.8167C39.9448 54.9339 39.7871 54.9998 39.6226 54.9998ZM26.8809 53.7495H39.019V44.7434H26.8809V53.7495Z" fill="black"/>
<path d="M73.5147 30.657C73.3502 30.657 73.1925 30.5911 73.0762 30.4739C72.9599 30.3566 72.8945 30.1976 72.8945 30.0318V14.4575C72.8945 14.2917 72.9599 14.1327 73.0762 14.0155C73.1925 13.8983 73.3502 13.8324 73.5147 13.8324C73.6791 13.8324 73.8369 13.8983 73.9532 14.0155C74.0695 14.1327 74.1348 14.2917 74.1348 14.4575V30.0318C74.1348 30.1976 74.0695 30.3566 73.9532 30.4739C73.8369 30.5911 73.6791 30.657 73.5147 30.657Z" fill="black"/>
<path d="M57.9908 15.0827H53.2446C53.0802 15.0827 52.9225 15.0168 52.8062 14.8996C52.6899 14.7823 52.6245 14.6233 52.6245 14.4575C52.6245 14.2917 52.6899 14.1327 52.8062 14.0155C52.9225 13.8983 53.0802 13.8324 53.2446 13.8324H57.9908C58.1552 13.8324 58.313 13.8983 58.4293 14.0155C58.5456 14.1327 58.6109 14.2917 58.6109 14.4575C58.6109 14.6233 58.5456 14.7823 58.4293 14.8996C58.313 15.0168 58.1552 15.0827 57.9908 15.0827Z" fill="black"/>
<path d="M58.2637 15.0826C58.0992 15.0826 57.9415 15.0168 57.8252 14.8995C57.7089 14.7823 57.6436 14.6233 57.6436 14.4575V4.40944C57.6436 4.24364 57.7089 4.08463 57.8252 3.9674C57.9415 3.85016 58.0992 3.7843 58.2637 3.7843C58.4282 3.7843 58.5859 3.85016 58.7022 3.9674C58.8185 4.08463 58.8838 4.24364 58.8838 4.40944V14.4575C58.8838 14.6233 58.8185 14.7823 58.7022 14.8995C58.5859 15.0168 58.4282 15.0826 58.2637 15.0826Z" fill="black"/>
<path d="M53.2446 15.0826C53.0802 15.0826 52.9225 15.0168 52.8062 14.8995C52.6899 14.7823 52.6245 14.6233 52.6245 14.4575V4.40944C52.6245 4.24364 52.6899 4.08463 52.8062 3.9674C52.9225 3.85016 53.0802 3.7843 53.2446 3.7843C53.4091 3.7843 53.5669 3.85016 53.6832 3.9674C53.7994 4.08463 53.8648 4.24364 53.8648 4.40944V14.4575C53.8648 14.6233 53.7994 14.7823 53.6832 14.8995C53.5669 15.0168 53.4091 15.0826 53.2446 15.0826Z" fill="black"/>
<path d="M58.2639 15.0826C58.0997 15.0811 57.9426 15.0154 57.8257 14.8993C57.7105 14.7815 57.646 14.6228 57.646 14.4575C57.646 14.2922 57.7105 14.1335 57.8257 14.0157L61.2075 10.6066C61.2653 10.5486 61.3339 10.5027 61.4093 10.4714C61.4848 10.4401 61.5656 10.4241 61.6471 10.4243C61.7287 10.4245 61.8095 10.4409 61.8848 10.4725C61.9601 10.5042 62.0284 10.5504 62.086 10.6087C62.1435 10.667 62.1891 10.7362 62.2202 10.8122C62.2512 10.8883 62.2671 10.9698 62.2669 11.052C62.2667 11.1342 62.2505 11.2156 62.2191 11.2915C62.1877 11.3674 62.1417 11.4363 62.0839 11.4943L58.7021 14.8993C58.6447 14.9575 58.5765 15.0037 58.5012 15.0352C58.426 15.0667 58.3453 15.0828 58.2639 15.0826Z" fill="black"/>
<path d="M61.6411 11.5819C61.4767 11.5819 61.3189 11.516 61.2027 11.3988C61.0864 11.2816 61.021 11.1226 61.021 10.9568V1.6714C61.021 1.50561 61.0864 1.3466 61.2027 1.22936C61.3189 1.11212 61.4767 1.04626 61.6411 1.04626C61.8056 1.04626 61.9633 1.11212 62.0796 1.22936C62.1959 1.3466 62.2613 1.50561 62.2613 1.6714V10.9568C62.2613 11.1226 62.1959 11.2816 62.0796 11.3988C61.9633 11.516 61.8056 11.5819 61.6411 11.5819Z" fill="black"/>
<path d="M57.9908 4.84708H53.2446C53.0802 4.84708 52.9225 4.78122 52.8062 4.66398C52.6899 4.54675 52.6245 4.38774 52.6245 4.22194C52.6245 4.05614 52.6899 3.89713 52.8062 3.7799C52.9225 3.66266 53.0802 3.5968 53.2446 3.5968H57.9908C58.1552 3.5968 58.313 3.66266 58.4293 3.7799C58.5456 3.89713 58.6109 4.05614 58.6109 4.22194C58.6109 4.38774 58.5456 4.54675 58.4293 4.66398C58.313 4.78122 58.1552 4.84708 57.9908 4.84708Z" fill="black"/>
<path d="M58.2639 4.84707C58.0997 4.84558 57.9426 4.7798 57.8257 4.66367C57.7105 4.54593 57.646 4.38726 57.646 4.22193C57.646 4.0566 57.7105 3.89789 57.8257 3.78014L61.2075 0.371086C61.325 0.260661 61.4805 0.200548 61.6412 0.203406C61.8018 0.206263 61.9551 0.271863 62.0687 0.386399C62.1823 0.500935 62.2474 0.655449 62.2502 0.817402C62.2531 0.979356 62.1934 1.13611 62.0839 1.25461L58.7021 4.66367C58.6447 4.72192 58.5765 4.76813 58.5012 4.79961C58.426 4.83108 58.3453 4.84723 58.2639 4.84707Z" fill="black"/>
<path d="M53.282 4.65537C53.2005 4.65599 53.1197 4.64007 53.0444 4.60857C52.9691 4.57706 52.9009 4.5306 52.8437 4.47197C52.7857 4.41421 52.7397 4.34543 52.7083 4.26959C52.6768 4.19376 52.6606 4.11242 52.6606 4.03023C52.6606 3.94805 52.6768 3.86665 52.7083 3.79082C52.7397 3.71499 52.7857 3.6462 52.8437 3.58844L56.2214 0.183504C56.2789 0.125217 56.3473 0.0789641 56.4226 0.0473147C56.4979 0.0156652 56.5786 -0.000720283 56.6602 -0.000913789C56.7418 -0.00110729 56.8226 0.0148527 56.8981 0.0461446C56.9735 0.0774364 57.0421 0.123405 57.0999 0.181418C57.1577 0.239432 57.2037 0.308401 57.2351 0.384303C57.2665 0.460206 57.2827 0.541581 57.2829 0.623818C57.2831 0.706054 57.2672 0.787535 57.2362 0.863586C57.2051 0.939637 57.1595 1.00874 57.102 1.06703L53.7202 4.47197C53.6631 4.5306 53.5948 4.57706 53.5196 4.60857C53.4443 4.64007 53.3635 4.65599 53.282 4.65537Z" fill="black"/>
<path d="M61.5049 1.25046H56.7588C56.5943 1.25046 56.4366 1.1846 56.3203 1.06736C56.204 0.950128 56.1387 0.791118 56.1387 0.625321C56.1387 0.459524 56.204 0.300514 56.3203 0.183278C56.4366 0.0660421 56.5943 0.000183105 56.7588 0.000183105H61.5049C61.6694 0.000183105 61.8271 0.0660421 61.9434 0.183278C62.0597 0.300514 62.1251 0.459524 62.1251 0.625321C62.1251 0.791118 62.0597 0.950128 61.9434 1.06736C61.8271 1.1846 61.6694 1.25046 61.5049 1.25046Z" fill="black"/>
</g>
<defs>
<clipPath id="clip0_5_1727">
<rect width="77" height="55" fill="white"/>
</clipPath>
</defs>
</svg>
