<svg width="54" height="75" viewBox="0 0 54 75" fill="none" xmlns="http://www.w3.org/2000/svg">
<g clip-path="url(#clip0_5_1836)">
<path d="M36.3364 22.1382C36.3364 22.1382 36.3364 28.2295 18.1682 28.2295C0 28.2295 0 22.1382 0 22.1382V7.14417C0 7.14417 0 13.6665 18.1682 13.6665C36.3364 13.6665 36.3364 7.14417 36.3364 7.14417V22.1382Z" fill="#FBB900"/>
<path d="M18.5062 12.4529C10.5538 12.4529 2.10156 10.2741 2.10156 6.23036C2.10156 6.04396 2.17471 5.86518 2.30492 5.73337C2.43513 5.60156 2.61174 5.52752 2.79589 5.52752C2.98003 5.52752 3.15664 5.60156 3.28685 5.73337C3.41707 5.86518 3.49021 6.04396 3.49021 6.23036C3.49021 8.51227 9.65582 11.0472 18.5062 11.0472C27.3565 11.0472 33.5221 8.51227 33.5221 6.23036C33.5221 3.94846 27.3519 1.41352 18.5062 1.41352C15.9769 1.40335 13.4524 1.63401 10.9658 2.10235C10.8741 2.12612 10.7786 2.13064 10.6851 2.11568C10.5916 2.10072 10.5022 2.06659 10.4222 2.01535C10.3422 1.96412 10.2734 1.89686 10.2201 1.81774C10.1667 1.73861 10.1299 1.64931 10.1119 1.55526C10.0939 1.46121 10.0951 1.36439 10.1153 1.27081C10.1356 1.17724 10.1746 1.08885 10.2299 1.01108C10.2851 0.933303 10.3555 0.867789 10.4367 0.818551C10.5178 0.769312 10.6081 0.737385 10.7019 0.724746C13.2752 0.237483 15.8883 -0.00256462 18.5062 0.00783099C26.4585 0.00783099 34.9108 2.19135 34.9108 6.23036C34.9108 10.2694 26.4585 12.4529 18.5062 12.4529Z" fill="black"/>
<path d="M18.5062 25.2916C10.5538 25.2916 2.10156 23.1128 2.10156 19.0691V6.88645C2.10156 6.70004 2.17471 6.52126 2.30492 6.38945C2.43513 6.25765 2.61174 6.1836 2.79589 6.1836C2.98003 6.1836 3.15664 6.25765 3.28685 6.38945C3.41707 6.52126 3.49021 6.70004 3.49021 6.88645V19.0691C3.49021 21.3463 9.65582 23.8859 18.5062 23.8859C27.3565 23.8859 33.5221 21.3463 33.5221 19.0691L33.4018 6.88645C33.4011 6.79415 33.4185 6.70261 33.4528 6.6171C33.4872 6.53159 33.5378 6.45378 33.6018 6.38808C33.6659 6.32238 33.7421 6.27011 33.8261 6.23422C33.9101 6.19833 34.0003 6.17952 34.0914 6.17891C34.182 6.17829 34.2718 6.19576 34.3557 6.23027C34.4397 6.26479 34.516 6.31568 34.5805 6.38007C34.645 6.44447 34.6963 6.52108 34.7315 6.60555C34.7667 6.69002 34.7852 6.78069 34.7858 6.87237L34.9061 19.055C34.9108 23.1128 26.4585 25.2916 18.5062 25.2916Z" fill="black"/>
<path d="M46.1493 75.0015C43.4183 75.0015 40.3679 72.6587 40.2197 72.5181C40.1842 72.4921 40.1516 72.4623 40.1225 72.4291C39.9781 72.3713 39.8573 72.2656 39.78 72.1292C38.7941 70.4189 30.1196 55.3078 29.8141 51.5827C29.5568 48.2019 30.0764 44.8067 31.3324 41.6632C32.5313 38.7487 35.0355 36.2982 37.7526 35.4173C40.8909 34.3911 43.858 38.2287 43.983 38.3973C44.0057 38.4241 44.0245 38.4541 44.0385 38.4864C44.3764 39.0955 52.2454 53.4148 53.0925 55.4764C54.0183 57.7771 54.1479 62.7532 53.8656 65.3163C53.5415 68.2261 50.2597 73.9144 47.3296 74.8328C46.9466 74.9478 46.5488 75.0047 46.1493 75.0015ZM40.9187 71.3186C40.973 71.3419 41.0243 71.3718 41.0714 71.4076C42.062 72.1854 45.043 74.0738 46.9177 73.488C49.1025 72.8039 52.1945 67.795 52.4723 65.1617C52.7824 62.3503 52.5602 57.8661 51.8011 56.0153C51.0096 54.0848 43.3535 40.1451 42.8443 39.2173C42.1268 38.2802 39.979 36.1623 38.1645 36.7527C35.5168 37.6195 33.4663 40.117 32.6099 42.2068C31.4378 45.1425 30.953 48.3132 31.1935 51.4703C31.4342 54.3285 38.2386 66.6658 40.9187 71.3186Z" fill="black"/>
<path d="M31.5178 66.1737C31.3755 66.173 31.2368 66.1289 31.1197 66.0472L10.6926 51.5217C8.82232 50.1881 7.28496 48.4313 6.20267 46.391C5.89253 45.81 5.54076 45.1306 5.14731 44.3387C4.12158 42.1157 3.58612 39.6934 3.57813 37.24V21.8054C3.57812 21.619 3.65127 21.4403 3.78148 21.3085C3.9117 21.1766 4.0883 21.1026 4.27245 21.1026C4.4566 21.1026 4.63321 21.1766 4.76342 21.3085C4.89363 21.4403 4.96678 21.619 4.96678 21.8054V37.268C4.96678 37.3149 4.92974 40.8104 6.3832 43.7155C6.77665 44.498 7.12381 45.168 7.42469 45.7397C8.40648 47.5875 9.79943 49.1788 11.4934 50.3878L31.9205 64.9133C32.0675 65.0175 32.1687 65.1757 32.2024 65.3541C32.2361 65.5326 32.1997 65.7174 32.101 65.8692C32.0367 65.9653 31.9497 66.0435 31.8478 66.0967C31.7459 66.15 31.6324 66.1764 31.5178 66.1737Z" fill="black"/>
<path d="M40.0025 36.8557C39.8657 36.8567 39.7318 36.8158 39.6183 36.7386L33.7721 32.7558C33.2193 32.3799 32.7663 31.8722 32.4531 31.2774C32.1399 30.6825 31.9761 30.0188 31.9761 29.3447V21.7915C31.9761 21.6051 32.0492 21.4263 32.1794 21.2945C32.3096 21.1627 32.4863 21.0886 32.6704 21.0886C32.8545 21.0886 33.0312 21.1627 33.1614 21.2945C33.2916 21.4263 33.3647 21.6051 33.3647 21.7915V29.3447C33.3658 29.7879 33.4739 30.224 33.6796 30.6152C33.8854 31.0064 34.1825 31.3408 34.5451 31.5891L40.3913 35.5719C40.5139 35.6563 40.6066 35.7783 40.6557 35.9199C40.7049 36.0615 40.7079 36.2154 40.6644 36.3589C40.621 36.5024 40.5333 36.6281 40.4142 36.7175C40.295 36.8069 40.1508 36.8553 40.0025 36.8557Z" fill="black"/>
</g>
<defs>
<clipPath id="clip0_5_1836">
<rect width="54" height="75" fill="white"/>
</clipPath>
</defs>
</svg>
