<svg width="68" height="69" viewBox="0 0 68 69" fill="none" xmlns="http://www.w3.org/2000/svg">
<g clip-path="url(#clip0_5_1867)">
<path d="M17.7047 20.4152C21.183 20.4152 24.0027 17.5521 24.0027 14.0201C24.0027 10.4882 21.183 7.625 17.7047 7.625C14.2264 7.625 11.4067 10.4882 11.4067 14.0201C11.4067 17.5521 14.2264 20.4152 17.7047 20.4152Z" fill="#FBB900"/>
<path d="M47.8941 40.8304C58.9979 40.8304 67.9992 31.6902 67.9992 20.4152C67.9992 9.14019 58.9979 0 47.8941 0C36.7904 0 27.7891 9.14019 27.7891 20.4152C27.7891 31.6902 36.7904 40.8304 47.8941 40.8304Z" fill="#FBB900"/>
<path d="M17.7048 23.604C16.7655 23.6075 15.8353 23.4182 14.9699 23.0475C14.1045 22.6767 13.3219 22.1321 12.669 21.4464C12.5575 21.3222 12.498 21.1589 12.503 20.9909C12.508 20.8229 12.5772 20.6636 12.6958 20.5464C12.8145 20.4293 12.9734 20.3636 13.1389 20.3633C13.3044 20.3629 13.4635 20.428 13.5826 20.5446C14.4937 21.4977 15.6977 22.1065 16.9958 22.2705C18.2938 22.4345 19.608 22.1439 20.7214 21.4467C21.8347 20.7494 22.6804 19.6873 23.1187 18.4359C23.5569 17.1845 23.5616 15.8187 23.1318 14.5642C22.7021 13.3097 21.8636 12.2417 20.7551 11.5367C19.6466 10.8316 18.3343 10.5318 17.0352 10.6867C15.7361 10.8416 14.5279 11.442 13.6104 12.3886C12.6929 13.3352 12.1209 14.5714 11.989 15.8928C11.9721 16.0645 11.8887 16.2223 11.7572 16.3316C11.6257 16.4408 11.4569 16.4926 11.2878 16.4754C11.1188 16.4582 10.9634 16.3736 10.8558 16.24C10.7482 16.1065 10.6972 15.935 10.7141 15.7634C10.8498 14.3909 11.3747 13.0879 12.2251 12.0124C13.0755 10.9368 14.215 10.1348 15.5053 9.70376C16.7957 9.27268 18.1815 9.23099 19.4947 9.58371C20.8079 9.93644 21.9922 10.6684 22.9038 11.691C23.8155 12.7135 24.4155 13.9827 24.631 15.3445C24.8464 16.7064 24.6682 18.1025 24.1179 19.3635C23.5675 20.6246 22.6687 21.6965 21.5304 22.4492C20.3921 23.2019 19.0632 23.603 17.7048 23.604Z" fill="black"/>
<path d="M11.755 21.8262H3.18772C2.34242 21.8262 1.53171 21.4852 0.933989 20.8783C0.336266 20.2713 0.000488281 19.4482 0.000488281 18.5898C0.000488281 17.7315 0.336266 16.9083 0.933989 16.3013C1.53171 15.6944 2.34242 15.3534 3.18772 15.3534H3.61269C3.70364 14.5507 4.08214 13.8099 4.67614 13.2722C5.27013 12.7344 6.03811 12.4373 6.8339 12.4373C7.62969 12.4373 8.39769 12.7344 8.99169 13.2722C9.58568 13.8099 9.96418 14.5507 10.0551 15.3534H11.755C12.6003 15.3534 13.411 15.6944 14.0087 16.3013C14.6064 16.9083 14.9422 17.7315 14.9422 18.5898C14.9422 19.4482 14.6064 20.2713 14.0087 20.8783C13.411 21.4852 12.6003 21.8262 11.755 21.8262ZM3.18347 16.648C2.67628 16.648 2.18986 16.8526 1.83123 17.2167C1.47259 17.5809 1.27113 18.0748 1.27113 18.5898C1.27113 19.1048 1.47259 19.5988 1.83123 19.9629C2.18986 20.3271 2.67628 20.5317 3.18347 20.5317H11.755C12.2622 20.5317 12.7486 20.3271 13.1072 19.9629C13.4659 19.5988 13.6673 19.1048 13.6673 18.5898C13.6673 18.0748 13.4659 17.5809 13.1072 17.2167C12.7486 16.8526 12.2622 16.648 11.755 16.648H9.43468C9.34521 16.6484 9.25667 16.6298 9.1747 16.5934C9.09274 16.557 9.01916 16.5035 8.95872 16.4366C8.8993 16.368 8.85431 16.2879 8.82654 16.2011C8.79877 16.1143 8.78879 16.0226 8.79723 15.9317C8.80172 15.8627 8.80172 15.7935 8.79723 15.7245C8.79723 15.1947 8.58994 14.6865 8.22095 14.3118C7.85195 13.9371 7.35148 13.7266 6.82964 13.7266C6.30781 13.7266 5.80736 13.9371 5.43837 14.3118C5.06937 14.6865 4.86208 15.1947 4.86208 15.7245C4.85773 15.795 4.85773 15.8656 4.86208 15.936C4.87018 16.0262 4.86002 16.1171 4.83225 16.2032C4.80448 16.2893 4.75969 16.3687 4.70059 16.4366C4.64048 16.5028 4.56756 16.5558 4.4864 16.5922C4.40524 16.6285 4.31758 16.6475 4.22886 16.648H3.18347Z" fill="black"/>
<path d="M7.93065 69H1.44995C1.28089 69 1.11874 68.9318 0.9992 68.8104C0.879656 68.689 0.8125 68.5244 0.8125 68.3527V37.9694C0.815755 37.8085 0.877857 37.6547 0.986724 37.5379L4.16122 34.0857C4.22042 34.0218 4.29187 33.971 4.37116 33.9362C4.45046 33.9014 4.53594 33.8834 4.62232 33.8834C4.7087 33.8834 4.79415 33.9014 4.87345 33.9362C4.95274 33.971 5.02418 34.0218 5.08339 34.0857L8.38537 37.5379C8.49544 37.6543 8.55904 37.8081 8.56385 37.9694V68.3527C8.56385 68.5237 8.49728 68.6876 8.37865 68.8089C8.26003 68.9302 8.09898 68.9989 7.93065 69ZM2.09165 67.7055H7.29321V38.2326L4.64143 35.458L2.09165 38.2283V67.7055Z" fill="black"/>
<path d="M18.9415 68.9999H12.4651C12.296 68.9999 12.1339 68.9317 12.0143 68.8103C11.8948 68.6889 11.8276 68.5243 11.8276 68.3527V37.9693C11.8293 37.809 11.89 37.6551 11.9976 37.5378L15.1721 34.0856C15.2311 34.0217 15.3021 33.9705 15.381 33.935C15.4598 33.8994 15.5448 33.8801 15.6311 33.8785C15.7176 33.8772 15.8035 33.8941 15.8832 33.9283C15.963 33.9625 16.0348 34.0131 16.0943 34.077L19.3963 37.5291C19.5075 37.6451 19.5726 37.7988 19.579 37.9606V68.344C19.5801 68.4297 19.5645 68.5148 19.5329 68.5943C19.5014 68.6739 19.4546 68.7462 19.3953 68.8072C19.336 68.8683 19.2654 68.9167 19.1875 68.9498C19.1096 68.9829 19.026 68.9999 18.9415 68.9999ZM13.1025 67.7054H18.3041V38.2326L15.6481 35.4579L13.0983 38.2282L13.1025 67.7054Z" fill="black"/>
<path d="M29.9523 69H23.4758C23.3068 69 23.1446 68.9318 23.0251 68.8104C22.9055 68.689 22.8384 68.5244 22.8384 68.3527V37.9694C22.8401 37.8091 22.9007 37.6551 23.0083 37.5379L26.1871 34.0857C26.2461 34.0218 26.3171 33.9706 26.3959 33.9351C26.4748 33.8995 26.5598 33.8802 26.646 33.8786C26.7325 33.8775 26.8183 33.8947 26.898 33.9288C26.9777 33.963 27.0497 34.0134 27.1093 34.0771L30.4112 37.5292C30.5213 37.6457 30.5849 37.7994 30.5897 37.9607V68.3441C30.5909 68.4298 30.5752 68.5149 30.5437 68.5944C30.5121 68.674 30.4654 68.7463 30.4061 68.8073C30.3468 68.8684 30.2761 68.9168 30.1982 68.9499C30.1203 68.9829 30.0367 69 29.9523 69ZM24.1133 67.7055H29.3148V38.2327L26.6588 35.458L24.109 38.2283L24.1133 67.7055Z" fill="black"/>
<path d="M40.963 69H34.4866C34.3175 69 34.1554 68.9318 34.0358 68.8104C33.9163 68.689 33.8491 68.5244 33.8491 68.3527V37.9694C33.8524 37.8085 33.9145 37.6547 34.0234 37.5378L37.1978 34.0857C37.2568 34.0218 37.3279 33.9706 37.4067 33.935C37.4855 33.8994 37.5706 33.8802 37.6568 33.8786C37.7434 33.8767 37.8294 33.8934 37.9093 33.9276C37.9891 33.9619 38.0609 34.0127 38.12 34.077L41.422 37.5292C41.5321 37.6456 41.5957 37.7994 41.6005 37.9607V68.3441C41.6016 68.4298 41.5859 68.5149 41.5544 68.5944C41.5229 68.6739 41.4761 68.7463 41.4168 68.8073C41.3575 68.8683 41.2868 68.9168 41.2089 68.9498C41.131 68.9829 41.0475 69 40.963 69ZM35.124 67.7054H40.3256V38.2326L37.6738 35.458L35.124 38.2283V67.7054Z" fill="black"/>
<path d="M51.9782 68.9999H45.5017C45.3326 68.9999 45.1705 68.9317 45.051 68.8103C44.9314 68.6889 44.8643 68.5243 44.8643 68.3527V37.9693C44.8659 37.809 44.9266 37.6551 45.0343 37.5378L48.2088 34.0856C48.2687 34.0218 48.3405 33.9706 48.42 33.9351C48.4995 33.8995 48.5851 33.8803 48.6719 33.8785C48.7585 33.8772 48.8444 33.8941 48.9241 33.9283C49.0038 33.9625 49.0757 34.0131 49.1352 34.077L52.4329 37.5291C52.5456 37.6442 52.6109 37.7985 52.6156 37.9606V68.344C52.6168 68.4297 52.6011 68.5148 52.5696 68.5943C52.538 68.6739 52.4912 68.7462 52.4319 68.8072C52.3726 68.8683 52.302 68.9167 52.2241 68.9498C52.1462 68.9829 52.0626 68.9999 51.9782 68.9999ZM46.1392 67.7054H51.3407V38.2326L48.6847 35.4579L46.1349 38.2282L46.1392 67.7054Z" fill="black"/>
<path d="M62.9889 69H56.5124C56.3434 69 56.1812 68.9318 56.0617 68.8104C55.9422 68.689 55.875 68.5244 55.875 68.3527V37.9694C55.8783 37.8085 55.9404 37.6547 56.0492 37.5378L59.2237 34.0857C59.2827 34.0218 59.3537 33.9706 59.4326 33.935C59.5114 33.8994 59.5964 33.8802 59.6827 33.8786C59.7693 33.8767 59.8553 33.8934 59.9351 33.9276C60.0149 33.9619 60.0868 34.0127 60.1459 34.077L63.4479 37.5292C63.5579 37.6456 63.6215 37.7994 63.6263 37.9607V56.9476C63.6263 57.1192 63.5592 57.2839 63.4396 57.4053C63.3201 57.5267 63.158 57.5949 62.9889 57.5949C62.8198 57.5949 62.6577 57.5267 62.5382 57.4053C62.4186 57.2839 62.3515 57.1192 62.3515 56.9476V38.2153L59.6997 35.4407L57.1499 38.211V67.6882H62.3515V61.5864C62.3515 61.4147 62.4186 61.2502 62.5382 61.1288C62.6577 61.0074 62.8198 60.9391 62.9889 60.9391C63.158 60.9391 63.3201 61.0074 63.4396 61.1288C63.5592 61.2502 63.6263 61.4147 63.6263 61.5864V68.3527C63.6263 68.5244 63.5592 68.689 63.4396 68.8104C63.3201 68.9318 63.158 69 62.9889 69Z" fill="black"/>
<path d="M62.9891 45.0161H1.44995C1.28089 45.0161 1.11874 44.9479 0.9992 44.8265C0.879656 44.7051 0.8125 44.5405 0.8125 44.3688C0.8125 44.1972 0.879656 44.0326 0.9992 43.9112C1.11874 43.7898 1.28089 43.7216 1.44995 43.7216H62.9891C63.1581 43.7216 63.3203 43.7898 63.4398 43.9112C63.5593 44.0326 63.6265 44.1972 63.6265 44.3688C63.6265 44.5405 63.5593 44.7051 63.4398 44.8265C63.3203 44.9479 63.1581 45.0161 62.9891 45.0161Z" fill="black"/>
<path d="M62.9891 52.4166H1.44995C1.28089 52.4166 1.11874 52.3485 0.9992 52.2271C0.879656 52.1057 0.8125 51.941 0.8125 51.7693C0.8125 51.5977 0.879656 51.4331 0.9992 51.3117C1.11874 51.1903 1.28089 51.1221 1.44995 51.1221H62.9891C63.1581 51.1221 63.3203 51.1903 63.4398 51.3117C63.5593 51.4331 63.6265 51.5977 63.6265 51.7693C63.6265 51.941 63.5593 52.1057 63.4398 52.2271C63.3203 52.3485 63.1581 52.4166 62.9891 52.4166Z" fill="black"/>
<path d="M62.989 65.427H40.9631C40.7941 65.427 40.6319 65.3588 40.5124 65.2374C40.3928 65.116 40.3257 64.9514 40.3257 64.7797C40.3257 64.6081 40.3928 64.4434 40.5124 64.322C40.6319 64.2006 40.7941 64.1324 40.9631 64.1324H62.989C63.1581 64.1324 63.3202 64.2006 63.4398 64.322C63.5593 64.4434 63.6265 64.6081 63.6265 64.7797C63.6265 64.9514 63.5593 65.116 63.4398 65.2374C63.3202 65.3588 63.1581 65.427 62.989 65.427Z" fill="black"/>
<path d="M62.2068 69H15.4607C15.2916 69 15.1295 68.9318 15.01 68.8104C14.8904 68.689 14.8232 68.5244 14.8232 68.3527C14.8232 68.1811 14.8904 68.0164 15.01 67.895C15.1295 67.7736 15.2916 67.7054 15.4607 67.7054H62.2068C62.3758 67.7054 62.538 67.7736 62.6575 67.895C62.7771 68.0164 62.8442 68.1811 62.8442 68.3527C62.8442 68.5244 62.7771 68.689 62.6575 68.8104C62.538 68.9318 62.3758 69 62.2068 69Z" fill="black"/>
<path d="M40.9631 65.2975C40.8427 65.2969 40.7249 65.2618 40.6234 65.1961C40.5219 65.1305 40.4407 65.0369 40.3894 64.9263C40.0852 64.2635 39.7165 63.6332 39.2887 63.045C38.8738 62.6523 38.3833 62.3511 37.8481 62.1603C37.7129 62.1118 37.5976 62.0188 37.5206 61.896C37.4436 61.7732 37.4093 61.6277 37.4231 61.4828C37.4791 60.9507 37.4791 60.414 37.4231 59.8819C37.3806 59.6402 37.0577 58.3975 35.0731 57.7848C33.4242 57.2756 31.9368 59.0405 31.9198 59.0793C31.8552 59.1574 31.7736 59.2191 31.6814 59.2596C31.5892 59.3 31.4889 59.318 31.3886 59.3122C31.2886 59.3037 31.1917 59.2721 31.1056 59.2198C31.0194 59.1674 30.9462 59.0957 30.8914 59.0102C30.8064 58.8678 28.6774 55.5193 25.5666 56.3607C22.4559 57.2022 21.8907 59.3123 21.8694 59.403C21.8421 59.5202 21.7833 59.6275 21.6995 59.7128C21.6158 59.7981 21.5104 59.8581 21.395 59.8863C21.2797 59.9145 21.1589 59.9096 21.0461 59.8723C20.9333 59.8349 20.8329 59.7666 20.756 59.6748C20.2822 59.1656 19.6946 58.7799 19.043 58.55C18.3913 58.3202 17.6947 58.253 17.0121 58.3543C14.8363 58.6348 14.577 59.5669 14.577 59.5798C14.5519 59.7381 14.4686 59.8808 14.3441 59.9792C14.2195 60.0777 14.0628 60.1246 13.9056 60.1106C13.7458 60.0957 13.5971 60.0214 13.4881 59.9019C13.3791 59.7824 13.3174 59.6262 13.3149 59.4633C13.2976 58.8396 13.1695 58.2241 12.9367 57.6466C12.754 57.2712 12.2652 56.2787 9.70269 56.7534C9.11812 56.8619 8.58531 57.1637 8.18717 57.6117C7.78904 58.0596 7.54792 58.6287 7.50138 59.2303C7.49027 59.3882 7.42288 59.5367 7.31183 59.6479C7.20077 59.7591 7.05364 59.8254 6.89794 59.8345C5.99705 59.9085 5.11198 60.1179 4.27166 60.4558C3.42173 60.814 2.34656 62.7429 1.86635 63.8778C1.79985 64.0357 1.6743 64.1603 1.5173 64.2243C1.3603 64.2882 1.18471 64.2862 1.02918 64.2187C0.873642 64.1512 0.750875 64.0237 0.687915 63.8643C0.624955 63.7049 0.626942 63.5265 0.69344 63.3686C0.842177 63.0191 2.18082 59.938 3.78294 59.2605C4.59184 58.927 5.44063 58.7035 6.30723 58.596C6.46343 57.8128 6.8495 57.0959 7.41462 56.5398C7.97973 55.9837 8.69741 55.6144 9.47322 55.4804C11.8318 55.0489 13.3362 55.5624 14.0756 57.064C14.2049 57.333 14.306 57.6152 14.3773 57.9056C15.3896 57.2931 16.5551 56.9918 17.7326 57.0386C18.9101 57.0853 20.0489 57.4779 21.011 58.1688C21.5295 57.2151 22.7109 55.7954 25.2607 55.1093C28.3502 54.2721 30.6025 56.516 31.5289 57.6984C32.2938 57.0252 33.7599 56.063 35.464 56.5894C38.0861 57.4007 38.6045 59.1785 38.698 59.6877C38.7642 60.181 38.7798 60.6799 38.7448 61.1764C39.3186 61.4261 39.8373 61.79 40.2704 62.2466C40.7642 62.9215 41.1912 63.6442 41.5453 64.4042C41.5909 64.5033 41.6113 64.6124 41.6045 64.7215C41.5977 64.8307 41.564 64.9363 41.5064 65.0287C41.4488 65.1211 41.3693 65.1974 41.2751 65.2504C41.1809 65.3034 41.075 65.3315 40.9673 65.332L40.9631 65.2975Z" fill="black"/>
<path d="M62.9887 36.8173C62.8197 36.8173 62.6575 36.749 62.538 36.6277C62.4184 36.5063 62.3513 36.3417 62.3513 36.17V14.21C62.2323 13.7784 61.4759 11.1591 59.6953 10.5981C58.386 10.2421 56.993 10.396 55.7898 11.0297C55.712 11.073 55.6263 11.1 55.5379 11.1089C55.4496 11.1178 55.3603 11.1085 55.2756 11.0814C55.1918 11.0527 55.1147 11.0069 55.0489 10.9468C54.9831 10.8867 54.9301 10.8136 54.8932 10.7319C54.8932 10.7061 53.6735 8.08241 51.0005 7.27978C49.308 6.79634 47.5169 6.79634 45.8244 7.27978C45.7452 7.30812 45.6612 7.32033 45.5773 7.31571C45.4934 7.31109 45.4112 7.28973 45.3355 7.25287C45.1825 7.17842 45.0648 7.04528 45.0085 6.88277C44.9521 6.72025 44.9617 6.54168 45.035 6.3863C45.1083 6.23092 45.2394 6.11145 45.3994 6.05423C47.3431 5.4855 49.4053 5.4855 51.3489 6.05423C53.1965 6.65169 54.7604 7.9231 55.7388 9.62291C57.1102 9.04056 58.6358 8.94927 60.065 9.36401C62.7082 10.1968 63.5667 13.8345 63.6007 13.9899C63.6072 14.0386 63.6072 14.0879 63.6007 14.1366V36.1743C63.5997 36.3409 63.5356 36.5006 63.4216 36.6204C63.3076 36.7401 63.1526 36.8106 62.9887 36.8173Z" fill="black"/>
<path d="M26.5271 35.2983C26.4105 35.2976 26.2963 35.2648 26.1967 35.2032C26.0971 35.1417 26.016 35.0536 25.9619 34.9487C25.8939 34.8149 24.3173 31.6389 25.7749 27.2806C26.9266 23.8284 30.3476 22.3484 31.9199 21.8392C31.2995 20.467 30.4113 17.4851 32.6763 14.8011C35.3366 11.6337 38.4941 12.0005 40.007 12.432C40.0303 12.0675 40.0729 11.7045 40.1345 11.3446C40.2646 10.6257 40.5554 9.94662 40.9844 9.35963C41.0366 9.29304 41.1012 9.23757 41.1745 9.19633C41.2478 9.15509 41.3284 9.12888 41.4116 9.11927C41.4949 9.10965 41.5792 9.11676 41.6598 9.14023C41.7403 9.1637 41.8155 9.20308 41.8811 9.25607C41.9467 9.30905 42.0013 9.37464 42.0419 9.44907C42.0825 9.5235 42.1083 9.6053 42.1178 9.68985C42.1273 9.7744 42.1202 9.86001 42.0971 9.9418C42.074 10.0236 42.0353 10.1 41.9831 10.1666C41.6832 10.5814 41.4785 11.0591 41.3839 11.5647C41.2924 12.1454 41.2483 12.7329 41.2521 13.321C41.2549 13.4327 41.2292 13.5432 41.1775 13.6418C41.1258 13.7404 41.0498 13.8237 40.957 13.8836C40.8641 13.9436 40.7576 13.9781 40.6477 13.9839C40.5379 13.9896 40.4284 13.9664 40.33 13.9165C40.1812 13.8388 36.6158 12.1084 33.6368 15.6426C31.2272 18.5079 33.2926 21.7572 33.3818 21.8952C33.4386 21.9835 33.4734 22.0845 33.4832 22.1895C33.4931 22.2945 33.4777 22.4004 33.4384 22.498C33.3991 22.5956 33.3371 22.6819 33.2577 22.7499C33.1782 22.8178 33.0837 22.8651 32.9823 22.8878C32.9356 22.8878 28.227 23.9622 26.9776 27.7035C25.7027 31.5138 27.0796 34.3317 27.0923 34.3576C27.1669 34.5095 27.1798 34.685 27.1281 34.8464C27.0764 35.0078 26.9644 35.1423 26.8161 35.2206C26.727 35.269 26.6281 35.2955 26.5271 35.2983Z" fill="black"/>
</g>
<defs>
<clipPath id="clip0_5_1867">
<rect width="68" height="69" fill="white"/>
</clipPath>
</defs>
</svg>
