<svg width="67" height="60" viewBox="0 0 67 60" fill="none" xmlns="http://www.w3.org/2000/svg">
<g clip-path="url(#clip0_5_1751)">
<path d="M45.0557 29.455H7.22897C3.23652 29.455 0 32.7 0 36.703V52.7519C0 56.7549 3.23652 60 7.22897 60H45.0557C49.0481 60 52.2847 56.7549 52.2847 52.7519V36.703C52.2847 32.7 49.0481 29.455 45.0557 29.455Z" fill="#FBB900"/>
<path d="M64.2264 56.3159H4.3888C4.21225 56.3159 4.04294 56.2456 3.91811 56.1204C3.79327 55.9953 3.72314 55.8255 3.72314 55.6485V54.1491C3.72314 53.323 4.05044 52.5308 4.633 51.9467C5.21556 51.3626 6.00566 51.0345 6.82952 51.0345H61.8123C62.6362 51.0345 63.4263 51.3626 64.0088 51.9467C64.5914 52.5308 64.9187 53.323 64.9187 54.1491V55.6485C64.9181 55.7383 64.8997 55.827 64.8643 55.9095C64.829 55.992 64.7776 56.0665 64.713 56.1287C64.6485 56.1909 64.5722 56.2395 64.4886 56.2717C64.405 56.3038 64.3158 56.3189 64.2264 56.3159ZM5.05445 54.9811H63.5607V54.1491C63.5607 53.677 63.3737 53.2243 63.0408 52.8905C62.708 52.5568 62.2564 52.3693 61.7857 52.3693H6.80292C6.33214 52.3693 5.88062 52.5568 5.54773 52.8905C5.21484 53.2243 5.02785 53.677 5.02785 54.1491L5.05445 54.9811Z" fill="black"/>
<path d="M6.15491 51.7953C5.97837 51.7953 5.80905 51.725 5.68422 51.5998C5.55938 51.4746 5.48926 51.3049 5.48926 51.1279V21.4994C5.48926 21.3224 5.55938 21.1527 5.68422 21.0275C5.80905 20.9023 5.97837 20.832 6.15491 20.832C6.33145 20.832 6.50077 20.9023 6.6256 21.0275C6.75043 21.1527 6.82056 21.3224 6.82056 21.4994V51.1279C6.82056 51.3049 6.75043 51.4746 6.6256 51.5998C6.50077 51.725 6.33145 51.7953 6.15491 51.7953Z" fill="black"/>
<path d="M62.0699 52.3827C61.8934 52.3827 61.7241 52.3123 61.5993 52.1872C61.4744 52.062 61.4043 51.8923 61.4043 51.7152V20.7609C61.4043 20.5838 61.4744 20.4141 61.5993 20.2889C61.7241 20.1638 61.8934 20.0934 62.0699 20.0934C62.2465 20.0934 62.4158 20.1638 62.5406 20.2889C62.6655 20.4141 62.7356 20.5838 62.7356 20.7609V51.7152C62.7356 51.8923 62.6655 52.062 62.5406 52.1872C62.4158 52.3123 62.2465 52.3827 62.0699 52.3827Z" fill="black"/>
<path d="M62.0696 26.7853H6.15491C5.97837 26.7853 5.80905 26.715 5.68422 26.5898C5.55938 26.4647 5.48926 26.2949 5.48926 26.1179C5.48926 25.9409 5.55938 25.7711 5.68422 25.646C5.80905 25.5208 5.97837 25.4505 6.15491 25.4505H62.0696C62.2461 25.4505 62.4155 25.5208 62.5403 25.646C62.6651 25.7711 62.7353 25.9409 62.7353 26.1179C62.7353 26.2949 62.6651 26.4647 62.5403 26.5898C62.4155 26.715 62.2461 26.7853 62.0696 26.7853Z" fill="black"/>
<path d="M27.0299 52.3827C26.8534 52.3827 26.6841 52.3123 26.5592 52.1872C26.4344 52.062 26.3643 51.8923 26.3643 51.7153V26.4116C26.3643 26.2346 26.4344 26.0648 26.5592 25.9397C26.6841 25.8145 26.8534 25.7442 27.0299 25.7442C27.2065 25.7442 27.3758 25.8145 27.5006 25.9397C27.6254 26.0648 27.6956 26.2346 27.6956 26.4116V51.7153C27.6956 51.8923 27.6254 52.062 27.5006 52.1872C27.3758 52.3123 27.2065 52.3827 27.0299 52.3827Z" fill="black"/>
<path d="M41.3414 52.3826C41.1649 52.3826 40.9956 52.3123 40.8707 52.1872C40.7459 52.062 40.6758 51.8922 40.6758 51.7152V26.1179C40.6758 25.9409 40.7459 25.7711 40.8707 25.646C40.9956 25.5208 41.1649 25.4505 41.3414 25.4505C41.518 25.4505 41.6873 25.5208 41.8121 25.646C41.937 25.7711 42.0071 25.9409 42.0071 26.1179V51.7152C42.0071 51.8922 41.937 52.062 41.8121 52.1872C41.6873 52.3123 41.518 52.3826 41.3414 52.3826Z" fill="black"/>
<path d="M26.8345 47.4171H6.15491C5.97837 47.4171 5.80905 47.3468 5.68422 47.2216C5.55938 47.0965 5.48926 46.9267 5.48926 46.7497C5.48926 46.5727 5.55938 46.4029 5.68422 46.2778C5.80905 46.1526 5.97837 46.0823 6.15491 46.0823H26.8345C27.0111 46.0823 27.1803 46.1526 27.3051 46.2778C27.43 46.4029 27.5002 46.5727 27.5002 46.7497C27.5002 46.9267 27.43 47.0965 27.3051 47.2216C27.1803 47.3468 27.0111 47.4171 26.8345 47.4171Z" fill="black"/>
<path d="M62.0698 47.6173H41.3414C41.1649 47.6173 40.9956 47.547 40.8707 47.4218C40.7459 47.2966 40.6758 47.1269 40.6758 46.9499C40.6758 46.7729 40.7459 46.6031 40.8707 46.4779C40.9956 46.3528 41.1649 46.2825 41.3414 46.2825H62.0698C62.2463 46.2825 62.4156 46.3528 62.5405 46.4779C62.6653 46.6031 62.7354 46.7729 62.7354 46.9499C62.7354 47.1269 62.6653 47.2966 62.5405 47.4218C62.4156 47.547 62.2463 47.6173 62.0698 47.6173Z" fill="black"/>
<path d="M62.0698 42.1623H41.3414C41.1649 42.1623 40.9956 42.092 40.8707 41.9669C40.7459 41.8417 40.6758 41.6719 40.6758 41.4949C40.6758 41.3179 40.7459 41.1482 40.8707 41.023C40.9956 40.8979 41.1649 40.8275 41.3414 40.8275H62.0698C62.2463 40.8275 62.4156 40.8979 62.5405 41.023C62.6653 41.1482 62.7354 41.3179 62.7354 41.4949C62.7354 41.6719 62.6653 41.8417 62.5405 41.9669C62.4156 42.092 62.2463 42.1623 62.0698 42.1623Z" fill="black"/>
<path d="M26.8345 42.0155H6.15491C5.97837 42.0155 5.80905 41.9452 5.68422 41.8201C5.55938 41.6949 5.48926 41.5251 5.48926 41.3481C5.48926 41.1711 5.55938 41.0014 5.68422 40.8762C5.80905 40.751 5.97837 40.6807 6.15491 40.6807H26.8345C27.0111 40.6807 27.1803 40.751 27.3051 40.8762C27.43 41.0014 27.5002 41.1711 27.5002 41.3481C27.5002 41.5251 27.43 41.6949 27.3051 41.8201C27.1803 41.9452 27.0111 42.0155 26.8345 42.0155Z" fill="black"/>
<path d="M11.3961 41.5261C11.2196 41.5261 11.0503 41.4558 10.9254 41.3306C10.8006 41.2055 10.7305 41.0357 10.7305 40.8587V26.7052C10.7305 26.5282 10.8006 26.3584 10.9254 26.2333C11.0503 26.1081 11.2196 26.0378 11.3961 26.0378C11.5727 26.0378 11.742 26.1081 11.8668 26.2333C11.9916 26.3584 12.0618 26.5282 12.0618 26.7052V40.8587C12.0618 41.0357 11.9916 41.2055 11.8668 41.3306C11.742 41.4558 11.5727 41.5261 11.3961 41.5261Z" fill="black"/>
<path d="M23.5021 41.5261C23.3255 41.5261 23.1562 41.4558 23.0314 41.3307C22.9066 41.2055 22.8364 41.0357 22.8364 40.8587V26.1179C22.8364 25.9409 22.9066 25.7711 23.0314 25.646C23.1562 25.5208 23.3255 25.4505 23.5021 25.4505C23.6786 25.4505 23.8479 25.5208 23.9728 25.646C24.0976 25.7711 24.1677 25.9409 24.1677 26.1179V40.8587C24.1677 41.0357 24.0976 41.2055 23.9728 41.3307C23.8479 41.4558 23.6786 41.5261 23.5021 41.5261Z" fill="black"/>
<path d="M44.6207 42.0155C44.4442 42.0155 44.2749 41.9452 44.15 41.8201C44.0252 41.6949 43.9551 41.5251 43.9551 41.3481V26.7052C43.9551 26.5282 44.0252 26.3584 44.15 26.2333C44.2749 26.1081 44.4442 26.0378 44.6207 26.0378C44.7973 26.0378 44.9666 26.1081 45.0914 26.2333C45.2163 26.3584 45.2864 26.5282 45.2864 26.7052V41.3481C45.2864 41.5251 45.2163 41.6949 45.0914 41.8201C44.9666 41.9452 44.7973 42.0155 44.6207 42.0155Z" fill="black"/>
<path d="M56.9708 42.0156C56.7943 42.0156 56.625 41.9453 56.5001 41.8201C56.3753 41.6949 56.3052 41.5252 56.3052 41.3482V26.4116C56.3052 26.2346 56.3753 26.0648 56.5001 25.9397C56.625 25.8145 56.7943 25.7442 56.9708 25.7442C57.1474 25.7442 57.3167 25.8145 57.4415 25.9397C57.5664 26.0648 57.6365 26.2346 57.6365 26.4116V41.3482C57.6365 41.5252 57.5664 41.6949 57.4415 41.8201C57.3167 41.9453 57.1474 42.0156 56.9708 42.0156Z" fill="black"/>
<path d="M61.4308 31.9911H57.4635C57.287 31.9911 57.1176 31.9208 56.9928 31.7956C56.868 31.6704 56.7979 31.5007 56.7979 31.3237C56.7979 31.1467 56.868 30.9769 56.9928 30.8517C57.1176 30.7266 57.287 30.6562 57.4635 30.6562H61.4308C61.6074 30.6562 61.7767 30.7266 61.9015 30.8517C62.0263 30.9769 62.0965 31.1467 62.0965 31.3237C62.0965 31.5007 62.0263 31.6704 61.9015 31.7956C61.7767 31.9208 61.6074 31.9911 61.4308 31.9911Z" fill="black"/>
<path d="M61.7236 37.2992H56.9708C56.7943 37.2992 56.625 37.2289 56.5001 37.1038C56.3753 36.9786 56.3052 36.8088 56.3052 36.6318C56.3052 36.4548 56.3753 36.2851 56.5001 36.1599C56.625 36.0347 56.7943 35.9644 56.9708 35.9644H61.7236C61.9002 35.9644 62.0695 36.0347 62.1943 36.1599C62.3191 36.2851 62.3893 36.4548 62.3893 36.6318C62.3893 36.8088 62.3191 36.9786 62.1943 37.1038C62.0695 37.2289 61.9002 37.2992 61.7236 37.2992Z" fill="black"/>
<path d="M44.0351 32.1913H41.3414C41.1649 32.1913 40.9956 32.121 40.8707 31.9958C40.7459 31.8707 40.6758 31.7009 40.6758 31.5239C40.6758 31.3469 40.7459 31.1771 40.8707 31.052C40.9956 30.9268 41.1649 30.8565 41.3414 30.8565H44.0351C44.2116 30.8565 44.3809 30.9268 44.5058 31.052C44.6306 31.1771 44.7007 31.3469 44.7007 31.5239C44.7007 31.7009 44.6306 31.8707 44.5058 31.9958C44.3809 32.121 44.2116 32.1913 44.0351 32.1913Z" fill="black"/>
<path d="M44.328 37.2992H41.3414C41.1649 37.2992 40.9956 37.2289 40.8707 37.1038C40.7459 36.9786 40.6758 36.8088 40.6758 36.6318C40.6758 36.4548 40.7459 36.2851 40.8707 36.1599C40.9956 36.0347 41.1649 35.9644 41.3414 35.9644H44.328C44.5045 35.9644 44.6738 36.0347 44.7987 36.1599C44.9235 36.2851 44.9936 36.4548 44.9936 36.6318C44.9936 36.8088 44.9235 36.9786 44.7987 37.1038C44.6738 37.2289 44.5045 37.2992 44.328 37.2992Z" fill="black"/>
<path d="M26.5904 31.9911H23.484C23.3075 31.9911 23.1382 31.9208 23.0133 31.7956C22.8885 31.6704 22.8184 31.5007 22.8184 31.3237C22.8184 31.1467 22.8885 30.9769 23.0133 30.8517C23.1382 30.7266 23.3075 30.6562 23.484 30.6562H26.5904C26.7669 30.6562 26.9362 30.7266 27.0611 30.8517C27.1859 30.9769 27.256 31.1467 27.256 31.3237C27.256 31.5007 27.1859 31.6704 27.0611 31.7956C26.9362 31.9208 26.7669 31.9911 26.5904 31.9911Z" fill="black"/>
<path d="M27.03 37.2992H23.5021C23.3255 37.2992 23.1562 37.2289 23.0314 37.1038C22.9066 36.9786 22.8364 36.8088 22.8364 36.6318C22.8364 36.4548 22.9066 36.2851 23.0314 36.1599C23.1562 36.0347 23.3255 35.9644 23.5021 35.9644H27.03C27.2065 35.9644 27.3759 36.0347 27.5007 36.1599C27.6255 36.2851 27.6957 36.4548 27.6957 36.6318C27.6957 36.8088 27.6255 36.9786 27.5007 37.1038C27.3759 37.2289 27.2065 37.2992 27.03 37.2992Z" fill="black"/>
<path d="M11.3958 31.9911H6.15491C5.97837 31.9911 5.80905 31.9208 5.68422 31.7956C5.55938 31.6704 5.48926 31.5007 5.48926 31.3237C5.48926 31.1467 5.55938 30.9769 5.68422 30.8517C5.80905 30.7266 5.97837 30.6562 6.15491 30.6562H11.3958C11.5724 30.6562 11.7417 30.7266 11.8665 30.8517C11.9914 30.9769 12.0615 31.1467 12.0615 31.3237C12.0615 31.5007 11.9914 31.6704 11.8665 31.7956C11.7417 31.9208 11.5724 31.9911 11.3958 31.9911Z" fill="black"/>
<path d="M11.1517 36.9077H6.15491C5.97837 36.9077 5.80905 36.8374 5.68422 36.7122C5.55938 36.5871 5.48926 36.4173 5.48926 36.2403C5.48926 36.0633 5.55938 35.8935 5.68422 35.7684C5.80905 35.6432 5.97837 35.5729 6.15491 35.5729H11.1517C11.3283 35.5729 11.4976 35.6432 11.6224 35.7684C11.7473 35.8935 11.8174 36.0633 11.8174 36.2403C11.8174 36.4173 11.7473 36.5871 11.6224 36.7122C11.4976 36.8374 11.3283 36.9077 11.1517 36.9077Z" fill="black"/>
<path d="M18.7667 21.6107H6.51428C6.33774 21.6107 6.16843 21.5404 6.04359 21.4152C5.91876 21.2901 5.84863 21.1203 5.84863 20.9433C5.84863 20.7663 5.91876 20.5965 6.04359 20.4714C6.16843 20.3462 6.33774 20.2759 6.51428 20.2759H18.7667C18.9432 20.2759 19.1126 20.3462 19.2374 20.4714C19.3622 20.5965 19.4323 20.7663 19.4323 20.9433C19.4323 21.1203 19.3622 21.2901 19.2374 21.4152C19.1126 21.5404 18.9432 21.6107 18.7667 21.6107Z" fill="black"/>
<path d="M62.0695 21.6107H21.984C21.8075 21.6107 21.6382 21.5404 21.5133 21.4152C21.3885 21.2901 21.3184 21.1203 21.3184 20.9433C21.3184 20.7663 21.3885 20.5965 21.5133 20.4714C21.6382 20.3462 21.8075 20.2759 21.984 20.2759H62.0695C62.246 20.2759 62.4154 20.3462 62.5402 20.4714C62.665 20.5965 62.7351 20.7663 62.7351 20.9433C62.7351 21.1203 62.665 21.2901 62.5402 21.4152C62.4154 21.5404 62.246 21.6107 62.0695 21.6107Z" fill="black"/>
<path d="M54.814 16.4183H13.4415C13.265 16.4183 13.0957 16.3479 12.9708 16.2228C12.846 16.0976 12.7759 15.9279 12.7759 15.7508C12.7759 15.5738 12.846 15.4041 12.9708 15.2789C13.0957 15.1537 13.265 15.0834 13.4415 15.0834H54.8006C54.9772 15.0834 55.1465 15.1537 55.2713 15.2789C55.3962 15.4041 55.4663 15.5738 55.4663 15.7508C55.4663 15.9279 55.3962 16.0976 55.2713 16.2228C55.1465 16.3479 54.9772 16.4183 54.8006 16.4183H54.814Z" fill="black"/>
<path d="M38.6432 11.4527H20.5109C20.3343 11.4527 20.165 11.3824 20.0402 11.2573C19.9153 11.1321 19.8452 10.9623 19.8452 10.7853C19.8452 10.6083 19.9153 10.4386 20.0402 10.3134C20.165 10.1882 20.3343 10.1179 20.5109 10.1179H38.6432C38.8197 10.1179 38.989 10.1882 39.1139 10.3134C39.2387 10.4386 39.3088 10.6083 39.3088 10.7853C39.3088 10.9623 39.2387 11.1321 39.1139 11.2573C38.989 11.3824 38.8197 11.4527 38.6432 11.4527Z" fill="black"/>
<path d="M46.8752 11.4527H41.8429C41.6664 11.4527 41.497 11.3824 41.3722 11.2573C41.2474 11.1321 41.1772 10.9623 41.1772 10.7853C41.1772 10.6083 41.2474 10.4386 41.3722 10.3134C41.497 10.1882 41.6664 10.1179 41.8429 10.1179H46.8885C47.0651 10.1179 47.2344 10.1882 47.3592 10.3134C47.4841 10.4386 47.5542 10.6083 47.5542 10.7853C47.5542 10.9623 47.4841 11.1321 47.3592 11.2573C47.2344 11.3824 47.0651 11.4527 46.8885 11.4527H46.8752Z" fill="black"/>
<path d="M39.2821 6.34482H28.0592C27.8827 6.34482 27.7134 6.27451 27.5886 6.14935C27.4637 6.02419 27.3936 5.85442 27.3936 5.67742C27.3936 5.50041 27.4637 5.3307 27.5886 5.20554C27.7134 5.08038 27.8827 5.01001 28.0592 5.01001H39.2821C39.4586 5.01001 39.628 5.08038 39.7528 5.20554C39.8776 5.3307 39.9478 5.50041 39.9478 5.67742C39.9478 5.85442 39.8776 6.02419 39.7528 6.14935C39.628 6.27451 39.4586 6.34482 39.2821 6.34482Z" fill="black"/>
<path d="M1.90373 24.4272C1.76284 24.4269 1.62568 24.3818 1.51197 24.2984C1.39825 24.215 1.31383 24.0977 1.27091 23.9631C1.22798 23.8286 1.22873 23.6838 1.27307 23.5497C1.31741 23.4156 1.40306 23.2991 1.51765 23.2169L33.7396 0.124638C33.8102 0.0730933 33.8904 0.0360968 33.9754 0.0157933C34.0604 -0.0045102 34.1486 -0.00772432 34.2348 0.00634268C34.3211 0.0204097 34.4036 0.0514833 34.4778 0.0977527C34.552 0.144022 34.6163 0.204615 34.6671 0.275956C34.7695 0.420691 34.8107 0.600143 34.7816 0.775208C34.7525 0.950274 34.6555 1.10672 34.5117 1.21032L2.28981 24.3026C2.17744 24.384 2.04231 24.4275 1.90373 24.4272Z" fill="black"/>
<path d="M66.3298 24.3782C66.1914 24.378 66.0564 24.3344 65.9438 24.2536L33.7262 1.21031C33.6506 1.16135 33.5858 1.09753 33.5355 1.02271C33.4852 0.947898 33.4506 0.863653 33.4337 0.775042C33.4168 0.686432 33.418 0.595297 33.4373 0.507167C33.4565 0.419037 33.4933 0.335717 33.5456 0.262266C33.5978 0.188816 33.6644 0.126764 33.7412 0.0798263C33.8181 0.032889 33.9036 0.00203902 33.9926 -0.0108233C34.0817 -0.0236857 34.1724 -0.018303 34.2594 0.00498198C34.3463 0.0282669 34.4276 0.0689544 34.4984 0.124635L66.7204 23.168C66.8638 23.2708 66.9607 23.4264 66.9898 23.6008C67.0189 23.7751 66.9779 23.9539 66.8757 24.0979C66.8133 24.1846 66.7312 24.2551 66.6363 24.3039C66.5415 24.3526 66.4364 24.3781 66.3298 24.3782Z" fill="black"/>
<path d="M49.8663 11.9466C49.6898 11.9466 49.5205 11.8763 49.3956 11.7511C49.2708 11.626 49.2007 11.4562 49.2007 11.2792V3.90654C49.2007 3.72954 49.2708 3.55977 49.3956 3.43461C49.5205 3.30945 49.6898 3.23914 49.8663 3.23914C50.0429 3.23914 50.2122 3.30945 50.337 3.43461C50.4619 3.55977 50.532 3.72954 50.532 3.90654V11.2792C50.532 11.4562 50.4619 11.626 50.337 11.7511C50.2122 11.8763 50.0429 11.9466 49.8663 11.9466Z" fill="black"/>
<path d="M56.2876 4.57395H50.2213C50.0448 4.57395 49.8755 4.50364 49.7506 4.37848C49.6258 4.25331 49.5557 4.08355 49.5557 3.90654C49.5557 3.72954 49.6258 3.55977 49.7506 3.43461C49.8755 3.30945 50.0448 3.23914 50.2213 3.23914H56.2876C56.4642 3.23914 56.6335 3.30945 56.7583 3.43461C56.8832 3.55977 56.9533 3.72954 56.9533 3.90654C56.9533 4.08355 56.8832 4.25331 56.7583 4.37848C56.6335 4.50364 56.4642 4.57395 56.2876 4.57395Z" fill="black"/>
<path d="M56.5314 16.7608C56.3548 16.7608 56.1855 16.6905 56.0607 16.5653C55.9358 16.4402 55.8657 16.2704 55.8657 16.0934V3.90654C55.8657 3.72954 55.9358 3.55977 56.0607 3.43461C56.1855 3.30945 56.3548 3.23914 56.5314 3.23914C56.7079 3.23914 56.8772 3.30945 57.0021 3.43461C57.1269 3.55977 57.197 3.72954 57.197 3.90654V16.0934C57.197 16.2704 57.1269 16.4402 57.0021 16.5653C56.8772 16.6905 56.7079 16.7608 56.5314 16.7608Z" fill="black"/>
</g>
<defs>
<clipPath id="clip0_5_1751">
<rect width="67" height="60" fill="white"/>
</clipPath>
</defs>
</svg>
