<svg width="76" height="60" viewBox="0 0 76 60" fill="none" xmlns="http://www.w3.org/2000/svg">
<g clip-path="url(#clip0_5_1904)">
<path d="M13.6163 1.39824L20.6247 2.71133C21.4428 2.86466 22.2001 3.24914 22.8073 3.81948C23.4144 4.38983 23.8462 5.12229 24.0515 5.93037L29.458 27.1868C29.6641 27.995 30.0966 28.7274 30.7045 29.2973C31.3125 29.8673 32.0705 30.2512 32.889 30.4036C33.7076 30.556 34.5527 30.4706 35.3244 30.1576C36.0962 29.8445 36.7624 29.3169 37.2446 28.6368L47.0791 14.744C47.5461 14.0839 48.1869 13.5667 48.9301 13.2502C49.6732 12.9337 50.4895 12.8302 51.288 12.9512C52.0864 13.0722 52.8356 13.413 53.4521 13.9357C54.0685 14.4583 54.528 15.1422 54.7792 15.9111L63.7991 43.4187C64.0141 44.0753 64.0708 44.7736 63.9644 45.4563C63.858 46.1391 63.5916 46.7869 63.1871 47.3466C62.7826 47.9063 62.2514 48.362 61.6371 48.6763C61.0228 48.9905 60.3429 49.1545 59.6532 49.1546H44.972C44.0273 49.1541 43.1082 48.8467 42.3526 48.2787C41.5969 47.7106 41.0454 46.9125 40.7806 46.0039C40.5505 45.2169 40.1039 44.5107 39.4919 43.966C38.8799 43.4214 38.1272 43.0605 37.32 42.9245C36.5128 42.7884 35.6836 42.8827 34.9275 43.1967C34.1713 43.5107 33.5186 44.0317 33.0441 44.6999L28.1337 51.5939C27.656 52.2691 26.9968 52.7947 26.2328 53.1094C25.4688 53.4242 24.6313 53.5152 23.8176 53.3719C23.004 53.2287 22.2477 52.8571 21.6365 52.3002C21.0254 51.7433 20.5846 51.024 20.3653 50.226L8.60123 6.86053C8.40369 6.14483 8.39133 5.39053 8.5653 4.66872C8.73928 3.9469 9.09386 3.28133 9.59563 2.73482C10.0974 2.18831 10.7298 1.77881 11.4333 1.54496C12.1367 1.31111 12.888 1.26065 13.6163 1.39824Z" fill="#FBB900"/>
<path d="M61.5962 56.1124C61.4541 56.1125 61.3154 56.0688 61.199 55.9872C61.0825 55.9057 60.994 55.7902 60.9454 55.6564L44.9262 5.41046L15.4409 47.0252C15.3666 47.1325 15.263 47.216 15.1425 47.2658C15.022 47.3156 14.8897 47.3296 14.7615 47.306C14.6333 47.2824 14.5146 47.2224 14.4196 47.1329C14.3246 47.0435 14.2573 46.9285 14.2259 46.8018L3.35832 5.22356L1.43784 7.14766L12.36 50.1211H14.9586C15.1396 50.1211 15.3132 50.1932 15.4413 50.3215C15.5693 50.4497 15.6412 50.6236 15.6412 50.805C15.6412 50.9864 15.5693 51.1604 15.4413 51.2887C15.3132 51.417 15.1396 51.489 14.9586 51.489H11.8275C11.6761 51.4886 11.5291 51.4377 11.4096 51.3445C11.2901 51.2512 11.205 51.1208 11.1677 50.9738L0.0179588 7.1067C-0.011247 6.99156 -0.00980217 6.87068 0.0221392 6.75627C0.0540806 6.64187 0.115399 6.53785 0.199992 6.45461L3.23089 3.41345C3.31705 3.32909 3.42345 3.26838 3.53984 3.23723C3.65622 3.20608 3.77865 3.2056 3.89532 3.23567C4.01047 3.26827 4.11513 3.33033 4.19894 3.4159C4.28275 3.50146 4.34281 3.6075 4.37317 3.72346L15.177 45.0373L44.6031 3.50461C44.6755 3.39967 44.776 3.31725 44.8929 3.26684C45.0099 3.21643 45.1387 3.20003 45.2646 3.21953C45.3904 3.23904 45.5082 3.29369 45.6045 3.37716C45.7008 3.46063 45.7717 3.56966 45.8091 3.69163L62.2651 55.2186C62.2925 55.3051 62.3024 55.3963 62.2943 55.4867C62.2861 55.577 62.2601 55.6648 62.2178 55.745C62.1754 55.8252 62.1175 55.8962 62.0476 55.9537C61.9776 56.0113 61.8968 56.0544 61.8101 56.0804C61.741 56.1026 61.6687 56.1134 61.5962 56.1124Z" fill="black"/>
<path d="M23.4006 28.7234C23.2494 28.7248 23.102 28.6753 22.9823 28.5827C22.8626 28.49 22.7775 28.3596 22.7407 28.2126L17.0794 6.56864L15.382 8.33323C15.2558 8.46383 15.0831 8.53884 14.9017 8.54183C14.7204 8.54483 14.5452 8.47551 14.4149 8.34914C14.2845 8.22278 14.2096 8.04974 14.2066 7.86804C14.2036 7.68633 14.2728 7.51085 14.399 7.38025L16.9429 4.74027C17.0268 4.65238 17.1327 4.5887 17.2496 4.55582C17.3665 4.52294 17.49 4.52209 17.6073 4.55337C17.724 4.585 17.8303 4.64666 17.9157 4.73226C18.0011 4.81785 18.0627 4.92443 18.0943 5.04127L24.0605 27.8661C24.1064 28.042 24.0809 28.229 23.9897 28.3862C23.8984 28.5434 23.7489 28.658 23.5736 28.7051C23.5168 28.7177 23.4588 28.7239 23.4006 28.7234Z" fill="black"/>
<path d="M28.589 48.6301H28.4661C28.3386 48.6054 28.2207 48.5454 28.1257 48.4567C28.0307 48.368 27.9626 48.2543 27.9291 48.1286L25.0438 37.0353C25.0173 36.9473 25.0087 36.8548 25.0187 36.7633C25.0286 36.6719 25.0568 36.5835 25.1017 36.5033C25.1465 36.4231 25.2071 36.3527 25.2797 36.2965C25.3523 36.2402 25.4354 36.1992 25.5242 36.1759C25.613 36.1526 25.7056 36.1474 25.7964 36.1608C25.8872 36.1741 25.9744 36.2056 26.0527 36.2535C26.1311 36.3014 26.199 36.3646 26.2524 36.4394C26.3058 36.5142 26.3436 36.599 26.3636 36.6888L28.8939 46.3595L46.2374 21.8795C46.3435 21.7358 46.5016 21.6395 46.6777 21.6112C46.8538 21.5828 47.034 21.6248 47.1797 21.7278C47.3254 21.8309 47.425 21.987 47.4573 22.1628C47.4896 22.3385 47.4519 22.52 47.3523 22.6682L29.1487 48.3475C29.085 48.4362 29.0009 48.5083 28.9034 48.5575C28.806 48.6067 28.6981 48.6316 28.589 48.6301Z" fill="black"/>
<path d="M75.3128 57.4483C75.1712 57.4489 75.0329 57.4052 74.9172 57.3235C74.8014 57.2418 74.7138 57.1261 74.6666 56.9924L58.6247 6.72828L50.606 18.0496C50.501 18.1977 50.3416 18.298 50.1628 18.3283C49.984 18.3587 49.8004 18.3167 49.6526 18.2114C49.5047 18.1062 49.4047 17.9464 49.3744 17.7673C49.3441 17.5882 49.386 17.4044 49.491 17.2562L58.3016 4.81787C58.3758 4.71562 58.4765 4.63558 58.5928 4.58656C58.7091 4.53753 58.8366 4.52134 58.9615 4.53969C59.0855 4.55811 59.2021 4.61043 59.2984 4.69086C59.3948 4.77129 59.4671 4.87672 59.5076 4.99564L75.9454 56.5182C75.9728 56.6047 75.9827 56.6957 75.9745 56.7861C75.9664 56.8765 75.9404 56.9644 75.898 57.0446C75.8557 57.1248 75.7978 57.1957 75.7278 57.2533C75.6578 57.3109 75.5771 57.354 75.4903 57.38C75.4348 57.4114 75.375 57.4344 75.3128 57.4483Z" fill="black"/>
<path d="M18.5768 12.5553C18.5284 12.5598 18.4796 12.5598 18.4312 12.5553L4.92412 9.63719C4.74669 9.5991 4.59164 9.49194 4.49307 9.3393C4.39449 9.18667 4.36047 9.00111 4.39849 8.82335C4.43651 8.64559 4.54345 8.49021 4.69579 8.39145C4.84814 8.29269 5.0334 8.25862 5.21083 8.29672L18.7315 11.2012C18.9126 11.2199 19.0788 11.3099 19.1936 11.4514C19.3084 11.5929 19.3623 11.7744 19.3436 11.9558C19.3249 12.1372 19.2351 12.3036 19.0938 12.4186C18.9526 12.5337 18.7715 12.5878 18.5905 12.569L18.5768 12.5553Z" fill="black"/>
<path d="M21.6578 22.5361C21.62 22.5406 21.5818 22.5406 21.544 22.5361L8.01423 20.3111C7.92458 20.2968 7.83864 20.2648 7.76131 20.2172C7.68398 20.1695 7.61676 20.1071 7.56351 20.0334C7.51027 19.9597 7.47203 19.8763 7.45098 19.7878C7.42992 19.6994 7.42647 19.6076 7.44081 19.5178C7.45515 19.428 7.48701 19.3418 7.53457 19.2643C7.58213 19.1868 7.64445 19.1195 7.71798 19.0662C7.79151 19.0128 7.87481 18.9745 7.96312 18.9534C8.05143 18.9323 8.14302 18.9289 8.23266 18.9433L21.767 21.1683C21.9481 21.1828 22.116 21.2688 22.2337 21.4073C22.3515 21.5458 22.4096 21.7256 22.3951 21.907C22.3806 22.0884 22.2948 22.2565 22.1565 22.3745C22.0183 22.4925 21.8389 22.5506 21.6578 22.5361Z" fill="black"/>
<path d="M21.3072 32.5442H21.2526L10.7855 31.6962C10.6964 31.6893 10.6094 31.6648 10.5298 31.6241C10.4501 31.5834 10.3793 31.5273 10.3213 31.4591C10.2634 31.3909 10.2195 31.3119 10.1921 31.2266C10.1648 31.1413 10.1546 31.0514 10.162 30.9621C10.1783 30.7822 10.2639 30.6159 10.4008 30.4983C10.5376 30.3808 10.7148 30.3215 10.8947 30.3329L21.3618 31.1809C21.5428 31.1882 21.7136 31.2673 21.8365 31.4007C21.9594 31.5341 22.0244 31.7109 22.0171 31.8923C22.0099 32.0736 21.931 32.2448 21.7979 32.3679C21.6647 32.491 21.4882 32.5561 21.3072 32.5488V32.5442Z" fill="black"/>
<path d="M63.2895 21.182C63.2426 21.1865 63.1953 21.1865 63.1484 21.182L49.6141 18.2776C49.5262 18.2588 49.4429 18.2227 49.369 18.1716C49.295 18.1205 49.2318 18.0553 49.183 17.9798C49.1342 17.9042 49.1007 17.8197 49.0845 17.7312C49.0683 17.6427 49.0696 17.5517 49.0884 17.4637C49.1072 17.3757 49.1432 17.2922 49.1942 17.2181C49.2452 17.144 49.3103 17.0808 49.3857 17.0319C49.4612 16.983 49.5455 16.9494 49.6338 16.9332C49.7222 16.9169 49.8129 16.9182 49.9008 16.9371L63.4351 19.8415C63.6162 19.8609 63.7821 19.9515 63.8965 20.0934C64.0109 20.2354 64.0643 20.417 64.0449 20.5984C64.0256 20.7798 63.9352 20.9461 63.7935 21.0607C63.6519 21.1752 63.4705 21.2287 63.2895 21.2094V21.182Z" fill="black"/>
<path d="M66.3614 31.0168H66.243L53.3913 28.7917C53.3017 28.7765 53.2159 28.7437 53.1389 28.6952C53.0619 28.6467 52.9952 28.5835 52.9426 28.5092C52.89 28.4349 52.8525 28.351 52.8323 28.2622C52.8121 28.1734 52.8095 28.0814 52.8247 27.9916C52.84 27.9018 52.8727 27.8158 52.9211 27.7387C52.9695 27.6615 53.0326 27.5947 53.1067 27.542C53.1809 27.4893 53.2647 27.4517 53.3533 27.4314C53.442 27.4112 53.5338 27.4086 53.6234 27.4239L66.4752 29.649C66.6562 29.6641 66.8238 29.7506 66.9412 29.8895C67.0585 30.0285 67.116 30.2085 67.1009 30.3899C67.0858 30.5713 66.9994 30.7392 66.8607 30.8568C66.7221 30.9743 66.5424 31.0319 66.3614 31.0168Z" fill="black"/>
<path d="M70.0609 42.5478H70.0018L57.15 41.0751C56.9707 41.0533 56.8072 40.9617 56.6947 40.8201C56.5823 40.6784 56.5301 40.4981 56.5493 40.3181C56.5583 40.2284 56.5852 40.1414 56.6283 40.0623C56.6714 39.9832 56.7299 39.9136 56.8003 39.8575C56.8707 39.8014 56.9516 39.76 57.0383 39.7357C57.1249 39.7115 57.2155 39.7048 57.3048 39.7162L70.1565 41.1891C70.3376 41.1993 70.5071 41.2812 70.6279 41.4167C70.7487 41.5522 70.8107 41.7303 70.8005 41.9117C70.7902 42.0931 70.7084 42.2629 70.5732 42.3839C70.4379 42.5049 70.2602 42.5672 70.0791 42.5569L70.0609 42.5478Z" fill="black"/>
<path d="M45.3225 19.0982C45.2786 19.1027 45.2344 19.1027 45.1905 19.0982L36.5984 17.4295C36.5062 17.4172 36.4175 17.3861 36.3376 17.3382C36.2578 17.2903 36.1886 17.2266 36.1343 17.1509C36.08 17.0752 36.0417 16.9891 36.0217 16.8981C36.0018 16.807 36.0006 16.7129 36.0183 16.6213C36.036 16.5298 36.0722 16.443 36.1247 16.366C36.1772 16.289 36.2448 16.2235 36.3234 16.1736C36.402 16.1238 36.49 16.0906 36.5819 16.076C36.6738 16.0614 36.7677 16.0659 36.8579 16.089L45.4499 17.7578C45.538 17.7742 45.6219 17.8079 45.6968 17.857C45.7718 17.906 45.8363 17.9694 45.8867 18.0436C45.937 18.1178 45.9722 18.2013 45.9902 18.2892C46.0082 18.3771 46.0086 18.4676 45.9915 18.5557C45.9583 18.7089 45.8739 18.8463 45.7523 18.945C45.6306 19.0436 45.479 19.0977 45.3225 19.0982Z" fill="black"/>
<path d="M41.6272 30H41.5226L28.4888 27.9482C28.3077 27.9204 28.1451 27.8217 28.0367 27.6737C27.9283 27.5258 27.8831 27.3408 27.9108 27.1595C27.9386 26.9781 28.0371 26.8151 28.1848 26.7065C28.3324 26.5979 28.5171 26.5526 28.6981 26.5804L41.7319 28.6322C41.9129 28.6461 42.0811 28.7314 42.1993 28.8695C42.3175 29.0076 42.3761 29.1871 42.3622 29.3685C42.3483 29.5499 42.2631 29.7183 42.1252 29.8367C41.9874 29.9552 41.8083 30.0139 41.6272 30Z" fill="black"/>
<path d="M35.1102 38.7223H35.0237L22.0855 37.1037C21.9959 37.0923 21.9093 37.0634 21.8309 37.0185C21.7524 36.9736 21.6835 36.9137 21.6281 36.8422C21.5163 36.6977 21.4664 36.5145 21.4893 36.3331C21.5123 36.1517 21.6062 35.987 21.7504 35.875C21.8947 35.7629 22.0774 35.7128 22.2584 35.7358L35.1966 37.359C35.3777 37.3705 35.5468 37.4536 35.6667 37.59C35.7866 37.7264 35.8475 37.9049 35.836 38.0863C35.8246 38.2676 35.7417 38.4371 35.6055 38.5572C35.4694 38.6774 35.2912 38.7384 35.1102 38.7269V38.7223Z" fill="black"/>
<path d="M14.3442 42.5569C14.2195 42.5563 14.0974 42.5216 13.9909 42.4567C13.8844 42.3919 13.7975 42.2991 13.7395 42.1886C13.6815 42.078 13.6547 41.9538 13.6618 41.8291C13.6689 41.7045 13.7097 41.584 13.7799 41.4808L42.3413 0.299254C42.4035 0.207957 42.487 0.133276 42.5845 0.0816303C42.6821 0.0299844 42.7907 0.00297793 42.9011 0.00292969H45.8819C46.063 0.00292969 46.2366 0.0749264 46.3646 0.203188C46.4926 0.331449 46.5645 0.505468 46.5645 0.686857C46.5645 0.868246 46.4926 1.04215 46.3646 1.17041C46.2366 1.29868 46.063 1.37078 45.8819 1.37078H43.2469L14.8948 42.2605C14.8332 42.3503 14.7511 42.424 14.6554 42.4755C14.5596 42.5271 14.4529 42.555 14.3442 42.5569Z" fill="black"/>
<path d="M61.5052 59.9971H58.3196C58.173 59.9977 58.0302 59.951 57.9122 59.8639C57.7942 59.7769 57.7072 59.6541 57.6643 59.5137L43.3517 12.0172C43.3229 11.9305 43.3118 11.839 43.319 11.7479C43.3262 11.6569 43.3515 11.5682 43.3934 11.4871C43.4353 11.406 43.493 11.3342 43.5631 11.2758C43.6332 11.2174 43.7143 11.1738 43.8015 11.1473C43.8887 11.1208 43.9804 11.112 44.071 11.1215C44.1617 11.1311 44.2495 11.1588 44.3293 11.2029C44.4091 11.247 44.4793 11.3067 44.5357 11.3785C44.5921 11.4502 44.6336 11.5325 44.6578 11.6206L58.8247 58.6292H61.5098C61.6908 58.6292 61.8644 58.7012 61.9924 58.8295C62.1205 58.9577 62.1924 59.1318 62.1924 59.3132C62.1924 59.4945 62.1205 59.6684 61.9924 59.7967C61.8644 59.925 61.6908 59.9971 61.5098 59.9971H61.5052Z" fill="black"/>
</g>
<defs>
<clipPath id="clip0_5_1904">
<rect width="76" height="60" fill="white"/>
</clipPath>
</defs>
</svg>
