<svg width="77" height="68" viewBox="0 0 77 68" fill="none" xmlns="http://www.w3.org/2000/svg">
<g clip-path="url(#clip0_5_1843)">
<path d="M36.1235 0.00256348L70.1319 6.38983L36.1235 41.2768V0.00256348Z" fill="#FBB900"/>
<path d="M40.2971 60.7597C40.1711 60.7546 40.0492 60.7128 39.9465 60.6394C39.8438 60.5659 39.7647 60.464 39.7188 60.3461C39.6729 60.2283 39.6622 60.0996 39.6881 59.9757C39.714 59.8519 39.7753 59.7383 39.8646 59.6489L72.9474 26.6711L69.7554 26.0853C69.6702 26.0702 69.5888 26.0385 69.5159 25.9918C69.4429 25.9451 69.3799 25.8845 69.3303 25.8134C69.2807 25.7423 69.2455 25.6621 69.2268 25.5773C69.2081 25.4926 69.2062 25.4049 69.2213 25.3195C69.2363 25.234 69.268 25.1523 69.3145 25.0792C69.361 25.006 69.4215 24.9427 69.4923 24.8929C69.5632 24.8432 69.6432 24.8079 69.7277 24.7891C69.8121 24.7703 69.8995 24.7685 69.9847 24.7836L74.4049 25.5907C74.5199 25.6107 74.6273 25.6616 74.7156 25.738C74.804 25.8144 74.87 25.9135 74.9067 26.0246C74.9417 26.1381 74.9453 26.259 74.9172 26.3744C74.889 26.4899 74.83 26.5954 74.7466 26.6798L40.7556 60.5731C40.6952 60.633 40.6235 60.6803 40.5449 60.7123C40.4662 60.7443 40.382 60.7605 40.2971 60.7597Z" fill="black"/>
<path d="M40.3012 60.7598C40.261 60.7641 40.2204 60.7641 40.1801 60.7598L5.7479 54.3552C5.63817 54.3357 5.53535 54.288 5.44949 54.2167C5.36363 54.1454 5.29765 54.0531 5.258 53.9486C5.21835 53.8441 5.20638 53.7311 5.22326 53.6206C5.24014 53.5101 5.28528 53.4059 5.3543 53.3181L8.62411 49.083C8.67381 49.0095 8.73799 48.947 8.8127 48.8992C8.88741 48.8515 8.97107 48.8196 9.05852 48.8056C9.14597 48.7916 9.23536 48.7956 9.32119 48.8176C9.40701 48.8395 9.48746 48.8788 9.55756 48.9331C9.62766 48.9875 9.68597 49.0556 9.72883 49.1333C9.77169 49.2111 9.79823 49.2969 9.80681 49.3853C9.81539 49.4737 9.80583 49.5629 9.77872 49.6475C9.75161 49.7321 9.70751 49.8103 9.64916 49.8771L7.03244 53.2704L40.418 59.4797C40.5901 59.4952 40.749 59.5787 40.8597 59.7118C40.9704 59.8448 41.0239 60.0165 41.0084 60.1892C40.9929 60.3618 40.9097 60.5212 40.7771 60.6322C40.6445 60.7433 40.4733 60.797 40.3012 60.7815V60.7598Z" fill="black"/>
<path d="M42.7407 67.9974H42.6239L37.8663 67.1296C37.7795 67.1178 37.696 67.0885 37.6209 67.0435C37.5457 66.9985 37.4804 66.9386 37.4289 66.8676C37.3774 66.7966 37.3407 66.7159 37.3211 66.6303C37.3016 66.5447 37.2994 66.456 37.3149 66.3696C37.3304 66.2831 37.3631 66.2007 37.4112 66.1273C37.4593 66.0539 37.5216 65.991 37.5946 65.9424C37.6675 65.8938 37.7495 65.8605 37.8356 65.8446C37.9217 65.8286 38.0101 65.8303 38.0955 65.8496L42.5158 66.6393L75.6202 33.757L73.6349 26.3804C73.5896 26.2135 73.6122 26.0354 73.6978 25.8853C73.7834 25.7351 73.9249 25.6253 74.0913 25.5798C74.2576 25.5344 74.4351 25.557 74.5848 25.6429C74.7344 25.7288 74.8439 25.8708 74.8892 26.0376L76.9696 33.7657C76.9995 33.8768 76.9996 33.9939 76.97 34.1051C76.9403 34.2164 76.8821 34.3178 76.8009 34.3992L43.1905 67.7848C43.1333 67.8484 43.064 67.8999 42.9868 67.9364C42.9096 67.9729 42.826 67.9937 42.7407 67.9974Z" fill="black"/>
<path d="M38.4804 67.2424H38.3637L8.42524 61.8185C8.31204 61.7966 8.20668 61.7449 8.12002 61.6686C8.03336 61.5924 7.96852 61.4943 7.93217 61.3845L5.2549 53.9168C5.21906 53.8349 5.20044 53.7464 5.2002 53.657C5.19996 53.5675 5.21812 53.479 5.25352 53.3969C5.28892 53.3147 5.3408 53.2408 5.40595 53.1797C5.47109 53.1186 5.54808 53.0717 5.63213 53.0418C5.71617 53.0119 5.80547 52.9997 5.89442 53.006C5.98338 53.0123 6.07011 53.0369 6.14917 53.0782C6.22822 53.1196 6.29792 53.177 6.35391 53.2466C6.40991 53.3162 6.45099 53.3967 6.47461 53.4829L9.02638 60.5948L38.5929 65.9537C38.6781 65.9611 38.761 65.9853 38.8369 66.0248C38.9128 66.0644 38.9802 66.1186 39.0352 66.1842C39.0902 66.2499 39.1318 66.3258 39.1576 66.4076C39.1833 66.4894 39.1928 66.5755 39.1854 66.661C39.1781 66.7465 39.154 66.8296 39.1145 66.9058C39.0751 66.9819 39.0211 67.0495 38.9557 67.1047C38.8902 67.1599 38.8145 67.2016 38.733 67.2275C38.6514 67.2534 38.5656 67.2629 38.4804 67.2555V67.2424Z" fill="black"/>
<path d="M42.7408 67.9975C42.6071 67.9965 42.4769 67.9543 42.3678 67.8767C42.2588 67.7991 42.1761 67.6898 42.1309 67.5636L39.3845 60.2695C39.3479 60.1884 39.3283 60.1007 39.3268 60.0118C39.3253 59.9228 39.342 59.8345 39.3758 59.7523C39.4097 59.6701 39.46 59.5957 39.5236 59.5337C39.5872 59.4718 39.6628 59.4235 39.7457 59.392C39.8287 59.3605 39.9171 59.3464 40.0057 59.3506C40.0943 59.3547 40.1811 59.3771 40.2607 59.4162C40.3404 59.4553 40.4112 59.5104 40.4687 59.578C40.5263 59.6457 40.5695 59.7244 40.5956 59.8095L43.3463 67.1037C43.4068 67.2648 43.4011 67.4434 43.3305 67.6003C43.26 67.7573 43.1304 67.8798 42.97 67.9411C42.8979 67.9742 42.8201 67.9933 42.7408 67.9975Z" fill="black"/>
<path d="M36.2573 48.2151H36.1405L15.6611 44.4053C9.90427 43.3346 4.55198 40.6956 0.190203 36.7771C0.0922899 36.6782 0.028375 36.5505 0.00773766 36.4126C-0.0128996 36.2748 0.0107897 36.134 0.0754232 36.0106C0.140057 35.8872 0.242259 35.7876 0.367125 35.7265C0.491992 35.6653 0.633026 35.6458 0.769754 35.6706C0.81733 35.6706 5.66581 36.495 11.2841 30.9973L35.7643 7.02331C35.8386 6.95066 35.9293 6.89699 36.0287 6.86678C36.128 6.83658 36.2331 6.83073 36.3352 6.84973L70.3392 13.0548C70.4544 13.0754 70.5621 13.1264 70.651 13.2027C70.74 13.279 70.807 13.3777 70.8453 13.4887C70.8803 13.6025 70.8834 13.7239 70.8544 13.8394C70.8255 13.9549 70.7654 14.0602 70.6809 14.1439L36.7158 48.0242C36.5937 48.1455 36.4292 48.214 36.2573 48.2151ZM2.44357 36.981C6.38492 40.06 10.9951 42.1622 15.899 43.1166L36.0411 46.8613L68.886 14.1049L36.4476 8.18189L12.227 31.9172C8.2003 35.8398 4.56288 36.7944 2.44357 36.981Z" fill="black"/>
<path d="M38.6797 55.4529H38.5672L33.8096 54.585C33.7255 54.5704 33.6451 54.5392 33.573 54.4933C33.5009 54.4474 33.4385 54.3876 33.3895 54.3175C33.3405 54.2473 33.3058 54.1682 33.2873 54.0845C33.2688 54.0009 33.267 53.9144 33.282 53.83C33.3146 53.6614 33.4114 53.5123 33.552 53.4142C33.6925 53.3162 33.8656 53.277 34.0345 53.305L38.4591 54.0991L71.5592 21.2125L69.5783 13.8359C69.5495 13.7516 69.5383 13.6622 69.5453 13.5734C69.5524 13.4846 69.5776 13.3982 69.6193 13.3195C69.661 13.2408 69.7183 13.1715 69.7877 13.116C69.8572 13.0604 69.9373 13.0198 70.023 12.9966C70.1088 12.9734 70.1984 12.9681 70.2862 12.981C70.3741 12.994 70.4584 13.0249 70.5339 13.0718C70.6094 13.1188 70.6745 13.1808 70.7251 13.254C70.7758 13.3272 70.8108 13.41 70.8283 13.4974L72.913 21.2212C72.9432 21.3326 72.943 21.4502 72.9126 21.5616C72.8822 21.673 72.8226 21.7742 72.74 21.8547L39.1339 55.2663C39.0122 55.385 38.8494 55.4518 38.6797 55.4529Z" fill="black"/>
<path d="M29.6186 53.8257C29.5798 53.83 29.5406 53.83 29.5018 53.8257L15.2289 51.2222C5.2509 49.4128 2.9802 44.401 2.88504 44.1884L0.194837 36.6816C0.159 36.5997 0.140377 36.5113 0.140139 36.4218C0.139901 36.3323 0.158064 36.2438 0.193464 36.1617C0.228864 36.0796 0.280743 36.0056 0.345888 35.9446C0.411033 35.8835 0.488025 35.8365 0.57207 35.8066C0.656114 35.7767 0.745411 35.7645 0.834364 35.7708C0.923318 35.777 1.01 35.8017 1.08906 35.8431C1.16811 35.8845 1.23781 35.9417 1.2938 36.0113C1.3498 36.081 1.39088 36.1614 1.4145 36.2477L4.08311 43.685C4.22151 43.9714 6.49222 48.3193 15.4582 49.9422L29.7311 52.5457C29.8163 52.5531 29.8991 52.5772 29.975 52.6168C30.0509 52.6564 30.1183 52.7105 30.1733 52.7762C30.2284 52.8419 30.2699 52.9177 30.2957 52.9995C30.3215 53.0814 30.331 53.1675 30.3236 53.253C30.3162 53.3384 30.2921 53.4216 30.2527 53.4977C30.2133 53.5739 30.1592 53.6415 30.0938 53.6967C30.0283 53.7519 29.9527 53.7936 29.8711 53.8194C29.7896 53.8453 29.7038 53.8548 29.6186 53.8474V53.8257Z" fill="black"/>
<path d="M38.6793 55.4528C38.5464 55.451 38.4172 55.4084 38.309 55.3309C38.2008 55.2534 38.1187 55.1445 38.0738 55.0189L35.323 47.7248C35.2623 47.5631 35.268 47.3838 35.3389 47.2264C35.4099 47.0689 35.5403 46.9461 35.7015 46.8851C35.8627 46.8241 36.0414 46.8299 36.1983 46.9011C36.3553 46.9723 36.4776 47.1031 36.5384 47.2648L39.2892 54.559C39.3494 54.7207 39.3431 54.8997 39.2717 55.0568C39.2003 55.2138 39.0697 55.336 38.9086 55.3964C38.8366 55.4302 38.7587 55.4494 38.6793 55.4528Z" fill="black"/>
</g>
<defs>
<clipPath id="clip0_5_1843">
<rect width="77" height="68" fill="white"/>
</clipPath>
</defs>
</svg>
