<svg width="52" height="68" viewBox="0 0 52 68" fill="none" xmlns="http://www.w3.org/2000/svg">
<g clip-path="url(#clip0_5_1921)">
<path d="M16.321 17.06C16.321 13.6777 13.5477 10.9358 10.1268 10.9358C6.70585 10.9358 3.93262 13.6777 3.93262 17.06V53.5705C3.93262 56.9529 6.70585 59.6948 10.1268 59.6948C13.5477 59.6948 16.321 56.9529 16.321 53.5705V17.06Z" fill="#FBB900"/>
<path d="M24.4977 7.38775H4.49985C3.30679 7.38656 2.16292 6.9176 1.3193 6.0838C0.475671 5.25001 0.00121062 4.11956 0 2.9404V0.680525C0 0.500718 0.0722661 0.328217 0.200908 0.201075C0.329549 0.0739322 0.504029 0.00256348 0.685956 0.00256348H12.2283C12.3787 0.0026362 12.5248 0.051844 12.644 0.142592C12.7631 0.233339 12.8485 0.360466 12.8868 0.504193L13.4584 2.58332H15.5392L15.9965 0.531338C16.0307 0.381466 16.1154 0.247495 16.2367 0.151419C16.358 0.0553436 16.5087 0.00289642 16.6641 0.00256348H28.3117C28.4936 0.00256348 28.6681 0.0739322 28.7967 0.201075C28.9254 0.328217 28.9976 0.500718 28.9976 0.680525V2.9404C28.9964 4.11956 28.5219 5.25001 27.6783 6.0838C26.8347 6.9176 25.6908 7.38656 24.4977 7.38775ZM1.37191 1.36301V2.9404C1.37312 3.75995 1.70305 4.5455 2.28939 5.12501C2.87574 5.70452 3.67064 6.03064 4.49985 6.03183H24.4977C25.327 6.03064 26.1219 5.70452 26.7082 5.12501C27.2946 4.5455 27.6245 3.75995 27.6257 2.9404V1.36301H17.222L16.7647 3.41488C16.7296 3.56512 16.644 3.69922 16.522 3.79524C16.3999 3.89127 16.2485 3.94364 16.0925 3.94377H12.9371C12.7861 3.94392 12.6393 3.89478 12.5194 3.80407C12.3995 3.71336 12.3133 3.58612 12.274 3.44203L11.707 1.36301H1.37191Z" fill="black"/>
<path d="M19.5728 56.2507H9.42521C9.24329 56.2507 9.06881 56.1793 8.94017 56.0521C8.81152 55.925 8.73926 55.7526 8.73926 55.5728V6.7324C8.73926 6.5526 8.81152 6.38021 8.94017 6.25306C9.06881 6.12592 9.24329 6.05444 9.42521 6.05444H19.5728C19.7547 6.05444 19.9292 6.12592 20.0578 6.25306C20.1865 6.38021 20.2587 6.5526 20.2587 6.7324V55.5954C20.2528 55.7713 20.1779 55.9379 20.0499 56.0602C19.9219 56.1825 19.7508 56.2508 19.5728 56.2507ZM10.1112 54.8948H18.8868V7.38775H10.1112V54.8948Z" fill="black"/>
<path d="M14.4827 67.6133C14.3501 67.6132 14.2203 67.5752 14.1092 67.5038C13.998 67.4324 13.9101 67.3308 13.8562 67.2111L8.79841 55.8484C8.72504 55.6835 8.72091 55.4967 8.78694 55.3288C8.85298 55.161 8.98375 55.026 9.15052 54.9535C9.31728 54.8809 9.50637 54.8769 9.67618 54.9422C9.84598 55.0075 9.98262 55.1367 10.056 55.3015L14.4873 65.2449L18.9506 55.3015C19.027 55.141 19.1639 55.0166 19.3321 54.9548C19.5003 54.893 19.6863 54.8988 19.8502 54.9709C20.0141 55.043 20.1429 55.1758 20.209 55.3407C20.275 55.5055 20.2731 55.6894 20.2036 55.8529L15.1138 67.2156C15.0589 67.3352 14.97 67.4364 14.858 67.507C14.7459 67.5776 14.6156 67.6145 14.4827 67.6133Z" fill="black"/>
<path d="M9.53944 51.6993C9.433 51.7034 9.32656 51.6911 9.22389 51.6631C9.05614 51.6127 8.91427 51.5008 8.82741 51.3503C8.74055 51.1997 8.71529 51.0221 8.75685 50.8537C8.79841 50.6854 8.90363 50.5392 9.05087 50.4451C9.19811 50.351 9.37619 50.3162 9.54856 50.3479C9.65832 50.3479 10.669 50.3208 13.925 48.6666C16.0633 47.6167 17.8205 45.9383 18.9553 43.862C19.0342 43.7042 19.172 43.583 19.3398 43.5238C19.5075 43.4646 19.6919 43.4723 19.854 43.5451C20.0161 43.6179 20.1433 43.7501 20.2085 43.9139C20.2738 44.0776 20.2721 44.2599 20.2038 44.4225C18.9482 46.7802 16.9717 48.6862 14.556 49.8688C11.515 51.4145 10.1431 51.6993 9.53944 51.6993Z" fill="black"/>
<path d="M9.53944 43.8485C9.43274 43.8516 9.32622 43.8378 9.22389 43.8078C9.05614 43.7575 8.91427 43.6455 8.82741 43.495C8.74055 43.3445 8.71529 43.1668 8.75685 42.9984C8.79841 42.8301 8.90363 42.6838 9.05087 42.5897C9.19811 42.4956 9.37619 42.461 9.54856 42.4926C9.65832 42.4926 10.669 42.4654 13.925 40.8112C16.0615 39.7608 17.8181 38.0846 18.9553 36.0113C18.9884 35.9247 19.0392 35.8458 19.1043 35.7793C19.1695 35.7129 19.2478 35.6603 19.3343 35.6248C19.4208 35.5894 19.5137 35.5718 19.6073 35.5732C19.7009 35.5746 19.7933 35.595 19.8787 35.633C19.9641 35.671 20.0407 35.7259 20.1038 35.7943C20.1669 35.8627 20.2151 35.9431 20.2456 36.0306C20.276 36.1181 20.288 36.2109 20.2808 36.3031C20.2736 36.3954 20.2474 36.4853 20.2038 36.5672C18.949 38.9266 16.9724 40.8343 14.556 42.018C11.515 43.5593 10.1431 43.8485 9.53944 43.8485Z" fill="black"/>
<path d="M9.53944 35.9932C9.43274 35.9963 9.32622 35.9825 9.22389 35.9525C9.05614 35.9022 8.91427 35.7902 8.82741 35.6397C8.74055 35.4892 8.71529 35.3115 8.75685 35.1431C8.79841 34.9748 8.90363 34.8286 9.05087 34.7345C9.19811 34.6405 9.37619 34.6057 9.54856 34.6373C9.65832 34.6373 10.669 34.6102 13.925 32.956C16.0587 31.8996 17.8141 30.2229 18.9553 28.1514C19.0342 27.9936 19.172 27.8724 19.3398 27.8132C19.5075 27.7541 19.6919 27.7617 19.854 27.8345C20.0161 27.9073 20.1433 28.0396 20.2085 28.2033C20.2738 28.367 20.2721 28.5494 20.2038 28.7119C18.949 31.0713 16.9724 32.979 14.556 34.1627C11.515 35.704 10.1431 35.9932 9.53944 35.9932Z" fill="black"/>
<path d="M9.53944 28.138C9.4331 28.1398 9.327 28.1276 9.22389 28.1018C9.05614 28.0515 8.91427 27.9395 8.82741 27.789C8.74055 27.6385 8.71529 27.4608 8.75685 27.2925C8.79841 27.1241 8.90363 26.9778 9.05087 26.8837C9.19811 26.7897 9.37619 26.755 9.54856 26.7866C9.65832 26.7866 10.669 26.7549 13.925 25.1007C16.0526 24.0401 17.8014 22.3622 18.937 20.2917C19.0128 20.1281 19.1513 20.0009 19.3219 19.9382C19.4926 19.8754 19.6815 19.8823 19.8471 19.9573C20.0126 20.0322 20.1413 20.169 20.2047 20.3377C20.2682 20.5064 20.2613 20.6931 20.1855 20.8567C18.9236 23.2042 16.9482 25.1012 14.5378 26.2804C11.515 27.8532 10.1431 28.138 9.53944 28.138Z" fill="black"/>
<path d="M9.53944 20.2917C9.4331 20.2934 9.327 20.2812 9.22389 20.2555C9.05614 20.2051 8.91427 20.0932 8.82741 19.9427C8.74055 19.7921 8.71529 19.6145 8.75685 19.4461C8.79841 19.2778 8.90363 19.1316 9.05087 19.0375C9.19811 18.9434 9.37619 18.9086 9.54856 18.9403C9.65832 18.9403 10.669 18.9087 13.925 17.2544C16.058 16.1992 17.8133 14.5242 18.9553 12.4544C19.0342 12.2966 19.172 12.1754 19.3398 12.1162C19.5075 12.0571 19.6919 12.0647 19.854 12.1375C20.0161 12.2103 20.1433 12.3425 20.2085 12.5063C20.2738 12.67 20.2721 12.8523 20.2038 13.0149C18.9419 15.3624 16.9665 17.2594 14.556 18.4386C11.515 19.9979 10.1431 20.2917 9.53944 20.2917Z" fill="black"/>
<path d="M47.5002 24.0656H27.5023C26.31 24.0644 25.1669 23.596 24.3234 22.7632C23.4799 21.9304 23.0049 20.801 23.0024 19.6226V17.3628C23.0024 17.183 23.0747 17.0105 23.2033 16.8833C23.332 16.7562 23.5065 16.6848 23.6884 16.6848H51.3141C51.496 16.6848 51.6705 16.7562 51.7991 16.8833C51.9278 17.0105 52.0001 17.183 52.0001 17.3628V19.6226C51.9976 20.801 51.5226 21.9304 50.6791 22.7632C49.8356 23.596 48.6925 24.0644 47.5002 24.0656ZM24.3744 18.0317V19.6136C24.3756 20.4327 24.7056 21.2179 25.2921 21.7967C25.8786 22.3755 26.6735 22.7006 27.5023 22.7006H47.5002C48.329 22.7006 49.1239 22.3755 49.7104 21.7967C50.2969 21.2179 50.6269 20.4327 50.6281 19.6136V18.0317H24.3744Z" fill="black"/>
<path d="M42.5747 56.6303H32.4272C32.2452 56.6303 32.0708 56.5589 31.9421 56.4318C31.8135 56.3047 31.7412 56.1322 31.7412 55.9523V23.3877C31.7412 23.2079 31.8135 23.0354 31.9421 22.9082C32.0708 22.7811 32.2452 22.7097 32.4272 22.7097H42.5747C42.7567 22.7097 42.9311 22.7811 43.0598 22.9082C43.1884 23.0354 43.2607 23.2079 43.2607 23.3877V55.9523C43.2607 56.1322 43.1884 56.3047 43.0598 56.4318C42.9311 56.5589 42.7567 56.6303 42.5747 56.6303ZM33.1131 55.2744H41.8888V24.0656H33.1131V55.2744Z" fill="black"/>
<path d="M37.4853 67.9931C37.3514 67.9936 37.2203 67.9553 37.1082 67.883C36.9961 67.8107 36.9078 67.7075 36.8542 67.5863L31.7964 56.2237C31.7601 56.1421 31.7404 56.0542 31.7384 55.965C31.7365 55.8759 31.7523 55.7873 31.785 55.7042C31.8177 55.6211 31.8666 55.5451 31.929 55.4807C31.9914 55.4163 32.066 55.3647 32.1486 55.3288C32.2312 55.2929 32.3201 55.2733 32.4102 55.2714C32.5004 55.2695 32.5902 55.2851 32.6742 55.3174C32.7583 55.3497 32.8351 55.3981 32.9003 55.4598C32.9655 55.5214 33.0177 55.5952 33.054 55.6768L37.4853 65.6202L41.9486 55.6768C42.025 55.5164 42.162 55.3919 42.3302 55.3301C42.4983 55.2683 42.6843 55.2741 42.8482 55.3462C43.0121 55.4183 43.1409 55.5511 43.207 55.716C43.273 55.8809 43.2711 56.0647 43.2016 56.2282L38.1118 67.5908C38.0579 67.7105 37.97 67.8123 37.8588 67.8837C37.7476 67.955 37.6179 67.9931 37.4853 67.9931Z" fill="black"/>
</g>
<defs>
<clipPath id="clip0_5_1921">
<rect width="52" height="68" fill="white"/>
</clipPath>
</defs>
</svg>
