<svg width="68" height="55" viewBox="0 0 68 55" fill="none" xmlns="http://www.w3.org/2000/svg">
<g clip-path="url(#clip0_5_1885)">
<path d="M2.18427 21.3979L33.31 8.14924C33.7466 7.96342 34.216 7.86749 34.6902 7.86716H57.3851C58.1422 7.85484 58.8831 8.08789 59.4975 8.53166C60.112 8.97544 60.5671 9.60622 60.7953 10.3302C61.0234 11.0542 61.0125 11.8327 60.7639 12.5499C60.5154 13.2671 60.0426 13.8846 59.4159 14.3108L38.6683 28.9036C38.0337 29.349 37.2709 29.5735 36.4969 29.5428L3.38868 28.1985C-0.369621 28.0443 -1.31029 22.8744 2.18427 21.3979Z" fill="#FBB900"/>
<path d="M53.398 32.9586C53.3197 32.959 53.2421 32.944 53.1695 32.9145C53.0057 32.8531 52.8729 32.729 52.8003 32.5695C52.7278 32.41 52.7214 32.2281 52.7826 32.0639L64.1235 1.53822L34.2329 3.23506L24.0569 20.4724C24.0136 20.5487 23.9555 20.6155 23.8861 20.669C23.8168 20.7225 23.7374 20.7617 23.6528 20.7841C23.5681 20.8066 23.4799 20.8119 23.3932 20.7998C23.3065 20.7877 23.2231 20.7585 23.1478 20.7138C23.0724 20.669 23.0068 20.6096 22.9546 20.5391C22.9024 20.4686 22.8648 20.3884 22.8438 20.3032C22.8229 20.2179 22.8191 20.1294 22.8327 20.0426C22.8462 19.9559 22.8769 19.8728 22.9229 19.7981L33.2746 2.25663C33.3298 2.16305 33.4073 2.08466 33.5001 2.02851C33.5929 1.97235 33.6982 1.94014 33.8065 1.93484L65.0729 0.171878C65.1822 0.166738 65.291 0.188596 65.3899 0.235472C65.4887 0.282347 65.5746 0.352855 65.64 0.440777C65.7052 0.528771 65.7474 0.631687 65.7628 0.740236C65.7782 0.848785 65.7662 0.959473 65.7279 1.06218L54.0354 32.5354C53.9851 32.6628 53.897 32.7718 53.783 32.8475C53.6691 32.9231 53.5347 32.9619 53.398 32.9586Z" fill="black"/>
<path d="M46.44 51.6901H46.352L8.06136 46.7714C7.95269 46.7561 7.84943 46.7143 7.76055 46.6498C7.67167 46.5853 7.59987 46.5 7.55145 46.4012C7.50351 46.303 7.48084 46.1942 7.48545 46.0849C7.49005 45.9756 7.52181 45.8692 7.57785 45.7753L13.3626 35.9777C13.4535 35.8275 13.6002 35.7196 13.7704 35.6779C13.9406 35.6362 14.1204 35.664 14.2702 35.7551C14.4201 35.8463 14.5276 35.9934 14.5692 36.164C14.6109 36.3347 14.5832 36.515 14.4922 36.6653L9.21742 45.5991L45.996 50.3282L49.7982 40.0986C49.8278 40.0163 49.8733 39.9406 49.9322 39.876C49.9911 39.8114 50.0622 39.7593 50.1414 39.7225C50.2206 39.6857 50.3063 39.665 50.3935 39.6617C50.4807 39.6583 50.5678 39.6724 50.6495 39.703C50.7313 39.7336 50.8061 39.7802 50.8698 39.8401C50.9334 39.8999 50.9846 39.9719 51.0204 40.0517C51.0561 40.1316 51.0756 40.2178 51.0779 40.3052C51.0801 40.3927 51.065 40.4798 51.0334 40.5614L47.0509 51.2802C47.0012 51.4016 46.9165 51.5054 46.8077 51.5784C46.6989 51.6514 46.5709 51.6904 46.44 51.6901Z" fill="black"/>
<path d="M38.7474 34.4614H38.6947L0.891911 31.3763C0.746423 31.3644 0.608957 31.3044 0.501119 31.2057C0.393281 31.1071 0.321123 30.9753 0.295984 30.8311C0.270846 30.687 0.294135 30.5386 0.362198 30.4091C0.430262 30.2797 0.539297 30.1764 0.672128 30.1157L37.1562 13.5219C37.2415 13.4817 37.3345 13.4607 37.4287 13.4602H59.9609C60.1358 13.4602 60.3035 13.5298 60.4271 13.6538C60.5508 13.7778 60.6202 13.946 60.6202 14.1213C60.6202 14.2967 60.5508 14.4648 60.4271 14.5887C60.3035 14.7127 60.1358 14.7824 59.9609 14.7824H37.5694L3.52051 30.2656L38.5408 33.1304L57.706 18.7226C57.8459 18.6174 58.0217 18.5723 58.1948 18.597C58.3679 18.6218 58.5241 18.7146 58.629 18.8549C58.734 18.9951 58.779 19.1714 58.7543 19.345C58.7295 19.5186 58.637 19.6752 58.4972 19.7804L39.1343 34.3248C39.0225 34.4093 38.8874 34.4571 38.7474 34.4614Z" fill="black"/>
<path d="M29.0635 18.4361C28.9473 18.435 28.8335 18.4033 28.7334 18.3442C28.6332 18.2851 28.5503 18.2008 28.4929 18.0995C28.4355 17.9982 28.4056 17.8836 28.4063 17.7671C28.4069 17.6506 28.438 17.5364 28.4965 17.4357L35.5032 5.56214C35.5589 5.46908 35.6365 5.39107 35.7292 5.33499C35.822 5.27891 35.9269 5.24642 36.035 5.24036L63.7278 3.67135C63.9026 3.66141 64.0743 3.72155 64.205 3.83851C64.3356 3.95547 64.4146 4.11968 64.4245 4.29501C64.4344 4.47035 64.3745 4.64241 64.2578 4.77342C64.1412 4.90442 63.9774 4.98363 63.8025 4.99357L36.4395 6.54499L29.613 18.1144C29.5556 18.2098 29.4752 18.2894 29.3792 18.3456C29.2832 18.4018 29.1746 18.4329 29.0635 18.4361Z" fill="black"/>
<path d="M48.6858 55.0001H48.6022L10.3072 50.0769C10.2206 50.0659 10.137 50.038 10.0612 49.9946C9.98539 49.9512 9.91886 49.8932 9.86539 49.8241C9.81192 49.7549 9.77254 49.6758 9.74954 49.5914C9.72654 49.507 9.72038 49.4189 9.73135 49.3321C9.74232 49.2453 9.77023 49.1615 9.8135 49.0855C9.85677 49.0095 9.91451 48.9428 9.98349 48.8892C10.0525 48.8356 10.1313 48.7961 10.2155 48.773C10.2997 48.7499 10.3876 48.7437 10.4742 48.7547L48.2506 53.6029L66.7124 3.88737C66.7831 3.74053 66.9054 3.62505 67.0558 3.56311C67.2062 3.50118 67.3741 3.49715 67.5273 3.55181C67.6805 3.60648 67.8081 3.71595 67.8857 3.85923C67.9633 4.00252 67.9853 4.16953 67.9476 4.32811L49.2924 54.5373C49.2515 54.6679 49.1712 54.7826 49.0625 54.8655C48.9539 54.9484 48.8222 54.9954 48.6858 55.0001Z" fill="black"/>
<path d="M12.048 47.2694C11.9314 47.2705 11.8166 47.2405 11.7155 47.1822C11.6144 47.124 11.5307 47.0397 11.4729 46.9382C11.4151 46.8367 11.3853 46.7215 11.3868 46.6046C11.3882 46.4877 11.4207 46.3734 11.481 46.2733L17.3668 36.2993C17.4101 36.223 17.4682 36.1563 17.5376 36.1027C17.607 36.0492 17.6863 36.0101 17.7709 35.9876C17.8555 35.9651 17.9438 35.9598 18.0305 35.9719C18.1172 35.984 18.2007 36.0133 18.276 36.0581C18.3513 36.1028 18.4169 36.1621 18.4691 36.2326C18.5213 36.3031 18.5589 36.3833 18.5798 36.4686C18.6008 36.5538 18.6046 36.6424 18.5911 36.7291C18.5775 36.8158 18.5468 36.8989 18.5009 36.9737L12.6151 46.9477C12.5564 47.046 12.4734 47.1272 12.374 47.1836C12.2746 47.24 12.1622 47.2696 12.048 47.2694Z" fill="black"/>
<path d="M60.9279 22.9009C60.7895 22.9009 60.6546 22.8572 60.5424 22.776C60.4301 22.6949 60.3461 22.5805 60.3024 22.4488C60.2586 22.3172 60.2573 22.1751 60.2986 22.0426C60.3398 21.9102 60.4216 21.7941 60.5323 21.7109L65.2269 18.185C65.2962 18.1329 65.375 18.0949 65.4589 18.0734C65.5427 18.0518 65.63 18.0471 65.7157 18.0594C65.8014 18.0717 65.8839 18.1007 65.9584 18.1449C66.0329 18.1892 66.098 18.2478 66.15 18.3172C66.2019 18.3867 66.2397 18.4656 66.2612 18.5497C66.2827 18.6338 66.2875 18.7214 66.2752 18.8073C66.263 18.8933 66.234 18.9759 66.1898 19.0506C66.1457 19.1253 66.0874 19.1906 66.0181 19.2427L61.3235 22.7686C61.2094 22.8545 61.0706 22.9009 60.9279 22.9009Z" fill="black"/>
<path d="M39.442 39.0584H39.3848L1.58203 35.9732C1.49592 35.9665 1.41199 35.9429 1.33504 35.9036C1.2581 35.8642 1.18963 35.8101 1.13366 35.7441C1.07769 35.6782 1.03531 35.6017 1.00891 35.5192C0.982503 35.4368 0.972613 35.35 0.979826 35.2637C0.994419 35.0894 1.07683 34.9278 1.20927 34.814C1.34171 34.7002 1.51352 34.6432 1.68752 34.6554L39.2442 37.7406L55.2708 25.6908C55.3398 25.6381 55.4186 25.5997 55.5026 25.5778C55.5865 25.5559 55.674 25.5511 55.7599 25.5634C55.8457 25.5757 55.9283 25.6049 56.0028 25.6495C56.0773 25.694 56.1423 25.753 56.1938 25.8229C56.2976 25.9636 56.342 26.1396 56.3173 26.3128C56.2926 26.4861 56.2009 26.6426 56.062 26.7485L39.8376 38.9482C39.721 39.0268 39.5822 39.0654 39.442 39.0584Z" fill="black"/>
<path d="M39.4025 39.0584C39.2435 39.058 39.09 39.0004 38.9698 38.896C38.8496 38.7917 38.7707 38.6475 38.7476 38.4898L38.0926 33.8973C38.0699 33.7235 38.1161 33.5476 38.2213 33.4075C38.3265 33.2674 38.4823 33.1743 38.6552 33.1481C38.8277 33.1242 39.0026 33.1696 39.1417 33.2744C39.2809 33.3793 39.3731 33.5351 39.3981 33.7078L40.0531 38.3047C40.0655 38.3907 40.0609 38.4783 40.0396 38.5624C40.0183 38.6466 39.9806 38.7258 39.9287 38.7954C39.8769 38.865 39.8119 38.9236 39.7374 38.968C39.663 39.0124 39.5805 39.0416 39.4948 39.054L39.4025 39.0584Z" fill="black"/>
<path d="M1.74452 35.7837C1.58709 35.7844 1.43467 35.7283 1.3152 35.6255C1.19573 35.5227 1.11721 35.3801 1.09397 35.224L0.439017 30.9577C0.426029 30.8708 0.430222 30.7822 0.451359 30.697C0.472495 30.6119 0.51012 30.5317 0.562163 30.4611C0.614205 30.3905 0.679608 30.3309 0.754634 30.2857C0.82966 30.2404 0.912889 30.2104 0.999476 30.1973C1.08606 30.1843 1.17432 30.1885 1.25929 30.2097C1.34425 30.2309 1.42422 30.2687 1.49463 30.3209C1.56504 30.373 1.62453 30.4387 1.66967 30.5139C1.7148 30.5891 1.74473 30.6725 1.75772 30.7593L2.41267 35.0257C2.43794 35.1991 2.39392 35.3756 2.29022 35.5167C2.18652 35.6578 2.03151 35.7522 1.85881 35.7793L1.74452 35.7837Z" fill="black"/>
<path d="M65.583 19.3705C65.4245 19.37 65.2715 19.3123 65.1521 19.2078C65.0326 19.1034 64.9546 18.9593 64.9324 18.802L64.0533 12.4949C64.0412 12.4081 64.0462 12.3198 64.0682 12.235C64.0901 12.1501 64.1285 12.0704 64.1812 12.0004C64.2338 11.9304 64.2997 11.8715 64.375 11.8271C64.4504 11.7826 64.5338 11.7535 64.6204 11.7413C64.707 11.7291 64.7951 11.7343 64.8797 11.7563C64.9643 11.7782 65.0438 11.8168 65.1136 11.8696C65.1834 11.9224 65.2421 11.9883 65.2865 12.0639C65.3308 12.1394 65.3599 12.223 65.372 12.3099L66.2511 18.6125C66.2738 18.7864 66.2276 18.9622 66.1224 19.1023C66.0172 19.2424 65.8614 19.3355 65.6885 19.3617L65.583 19.3705Z" fill="black"/>
<path d="M67.2399 4.60133C67.1337 4.60216 67.0288 4.5769 66.9346 4.52773C66.8403 4.47856 66.7595 4.40696 66.6993 4.31925L64.4047 1.04017C64.3045 0.896394 64.2652 0.718539 64.2957 0.54579C64.3262 0.373041 64.424 0.219511 64.5674 0.118984C64.7108 0.0184574 64.8881 -0.0208147 65.0604 0.00976757C65.2327 0.0403499 65.3858 0.138279 65.486 0.282056L67.7762 3.56119C67.8451 3.66 67.8858 3.77584 67.8938 3.89616C67.9019 4.01648 67.8769 4.1367 67.8217 4.24382C67.7664 4.35095 67.6831 4.44088 67.5805 4.5039C67.478 4.56691 67.3602 4.60061 67.2399 4.60133Z" fill="black"/>
<path d="M36.1276 6.57144C36.0215 6.57151 35.9169 6.54592 35.8228 6.49681C35.7287 6.44771 35.6478 6.37652 35.5869 6.28936L33.2968 3.00586C33.1966 2.86209 33.1573 2.68428 33.1878 2.51154C33.2183 2.33879 33.3161 2.18526 33.4595 2.08473C33.6028 1.9842 33.7802 1.94488 33.9525 1.97546C34.1248 2.00604 34.2779 2.10402 34.3781 2.2478L36.6683 5.5313C36.7374 5.63041 36.7782 5.74663 36.786 5.86734C36.7939 5.98805 36.7685 6.10865 36.7127 6.21592C36.657 6.32319 36.573 6.41303 36.4698 6.47572C36.3666 6.53842 36.2482 6.57152 36.1276 6.57144Z" fill="black"/>
<path d="M10.2722 49.8874C10.1633 49.8878 10.0561 49.8611 9.96017 49.8095C9.86424 49.7579 9.78264 49.6833 9.72274 49.5921L7.76223 46.6391C7.70688 46.5673 7.66687 46.4849 7.64467 46.397C7.62246 46.309 7.61856 46.2174 7.63318 46.1279C7.6478 46.0383 7.68064 45.9529 7.72966 45.8766C7.77868 45.8004 7.84282 45.735 7.91811 45.6847C7.99339 45.6343 8.07824 45.6001 8.1673 45.584C8.25635 45.568 8.34775 45.5705 8.4358 45.5914C8.52385 45.6123 8.60666 45.6511 8.67909 45.7055C8.75151 45.7599 8.81202 45.8287 8.8568 45.9075L10.8217 48.8604C10.8696 48.9328 10.9029 49.0139 10.9195 49.0991C10.9362 49.1843 10.9359 49.2721 10.9188 49.3572C10.9016 49.4424 10.8679 49.5233 10.8196 49.5954C10.7712 49.6674 10.7092 49.7292 10.637 49.7772C10.5292 49.8499 10.4021 49.8883 10.2722 49.8874Z" fill="black"/>
<path d="M48.5671 54.8104C48.4529 54.8106 48.3406 54.7812 48.2412 54.7248C48.1418 54.6684 48.0587 54.587 48.0001 54.4887L46.0352 51.2052C45.9558 51.0555 45.9368 50.881 45.9821 50.7177C46.0274 50.5545 46.1334 50.4148 46.2784 50.3277C46.4234 50.2406 46.5963 50.2126 46.7613 50.2496C46.9262 50.2866 47.0707 50.3857 47.1649 50.5264L49.1298 53.8099C49.1895 53.91 49.2217 54.0243 49.2232 54.1409C49.2247 54.2575 49.1954 54.3724 49.1383 54.4741C49.0811 54.5757 48.9982 54.6603 48.8979 54.7194C48.7976 54.7785 48.6835 54.8099 48.5671 54.8104Z" fill="black"/>
<path d="M24.4 24.6197C24.3134 24.6301 24.2256 24.6234 24.1416 24.5998C24.0576 24.5762 23.9791 24.5362 23.9106 24.4822C23.842 24.4282 23.7847 24.3612 23.742 24.285C23.6992 24.2087 23.6719 24.1248 23.6615 24.038C23.6511 23.9512 23.6578 23.8631 23.6814 23.7789C23.7049 23.6947 23.7448 23.616 23.7987 23.5472C23.8526 23.4785 23.9194 23.4211 23.9954 23.3782C24.0714 23.3354 24.1551 23.3079 24.2417 23.2975L44.1277 18.4714C44.2135 18.4453 44.3037 18.437 44.3929 18.447C44.482 18.457 44.5681 18.4852 44.646 18.5297C44.7239 18.5743 44.7919 18.6343 44.8459 18.7061C44.8999 18.7779 44.9387 18.86 44.9599 18.9473C44.9812 19.0347 44.9845 19.1254 44.9695 19.2141C44.9546 19.3027 44.9218 19.3874 44.8731 19.4629C44.8244 19.5384 44.7609 19.6032 44.6864 19.6532C44.6119 19.7033 44.528 19.7375 44.4398 19.7539L24.5538 24.6021C24.5034 24.6142 24.4518 24.6201 24.4 24.6197Z" fill="black"/>
<path d="M33.231 24.6198C33.1444 24.6299 33.0567 24.6228 32.9728 24.599C32.8889 24.5751 32.8106 24.535 32.7422 24.4807C32.6042 24.3712 32.5151 24.2111 32.4947 24.0358C32.4743 23.8605 32.5242 23.6842 32.6335 23.5458C32.7427 23.4073 32.9023 23.318 33.0772 23.2975L51.8159 18.7623C51.9021 18.7351 51.993 18.7261 52.0829 18.7356C52.1727 18.7451 52.2597 18.7732 52.3383 18.8178C52.417 18.8625 52.4856 18.9228 52.54 18.9951C52.5944 19.0675 52.6334 19.1503 52.6545 19.2384C52.6757 19.3265 52.6785 19.4181 52.6629 19.5073C52.6473 19.5966 52.6135 19.6817 52.5637 19.7573C52.514 19.8329 52.4492 19.8975 52.3735 19.947C52.2978 19.9965 52.2127 20.0298 52.1236 20.0449L33.3892 24.5846C33.3382 24.6029 33.285 24.6147 33.231 24.6198Z" fill="black"/>
</g>
<defs>
<clipPath id="clip0_5_1885">
<rect width="68" height="55" fill="white"/>
</clipPath>
</defs>
</svg>
