<svg width="61" height="61" viewBox="0 0 61 61" fill="none" xmlns="http://www.w3.org/2000/svg">
<g clip-path="url(#clip0_5_1712)">
<path d="M53.4063 0.00250244H15.6331C11.4417 0.00250244 8.04395 3.42202 8.04395 7.64022V42.9435C8.04395 47.1617 11.4417 50.5813 15.6331 50.5813H53.4063C57.5977 50.5813 60.9954 47.1617 60.9954 42.9435V7.64022C60.9954 3.42202 57.5977 0.00250244 53.4063 0.00250244Z" fill="#FBB900"/>
<path d="M9.73148 23.178C7.15582 23.1721 4.68733 22.1398 2.86606 20.3068C1.04479 18.4739 0.0190175 15.9896 0.0131836 13.3974V4.77275C0.0131836 4.59589 0.0829904 4.42627 0.207254 4.30121C0.331518 4.17615 0.500059 4.1059 0.675795 4.1059H14.5906C14.7664 4.1059 14.9349 4.17615 15.0592 4.30121C15.1834 4.42627 15.2532 4.59589 15.2532 4.77275C15.2532 4.94961 15.1834 5.11923 15.0592 5.24429C14.9349 5.36935 14.7664 5.43961 14.5906 5.43961H1.33841V13.3974C1.33841 15.6377 2.22267 17.7861 3.79668 19.3702C5.37069 20.9543 7.5055 21.8443 9.73148 21.8443C11.9575 21.8443 14.0923 20.9543 15.6663 19.3702C17.2403 17.7861 18.1246 15.6377 18.1246 13.3974V4.77275C18.1246 4.59589 18.1944 4.42627 18.3186 4.30121C18.4429 4.17615 18.6114 4.1059 18.7872 4.1059C18.9629 4.1059 19.1314 4.17615 19.2557 4.30121C19.38 4.42627 19.4498 4.59589 19.4498 4.77275V13.3974C19.4498 15.9914 18.4259 18.4791 16.6034 20.3133C14.7808 22.1475 12.3089 23.178 9.73148 23.178Z" fill="black"/>
<path d="M27.8648 23.178C25.2895 23.1709 22.8217 22.1382 21.0006 20.3055C19.1796 18.4728 18.1535 15.9892 18.1465 13.3974V4.77275C18.1465 4.59589 18.2163 4.42627 18.3406 4.30121C18.4648 4.17615 18.6334 4.1059 18.8091 4.1059H36.947C37.1227 4.1059 37.2913 4.17615 37.4155 4.30121C37.5398 4.42627 37.6096 4.59589 37.6096 4.77275V13.3974C37.6037 15.9942 36.5743 18.4825 34.7473 20.3162C32.9203 22.1499 30.445 23.1792 27.8648 23.178V23.178ZM19.4717 5.42626V13.3841C19.4717 15.6279 20.3574 17.7797 21.9339 19.3663C23.5104 20.9529 25.6485 21.8443 27.878 21.8443C30.1075 21.8443 32.2457 20.9529 33.8222 19.3663C35.3987 17.7797 36.2844 15.6279 36.2844 13.3841V5.42626H19.4717Z" fill="black"/>
<path d="M45.9986 23.178C43.4211 23.178 40.9492 22.1475 39.1267 20.3133C37.3042 18.4791 36.2803 15.9914 36.2803 13.3974V4.77275C36.2803 4.59589 36.3501 4.42627 36.4743 4.30121C36.5986 4.17615 36.7671 4.1059 36.9429 4.1059H55.0764C55.2521 4.1059 55.4206 4.17615 55.5449 4.30121C55.6691 4.42627 55.739 4.59589 55.739 4.77275V13.3974C55.7331 15.9934 54.7043 18.4811 52.8783 20.3146C51.0522 22.1482 48.578 23.178 45.9986 23.178ZM37.6055 5.42626V13.3841C37.6055 15.6243 38.4898 17.7728 40.0638 19.3569C41.6378 20.941 43.7726 21.8309 45.9986 21.8309V21.8309C48.2224 21.8239 50.3532 20.9317 51.9257 19.3491C53.4982 17.7665 54.3846 15.6221 54.3916 13.3841V5.42626H37.6055Z" fill="black"/>
<path d="M9.73148 35.8615C7.15582 35.8557 4.68733 34.8234 2.86606 32.9905C1.04479 31.1575 0.0190175 28.6732 0.0131836 26.081V13.1885C0.0131836 13.0116 0.0829904 12.842 0.207254 12.7169C0.331518 12.5919 0.500059 12.5216 0.675795 12.5216C0.85153 12.5216 1.02007 12.5919 1.14434 12.7169C1.2686 12.842 1.33841 13.0116 1.33841 13.1885V26.081C1.33841 28.3212 2.22267 30.4697 3.79668 32.0538C5.37069 33.6379 7.5055 34.5278 9.73148 34.5278C11.9575 34.5278 14.0923 33.6379 15.6663 32.0538C17.2403 30.4697 18.1246 28.3212 18.1246 26.081V13.1885C18.1246 13.0116 18.1944 12.842 18.3186 12.7169C18.4429 12.5919 18.6114 12.5216 18.7872 12.5216C18.9629 12.5216 19.1314 12.5919 19.2557 12.7169C19.38 12.842 19.4498 13.0116 19.4498 13.1885V26.081C19.4498 28.675 18.4259 31.1627 16.6034 32.9969C14.7808 34.8311 12.3089 35.8615 9.73148 35.8615Z" fill="black"/>
<path d="M27.8648 35.8615C25.2895 35.8545 22.8217 34.8218 21.0006 32.9891C19.1796 31.1564 18.1535 28.6727 18.1465 26.0809V13.633C18.1465 13.4561 18.2163 13.2865 18.3406 13.1614C18.4648 13.0364 18.6334 12.9661 18.8091 12.9661C18.9848 12.9661 19.1534 13.0364 19.2776 13.1614C19.4019 13.2865 19.4717 13.4561 19.4717 13.633V26.0809C19.4717 28.3247 20.3574 30.4766 21.9339 32.0632C23.5104 33.6498 25.6485 34.5411 27.878 34.5411C30.1075 34.5411 32.2457 33.6498 33.8222 32.0632C35.3987 30.4766 36.2844 28.3247 36.2844 26.0809V17.4519C36.2844 17.275 36.3542 17.1054 36.4784 16.9803C36.6027 16.8553 36.7712 16.785 36.947 16.785C37.1227 16.785 37.2913 16.8553 37.4155 16.9803C37.5398 17.1054 37.6096 17.275 37.6096 17.4519V26.0809C37.6037 28.6777 36.5743 31.1661 34.7473 32.9998C32.9203 34.8335 30.445 35.8627 27.8648 35.8615V35.8615Z" fill="black"/>
<path d="M45.9986 35.8615C43.4211 35.8615 40.9492 34.8311 39.1267 32.9969C37.3042 31.1627 36.2803 28.675 36.2803 26.081V13.3975C36.2803 13.2206 36.3501 13.051 36.4743 12.9259C36.5986 12.8008 36.7671 12.7306 36.9429 12.7306C37.1186 12.7306 37.2872 12.8008 37.4114 12.9259C37.5357 13.051 37.6055 13.2206 37.6055 13.3975V26.081C37.6055 28.3242 38.4909 30.4755 40.067 32.0617C41.6431 33.6479 43.7807 34.539 46.0096 34.539C48.2385 34.539 50.3761 33.6479 51.9522 32.0617C53.5283 30.4755 54.4137 28.3242 54.4137 26.081V13.1885C54.4137 13.0116 54.4836 12.842 54.6078 12.7169C54.7321 12.5919 54.9006 12.5216 55.0764 12.5216C55.2521 12.5216 55.4206 12.5919 55.5449 12.7169C55.6691 12.842 55.739 13.0116 55.739 13.1885V26.081C55.7331 28.677 54.7043 31.1647 52.8783 32.9983C51.0522 34.8318 48.578 35.8616 45.9986 35.8615Z" fill="black"/>
<path d="M9.73148 48.4429C7.15582 48.437 4.68733 47.4047 2.86606 45.5718C1.04479 43.7388 0.0190175 41.2545 0.0131836 38.6624V25.7698C0.0131836 25.593 0.0829904 25.4233 0.207254 25.2983C0.331518 25.1732 0.500059 25.103 0.675795 25.103C0.85153 25.103 1.02007 25.1732 1.14434 25.2983C1.2686 25.4233 1.33841 25.593 1.33841 25.7698V38.6624C1.33841 40.9026 2.22267 43.0511 3.79668 44.6352C5.37069 46.2193 7.5055 47.1092 9.73148 47.1092C11.9575 47.1092 14.0923 46.2193 15.6663 44.6352C17.2403 43.0511 18.1246 40.9026 18.1246 38.6624V25.7698C18.1246 25.593 18.1944 25.4233 18.3186 25.2983C18.4429 25.1732 18.6114 25.103 18.7872 25.103C18.9629 25.103 19.1314 25.1732 19.2557 25.2983C19.38 25.4233 19.4498 25.593 19.4498 25.7698V38.6624C19.4498 41.2563 18.4259 43.7441 16.6034 45.5783C14.7808 47.4125 12.3089 48.4429 9.73148 48.4429Z" fill="black"/>
<path d="M27.8648 48.4429C25.2895 48.4358 22.8217 47.4031 21.0006 45.5704C19.1796 43.7377 18.1535 41.2541 18.1465 38.6623V26.2143C18.1465 26.0375 18.2163 25.8679 18.3406 25.7428C18.4648 25.6177 18.6334 25.5475 18.8091 25.5475C18.9848 25.5475 19.1534 25.6177 19.2776 25.7428C19.4019 25.8679 19.4717 26.0375 19.4717 26.2143V38.6623C19.4717 40.9061 20.3574 43.058 21.9339 44.6446C23.5104 46.2312 25.6485 47.1225 27.878 47.1225C30.1075 47.1225 32.2457 46.2312 33.8222 44.6446C35.3987 43.058 36.2844 40.9061 36.2844 38.6623V30.0332C36.2844 29.8563 36.3542 29.6867 36.4784 29.5616C36.6027 29.4366 36.7712 29.3663 36.947 29.3663C37.1227 29.3663 37.2913 29.4366 37.4155 29.5616C37.5398 29.6867 37.6096 29.8563 37.6096 30.0332V38.6623C37.6037 41.2591 36.5743 43.7474 34.7473 45.5811C32.9203 47.4148 30.445 48.444 27.8648 48.4429V48.4429Z" fill="black"/>
<path d="M45.9986 48.4429C43.4211 48.4429 40.9492 47.4125 39.1267 45.5783C37.3042 43.7441 36.2803 41.2563 36.2803 38.6624V25.9788C36.2803 25.8019 36.3501 25.6323 36.4743 25.5072C36.5986 25.3822 36.7671 25.3119 36.9429 25.3119C37.1186 25.3119 37.2872 25.3822 37.4114 25.5072C37.5357 25.6323 37.6055 25.8019 37.6055 25.9788V38.6624C37.6055 40.9055 38.4909 43.0569 40.067 44.6431C41.6431 46.2292 43.7807 47.1203 46.0096 47.1203C48.2385 47.1203 50.3761 46.2292 51.9522 44.6431C53.5283 43.0569 54.4137 40.9055 54.4137 38.6624V25.7698C54.4137 25.593 54.4836 25.4233 54.6078 25.2983C54.7321 25.1732 54.9006 25.103 55.0764 25.103C55.2521 25.103 55.4206 25.1732 55.5449 25.2983C55.6691 25.4233 55.739 25.593 55.739 25.7698V38.6624C55.7331 41.2584 54.7043 43.7461 52.8783 45.5796C51.0522 47.4132 48.578 48.4429 45.9986 48.4429Z" fill="black"/>
<path d="M9.73148 60.9975C7.15582 60.9917 4.68733 59.9593 2.86606 58.1264C1.04479 56.2934 0.0190175 53.8091 0.0131836 51.217V38.3244C0.0131836 38.1476 0.0829904 37.978 0.207254 37.8529C0.331518 37.7278 0.500059 37.6576 0.675795 37.6576C0.85153 37.6576 1.02007 37.7278 1.14434 37.8529C1.2686 37.978 1.33841 38.1476 1.33841 38.3244V51.217C1.33841 53.4572 2.22267 55.6057 3.79668 57.1898C5.37069 58.7739 7.5055 59.6638 9.73148 59.6638C11.9575 59.6638 14.0923 58.7739 15.6663 57.1898C17.2403 55.6057 18.1246 53.4572 18.1246 51.217V38.3244C18.1246 38.1476 18.1944 37.978 18.3186 37.8529C18.4429 37.7278 18.6114 37.6576 18.7872 37.6576C18.9629 37.6576 19.1314 37.7278 19.2557 37.8529C19.38 37.978 19.4498 38.1476 19.4498 38.3244V51.217C19.4498 53.8109 18.4259 56.2987 16.6034 58.1329C14.7808 59.9671 12.3089 60.9975 9.73148 60.9975Z" fill="black"/>
<path d="M27.8648 60.9975C25.2895 60.9905 22.8217 59.9578 21.0006 58.1251C19.1796 56.2924 18.1535 53.8088 18.1465 51.217V38.769C18.1465 38.5922 18.2163 38.4225 18.3406 38.2975C18.4648 38.1724 18.6334 38.1022 18.8091 38.1022C18.9848 38.1022 19.1534 38.1724 19.2776 38.2975C19.4019 38.4225 19.4717 38.5922 19.4717 38.769V51.217C19.4717 53.4608 20.3574 55.6127 21.9339 57.1993C23.5104 58.7859 25.6485 59.6772 27.878 59.6772C30.1075 59.6772 32.2457 58.7859 33.8222 57.1993C35.3987 55.6127 36.2844 53.4608 36.2844 51.217V42.5746C36.2844 42.3977 36.3542 42.2281 36.4784 42.103C36.6027 41.978 36.7712 41.9077 36.947 41.9077C37.1227 41.9077 37.2913 41.978 37.4155 42.103C37.5398 42.2281 37.6096 42.3977 37.6096 42.5746V51.2036C37.6072 53.8027 36.5794 56.2945 34.752 58.1311C32.9246 59.9677 30.4473 60.9987 27.8648 60.9975Z" fill="black"/>
<path d="M45.9986 60.9975C43.4211 60.9975 40.9492 59.9671 39.1267 58.1329C37.3042 56.2987 36.2803 53.8109 36.2803 51.217V38.5334C36.2803 38.3565 36.3501 38.1869 36.4743 38.0618C36.5986 37.9368 36.7671 37.8665 36.9429 37.8665C37.1186 37.8665 37.2872 37.9368 37.4114 38.0618C37.5357 38.1869 37.6055 38.3565 37.6055 38.5334V51.217C37.6055 53.4602 38.4909 55.6115 40.067 57.1977C41.6431 58.7838 43.7807 59.6749 46.0096 59.6749C48.2385 59.6749 50.3761 58.7838 51.9522 57.1977C53.5283 55.6115 54.4137 53.4602 54.4137 51.217V47.776C54.4137 47.5991 54.4836 47.4295 54.6078 47.3045C54.7321 47.1794 54.9006 47.1091 55.0764 47.1091C55.2521 47.1091 55.4206 47.1794 55.5449 47.3045C55.6691 47.4295 55.739 47.5991 55.739 47.776V51.217C55.7331 53.813 54.7043 56.3007 52.8783 58.1342C51.0522 59.9678 48.578 60.9975 45.9986 60.9975V60.9975Z" fill="black"/>
</g>
<defs>
<clipPath id="clip0_5_1712">
<rect width="61" height="61" fill="white"/>
</clipPath>
</defs>
</svg>
