<svg width="58" height="78" viewBox="0 0 58 78" fill="none" xmlns="http://www.w3.org/2000/svg">
<g clip-path="url(#clip0_5_1786)">
<path d="M29.6979 1.244L2.97677 20.1457C1.86954 20.9237 1.01085 22.0151 0.507078 23.2849C0.00330739 24.5546 -0.12342 25.9468 0.142565 27.2891L7.61333 65.07C7.8363 66.2009 8.33064 67.2581 9.0523 68.1476C9.77395 69.037 10.7005 69.731 11.7495 70.1677C12.7985 70.6045 13.9373 70.7704 15.0646 70.6508C16.1919 70.5312 17.2726 70.1298 18.2105 69.4822L45.069 50.9636C46.2034 50.1798 47.0822 49.0693 47.5926 47.7742C48.1031 46.4791 48.222 45.0583 47.9342 43.694L40.3306 5.53002C40.0927 4.40481 39.5858 3.35665 38.8547 2.47843C38.1237 1.60021 37.1912 0.919036 36.1397 0.495191C35.0883 0.0713452 33.9503 -0.0820387 32.8267 0.0485771C31.703 0.179193 30.6284 0.589769 29.6979 1.244Z" fill="#FBB900"/>
<path d="M18.4226 76.1837C18.336 76.1852 18.25 76.1683 18.1702 76.1342C18.0676 76.0918 17.9773 76.0237 17.9076 75.9362C17.838 75.8488 17.7911 75.7448 17.7716 75.6339L8.52945 26.6129C8.50401 26.4846 8.51653 26.3514 8.5654 26.2303C8.61426 26.1092 8.69729 26.0055 8.80401 25.9324L43.2794 1.645C43.3692 1.58071 43.4734 1.54041 43.5825 1.52782C43.6917 1.51522 43.8021 1.5307 43.9038 1.57287C44.0056 1.61451 44.0957 1.68119 44.166 1.76691C44.2363 1.85263 44.2847 1.95477 44.3068 2.06416L54.0892 50.8868C54.1144 51.0171 54.102 51.1521 54.0532 51.2753C54.0045 51.3986 53.9216 51.5047 53.8146 51.5809L18.7857 76.0666C18.6783 76.1404 18.5522 76.1811 18.4226 76.1837ZM9.92885 26.7932L18.8964 74.3675L52.7119 50.7201L43.2218 3.33958L9.92885 26.7932Z" fill="black"/>
<path d="M52.526 56.926C52.3846 56.9261 52.2469 56.8803 52.1328 56.7953C52.0187 56.7102 51.9343 56.5903 51.8918 56.4531C51.8493 56.3158 51.851 56.1683 51.8966 56.0321C51.9421 55.8959 52.0292 55.778 52.1452 55.6956L56.5736 52.5408L47.0702 5.19639L43.3016 2.78975C43.1525 2.69413 43.0467 2.54208 43.0077 2.36712C42.9687 2.19217 42.9995 2.0086 43.0935 1.8568C43.1875 1.705 43.3368 1.59741 43.5087 1.55769C43.6806 1.51796 43.861 1.54937 44.0102 1.64499L47.9958 4.20491C48.0741 4.25444 48.1414 4.32011 48.1933 4.39774C48.2451 4.47536 48.2805 4.56322 48.2969 4.65559L57.9642 52.7391C57.9896 52.8683 57.9776 53.0023 57.9296 53.1247C57.8817 53.2471 57.7998 53.3527 57.694 53.4287L52.8892 56.8358C52.779 56.9004 52.653 56.9317 52.526 56.926Z" fill="black"/>
<path d="M22.7179 77.9955C22.6299 77.9969 22.5425 77.9801 22.4611 77.9459L18.1699 76.1432C18.0846 76.1129 18.0063 76.0653 17.9397 76.0032C17.8731 75.9411 17.8196 75.8658 17.7826 75.782C17.7455 75.6982 17.7257 75.6075 17.7242 75.5156C17.7228 75.4237 17.7397 75.3325 17.7741 75.2475C17.8085 75.1625 17.8595 75.0854 17.9241 75.0212C17.9887 74.9569 18.0656 74.9068 18.1499 74.8738C18.2342 74.8408 18.3242 74.8256 18.4144 74.8292C18.5047 74.8328 18.5933 74.8551 18.6748 74.8948L22.6338 76.5623L47.774 58.8053C47.8458 58.7547 47.9267 58.719 48.0121 58.7002C48.0975 58.6814 48.1857 58.68 48.2716 58.6959C48.3576 58.7118 48.4396 58.7447 48.513 58.7929C48.5864 58.8411 48.6498 58.9035 48.6995 58.9765C48.7493 59.0496 48.7843 59.132 48.8028 59.2189C48.8212 59.3058 48.8227 59.3956 48.8071 59.483C48.7914 59.5705 48.759 59.6539 48.7117 59.7287C48.6644 59.8034 48.6031 59.8679 48.5313 59.9185L23.0943 77.8873C22.9821 77.9605 22.8511 77.9981 22.7179 77.9955Z" fill="black"/>
<path d="M38.6695 16.0128C38.5821 16.014 38.4954 15.997 38.4146 15.9629C38.3339 15.9288 38.2609 15.8784 38.2 15.8145C38.1379 15.7521 38.0886 15.6776 38.0549 15.5956C38.0213 15.5136 38.0039 15.4257 38.0039 15.3368C38.0039 15.2479 38.0213 15.1599 38.0549 15.0779C38.0886 14.9959 38.1379 14.9215 38.2 14.859L39.1743 13.863C39.3021 13.7504 39.4671 13.6912 39.636 13.6973C39.805 13.7035 39.9654 13.7745 40.085 13.8962C40.2045 14.0179 40.2743 14.1811 40.2804 14.3531C40.2864 14.525 40.2283 14.6929 40.1176 14.823L39.1389 15.8145C39.0777 15.8779 39.0046 15.9281 38.924 15.9622C38.8433 15.9963 38.7568 16.0135 38.6695 16.0128Z" fill="black"/>
<path d="M30.9551 22.7731C30.8603 22.7736 30.7666 22.7533 30.6803 22.7137C30.5939 22.674 30.517 22.6159 30.4547 22.5432L29.8568 21.8717C29.7394 21.7372 29.6792 21.5608 29.6896 21.3812C29.7 21.2016 29.7801 21.0335 29.9122 20.914C30.0443 20.7945 30.2177 20.7333 30.3942 20.7438C30.5706 20.7544 30.7358 20.8359 30.8532 20.9703L31.4555 21.6644C31.5399 21.7622 31.5947 21.8826 31.6135 22.0113C31.6323 22.14 31.6142 22.2715 31.5613 22.39C31.5085 22.5084 31.4232 22.6089 31.3157 22.6792C31.2082 22.7496 31.0829 22.7869 30.9551 22.7866V22.7731Z" fill="black"/>
<path d="M27.1288 29.8488H27.0093L25.9332 29.6505C25.8459 29.6349 25.7626 29.6018 25.6879 29.5534C25.6132 29.5049 25.5486 29.442 25.4979 29.3681C25.4471 29.2942 25.411 29.2109 25.3919 29.1229C25.3728 29.0349 25.3709 28.9439 25.3863 28.8551C25.4017 28.7663 25.4341 28.6815 25.4817 28.6055C25.5294 28.5295 25.5912 28.4637 25.6638 28.412C25.7364 28.3604 25.8183 28.3237 25.9047 28.3043C25.9912 28.2848 26.0807 28.2828 26.1679 28.2985L27.244 28.4968C27.4202 28.5123 27.583 28.5985 27.6968 28.7362C27.8106 28.874 27.8659 29.0521 27.8507 29.2314C27.8354 29.4107 27.7508 29.5764 27.6154 29.6922C27.48 29.808 27.305 29.8644 27.1288 29.8488Z" fill="black"/>
<path d="M34.5601 36.6181C34.4292 36.619 34.3011 36.5797 34.1925 36.5054C34.1198 36.4563 34.0573 36.3931 34.0086 36.3194C33.9599 36.2457 33.9259 36.163 33.9087 36.0759C33.8914 35.9889 33.8911 35.8992 33.9079 35.8121C33.9247 35.7249 33.9582 35.642 34.0065 35.568L34.7903 34.3737C34.8386 34.2997 34.9007 34.2361 34.9731 34.1866C35.0455 34.137 35.1268 34.1025 35.2124 34.0849C35.2979 34.0673 35.386 34.0671 35.4716 34.0841C35.5573 34.1012 35.6387 34.1353 35.7114 34.1844C35.7841 34.2335 35.8466 34.2967 35.8953 34.3704C35.944 34.4441 35.978 34.5269 35.9952 34.6139C36.0125 34.701 36.0127 34.7906 35.996 34.8778C35.9792 34.9649 35.9457 35.0479 35.8975 35.1218L35.1136 36.3162C35.0533 36.4093 34.9711 36.4857 34.8744 36.5384C34.7778 36.5912 34.6697 36.6185 34.5601 36.6181Z" fill="black"/>
<path d="M23.9007 49.6564C23.8565 49.6609 23.812 49.6609 23.7678 49.6564C23.6825 49.6392 23.6014 49.605 23.5291 49.5558C23.4569 49.5065 23.3948 49.4432 23.3467 49.3695C23.2985 49.2958 23.2652 49.2131 23.2485 49.1262C23.2319 49.0393 23.2323 48.95 23.2497 48.8632L23.542 47.3714C23.5552 47.281 23.5863 47.1942 23.6335 47.1163C23.6806 47.0385 23.7428 46.9712 23.8162 46.9184C23.8897 46.8657 23.9728 46.8287 24.0607 46.8097C24.1486 46.7906 24.2395 46.7899 24.3276 46.8076C24.4158 46.8253 24.4995 46.8611 24.5737 46.9127C24.6479 46.9643 24.7111 47.0306 24.7593 47.1077C24.8076 47.1849 24.84 47.2712 24.8545 47.3615C24.8691 47.4517 24.8655 47.5441 24.844 47.6329L24.5517 49.1291C24.5184 49.2793 24.4357 49.4134 24.3173 49.5093C24.199 49.6052 24.052 49.6571 23.9007 49.6564Z" fill="black"/>
<path d="M33.6741 53.0546C33.5761 53.0563 33.479 53.0347 33.3907 52.9915L32.3234 52.4822C32.1637 52.4063 32.0401 52.2689 31.9799 52.1003C31.9197 51.9317 31.9278 51.7457 32.0024 51.5831C32.0769 51.4206 32.2119 51.2948 32.3776 51.2335C32.5433 51.1722 32.7261 51.1804 32.8858 51.2563L33.9531 51.7656C34.0901 51.8305 34.2013 51.941 34.2683 52.0789C34.3353 52.2168 34.3541 52.3738 34.3216 52.524C34.2891 52.6742 34.2072 52.8086 34.0895 52.9051C33.9718 53.0015 33.8252 53.0543 33.6741 53.0546Z" fill="black"/>
<path d="M40.5251 46.4746C40.3874 46.4745 40.2532 46.4311 40.1406 46.3505C40.0281 46.2698 39.9428 46.1558 39.8963 46.0239L39.5066 44.8296C39.4775 44.7455 39.465 44.6565 39.4697 44.5675C39.4745 44.4786 39.4963 44.3914 39.5342 44.3111C39.6106 44.1488 39.7472 44.0241 39.914 43.9643C40.0808 43.9045 40.2641 43.9146 40.4235 43.9924C40.583 44.0702 40.7055 44.2092 40.7643 44.3789L41.1584 45.5732C41.1851 45.659 41.1947 45.7494 41.1869 45.839C41.179 45.9286 41.1537 46.0158 41.1125 46.0954C41.0714 46.1751 41.0151 46.2456 40.9469 46.3029C40.8788 46.3603 40.8001 46.4033 40.7155 46.4295C40.6544 46.4534 40.5903 46.4685 40.5251 46.4746Z" fill="black"/>
<path d="M17.8378 33.6301C17.7081 33.6311 17.5809 33.5932 17.4722 33.5211C17.3635 33.4489 17.2781 33.3457 17.2267 33.2244L16.93 32.5259C16.8957 32.4442 16.8775 32.3565 16.8765 32.2677C16.8755 32.1788 16.8918 32.0907 16.9242 32.0082C16.9567 31.9258 17.0049 31.8507 17.0659 31.7872C17.1269 31.7236 17.1996 31.673 17.2798 31.6381C17.3601 31.6032 17.4463 31.5847 17.5336 31.5837C17.6209 31.5827 17.7075 31.5991 17.7885 31.6322C17.8695 31.6652 17.9433 31.7142 18.0057 31.7763C18.0681 31.8384 18.1179 31.9124 18.1522 31.9941L18.4445 32.6881C18.4817 32.7702 18.5023 32.859 18.505 32.9492C18.5076 33.0395 18.4924 33.1294 18.4602 33.2136C18.4279 33.2978 18.3794 33.3744 18.3173 33.439C18.2553 33.5036 18.181 33.5548 18.0991 33.5895C18.0158 33.6217 17.9268 33.6355 17.8378 33.6301Z" fill="black"/>
<path d="M17.6877 26.0676C17.596 26.0677 17.5054 26.0477 17.422 26.009C17.3408 25.9733 17.2675 25.9215 17.2062 25.8567C17.145 25.7918 17.0971 25.7151 17.0654 25.6312C17.0336 25.5473 17.0186 25.4577 17.0213 25.3678C17.024 25.2779 17.0443 25.1894 17.081 25.1076L17.8161 23.4176C17.8479 23.3315 17.8966 23.2528 17.9593 23.1866C18.022 23.1203 18.0973 23.0678 18.1806 23.0322C18.2639 22.9966 18.3535 22.9787 18.4439 22.9795C18.5343 22.9804 18.6235 23 18.7062 23.0371C18.7888 23.0743 18.8632 23.1282 18.9247 23.1956C18.9862 23.263 19.0335 23.3424 19.0637 23.4291C19.094 23.5158 19.1066 23.6078 19.1007 23.6996C19.0948 23.7913 19.0706 23.8809 19.0295 23.9629L18.2988 25.6574C18.2471 25.7789 18.1618 25.8823 18.0533 25.9551C17.9447 26.028 17.8177 26.0671 17.6877 26.0676Z" fill="black"/>
<path d="M16.2705 47.732C16.161 47.7312 16.0535 47.7033 15.957 47.6507C15.8605 47.5981 15.7781 47.5223 15.7169 47.43C15.6686 47.356 15.6352 47.2731 15.6184 47.186C15.6016 47.0988 15.6018 47.0092 15.6191 46.9221C15.6364 46.8351 15.6703 46.7523 15.719 46.6786C15.7677 46.6049 15.8302 46.5417 15.9029 46.4926L17.32 45.5326C17.3927 45.4835 17.4742 45.4494 17.5599 45.4324C17.6455 45.4153 17.7336 45.4155 17.8191 45.4331C17.9047 45.4507 17.9859 45.4853 18.0583 45.5348C18.1308 45.5844 18.1929 45.648 18.2412 45.722C18.2894 45.7959 18.3229 45.8788 18.3397 45.966C18.3564 46.0531 18.3562 46.1428 18.3389 46.2299C18.3216 46.3169 18.2877 46.3997 18.239 46.4733C18.1903 46.547 18.1278 46.6102 18.0552 46.6594L16.6381 47.6148C16.5299 47.6904 16.4018 47.7313 16.2705 47.732Z" fill="black"/>
<path d="M20.3798 62.8118C20.2236 62.8117 20.0726 62.7555 19.9531 62.6532C19.8335 62.5509 19.7532 62.4091 19.7263 62.2526C19.6993 62.096 19.7274 61.9348 19.8056 61.7973C19.8838 61.6597 20.0071 61.5546 20.1539 61.5004L21.8146 60.8874C21.9764 60.8422 22.1491 60.861 22.2978 60.94C22.4466 61.019 22.5605 61.1524 22.6165 61.3134C22.6726 61.4744 22.6668 61.651 22.6002 61.8077C22.5335 61.9645 22.4111 62.0897 22.2574 62.1584L20.5968 62.7713C20.5271 62.7969 20.4538 62.8106 20.3798 62.8118Z" fill="black"/>
<path d="M46.1001 36.0232C46.0153 36.0216 45.9313 36.0048 45.8521 35.9736C45.7686 35.9406 45.6926 35.8906 45.6285 35.8269C45.5645 35.7632 45.5138 35.6869 45.4794 35.6027C45.4451 35.5185 45.4279 35.4281 45.4287 35.3369C45.4296 35.2458 45.4486 35.1558 45.4846 35.0723L45.8743 34.0762C45.9069 33.9936 45.9551 33.9184 46.0162 33.8548C46.0773 33.7912 46.1502 33.7405 46.2306 33.7056C46.311 33.6706 46.3974 33.6521 46.4848 33.6512C46.5722 33.6502 46.6589 33.6668 46.74 33.6999C46.8212 33.7331 46.8951 33.7822 46.9576 33.8444C47.02 33.9066 47.0699 33.9807 47.1042 34.0625C47.1386 34.1443 47.1567 34.2322 47.1577 34.3212C47.1586 34.4102 47.1424 34.4984 47.1098 34.581L46.7201 35.5725C46.6741 35.7029 46.5901 35.816 46.4794 35.8965C46.3686 35.977 46.2363 36.0212 46.1001 36.0232Z" fill="black"/>
<path d="M43.656 56.3265C43.4798 56.3265 43.3108 56.2553 43.1863 56.1285C43.0617 56.0018 42.9917 55.8298 42.9917 55.6505V54.4562C42.9917 54.2769 43.0617 54.105 43.1863 53.9782C43.3108 53.8514 43.4798 53.7802 43.656 53.7802C43.8321 53.7802 44.0011 53.8514 44.1257 53.9782C44.2502 54.105 44.3202 54.2769 44.3202 54.4562V55.6731C44.3145 55.8484 44.242 56.0146 44.118 56.1366C43.994 56.2585 43.8284 56.3266 43.656 56.3265Z" fill="black"/>
<path d="M28.3022 63.4069C28.1511 63.4066 28.0046 63.3539 27.8868 63.2574C27.7691 63.1609 27.6872 63.0265 27.6547 62.8762C27.6222 62.726 27.641 62.5691 27.708 62.4312C27.775 62.2933 27.8862 62.1828 28.0232 62.1179L29.2942 61.5185C29.4545 61.4432 29.6377 61.4358 29.8034 61.4979C29.969 61.56 30.1037 61.6866 30.1776 61.8497C30.2516 62.0129 30.2589 62.1993 30.1979 62.3679C30.1368 62.5365 30.0125 62.6735 29.8522 62.7488L28.5812 63.3438C28.4941 63.386 28.3987 63.4076 28.3022 63.4069Z" fill="black"/>
<path d="M36.03 61.8023H35.9459C35.8592 61.7912 35.7755 61.7628 35.6996 61.7187C35.6237 61.6746 35.5571 61.6157 35.5037 61.5454C35.4502 61.475 35.4109 61.3946 35.388 61.3088C35.3651 61.223 35.359 61.1334 35.3702 61.0452L35.5651 59.4543C35.5758 59.3655 35.6036 59.2798 35.647 59.2019C35.6903 59.1241 35.7483 59.0557 35.8176 59.0007C35.8869 58.9457 35.9661 58.9051 36.0508 58.8812C36.1355 58.8573 36.224 58.8507 36.3112 58.8616C36.3985 58.8726 36.4827 58.9009 36.5592 58.945C36.6357 58.9891 36.7029 59.0481 36.7569 59.1186C36.811 59.1891 36.8509 59.2698 36.8744 59.356C36.8978 59.4422 36.9044 59.5323 36.8936 59.6211L36.6987 61.212C36.6781 61.3768 36.5985 61.5281 36.4751 61.637C36.3518 61.7459 36.1933 61.8048 36.03 61.8023Z" fill="black"/>
<path d="M41.5038 25.8693C41.3818 25.8701 41.262 25.8357 41.1583 25.7702C41.0078 25.676 40.9 25.525 40.8585 25.3502C40.8171 25.1754 40.8452 24.991 40.9369 24.8372L41.3311 24.1928C41.3738 24.1115 41.4325 24.04 41.5034 23.9826C41.5743 23.9253 41.6561 23.8833 41.7435 23.8592C41.831 23.8352 41.9224 23.8296 42.012 23.8429C42.1017 23.8561 42.1878 23.8879 42.2649 23.9362C42.3421 23.9846 42.4087 24.0485 42.4607 24.124C42.5126 24.1995 42.5489 24.285 42.5672 24.3753C42.5855 24.4656 42.5855 24.5588 42.5671 24.6491C42.5487 24.7394 42.5123 24.8249 42.4603 24.9003L42.0706 25.5448C42.0117 25.6441 41.9285 25.7262 41.8292 25.7831C41.7299 25.84 41.6178 25.8697 41.5038 25.8693Z" fill="black"/>
<path d="M45.7994 18.6043H45.6887L45.1041 18.5051C44.928 18.4758 44.7704 18.3765 44.6662 18.229C44.5619 18.0815 44.5196 17.898 44.5484 17.7187C44.5771 17.5394 44.6747 17.3791 44.8196 17.273C44.9645 17.1669 45.1449 17.1238 45.3211 17.1531L45.9101 17.2567C46.0863 17.2717 46.2494 17.3572 46.3636 17.4945C46.4778 17.6319 46.5337 17.8098 46.519 17.9891C46.5043 18.1684 46.4203 18.3344 46.2853 18.4506C46.1503 18.5668 45.9755 18.6237 45.7994 18.6088V18.6043Z" fill="black"/>
<path d="M50.6969 44.086C50.5591 44.0835 50.425 44.0395 50.3116 43.9598C50.1681 43.8548 50.0713 43.6964 50.0423 43.5191C50.0133 43.3418 50.0543 43.1599 50.1566 43.0133L50.6481 42.3193C50.6969 42.2425 50.7604 42.1766 50.8348 42.1256C50.9093 42.0745 50.9932 42.0393 51.0814 42.0222C51.1696 42.005 51.2603 42.0063 51.348 42.0258C51.4357 42.0453 51.5186 42.0827 51.5917 42.1358C51.6648 42.1889 51.7266 42.2564 51.7733 42.3345C51.8201 42.4125 51.8507 42.4994 51.8635 42.5898C51.8763 42.6803 51.871 42.7724 51.8478 42.8607C51.8246 42.949 51.7841 43.0316 51.7287 43.1035L51.2371 43.802C51.1761 43.89 51.0951 43.9617 51.0011 44.0111C50.907 44.0605 50.8027 44.0862 50.6969 44.086Z" fill="black"/>
<path d="M25.5615 41.4945C25.5071 41.5011 25.4521 41.5011 25.3976 41.4945L23.8787 41.0934C23.7169 41.0409 23.581 40.9274 23.4988 40.7761C23.4167 40.6248 23.3946 40.4473 23.4372 40.28C23.4797 40.1127 23.5836 39.9682 23.7275 39.8764C23.8713 39.7846 24.0443 39.7524 24.2108 39.7864L25.7298 40.183C25.817 40.1942 25.9012 40.2228 25.9775 40.2672C26.0539 40.3116 26.121 40.3708 26.1748 40.4416C26.2287 40.5123 26.2683 40.5931 26.2915 40.6794C26.3147 40.7658 26.3209 40.8558 26.3099 40.9446C26.2988 41.0334 26.2707 41.1191 26.2271 41.1968C26.1835 41.2745 26.1253 41.3427 26.0558 41.3976C25.9863 41.4524 25.9069 41.4927 25.822 41.5163C25.7372 41.5399 25.6487 41.5463 25.5615 41.535V41.4945Z" fill="black"/>
<path d="M12.4577 32.2374H10.9875C10.8113 32.2374 10.6424 32.1662 10.5178 32.0394C10.3932 31.9127 10.3232 31.7407 10.3232 31.5614C10.3232 31.3821 10.3932 31.2102 10.5178 31.0834C10.6424 30.9566 10.8113 30.8854 10.9875 30.8854H12.4577C12.6339 30.8854 12.8029 30.9566 12.9274 31.0834C13.052 31.2102 13.122 31.3821 13.122 31.5614C13.122 31.7407 13.052 31.9127 12.9274 32.0394C12.8029 32.1662 12.6339 32.2374 12.4577 32.2374Z" fill="black"/>
<path d="M32.7 15.9137C32.6295 15.9139 32.5592 15.9032 32.4918 15.8821L31.3183 15.481C31.2357 15.4514 31.1597 15.4055 31.0945 15.346C31.0294 15.2865 30.9763 15.2146 30.9385 15.1342C30.9007 15.0539 30.8788 14.9667 30.874 14.8777C30.8693 14.7888 30.8818 14.6997 30.9109 14.6157C30.94 14.5317 30.985 14.4543 31.0435 14.3879C31.102 14.3216 31.1727 14.2677 31.2516 14.2292C31.3306 14.1907 31.4162 14.1684 31.5036 14.1635C31.5911 14.1587 31.6786 14.1715 31.7612 14.2011L32.9347 14.5977C33.0835 14.6492 33.2096 14.7529 33.2904 14.8901C33.3712 15.0274 33.4016 15.1894 33.3761 15.3473C33.3506 15.5052 33.2709 15.6488 33.1512 15.7525C33.0314 15.8562 32.8793 15.9133 32.7221 15.9137H32.7Z" fill="black"/>
<path d="M18.4228 72.2537C18.2769 72.2529 18.1351 72.2032 18.0197 72.1122C17.9043 72.0212 17.8216 71.8941 17.7843 71.7505C17.7469 71.6068 17.7572 71.4547 17.8134 71.3175C17.8696 71.1804 17.9686 71.0659 18.0951 70.9918L19.4635 70.1941C19.6155 70.1149 19.7916 70.0982 19.9553 70.1477C20.119 70.1972 20.2577 70.3089 20.3427 70.4596C20.4276 70.6104 20.4521 70.7887 20.4113 70.9575C20.3705 71.1262 20.2673 71.2724 20.1233 71.3658L18.7505 72.1636C18.6507 72.2216 18.5378 72.2527 18.4228 72.2537Z" fill="black"/>
<path d="M32.1152 44.9783C32.0061 44.9784 31.8986 44.9514 31.8021 44.8996C31.7056 44.8477 31.6231 44.7726 31.5617 44.6808L31.1719 44.0814C31.1162 44.008 31.0759 43.9237 31.0535 43.8338C31.0311 43.7439 31.0272 43.6502 31.0419 43.5587C31.0567 43.4671 31.0897 43.3796 31.1391 43.3017C31.1885 43.2237 31.2531 43.1569 31.329 43.1054C31.4048 43.054 31.4903 43.0189 31.58 43.0025C31.6697 42.9861 31.7618 42.9887 31.8505 43.0101C31.9392 43.0314 32.0227 43.0712 32.0956 43.1268C32.1686 43.1824 32.2295 43.2527 32.2746 43.3333L32.6688 43.9282C32.7171 44.0021 32.7506 44.0851 32.7674 44.1723C32.7842 44.2594 32.7839 44.3491 32.7666 44.4361C32.7493 44.5232 32.7154 44.6059 32.6667 44.6796C32.618 44.7533 32.5555 44.8165 32.4828 44.8656C32.3742 44.9399 32.2461 44.9792 32.1152 44.9783Z" fill="black"/>
<path d="M42.8721 7.95008C42.7756 7.95128 42.6801 7.92968 42.5931 7.88698C42.5135 7.84972 42.442 7.7967 42.3827 7.73101C42.3235 7.66531 42.2777 7.58825 42.248 7.50435C42.2183 7.42044 42.2053 7.33137 42.2099 7.24231C42.2144 7.15325 42.2363 7.06596 42.2743 6.98561L43.2352 4.88546C43.2722 4.80496 43.3243 4.73264 43.3887 4.67266C43.4531 4.61267 43.5285 4.56617 43.6105 4.53583C43.6925 4.50549 43.7796 4.49192 43.8668 4.49584C43.954 4.49976 44.0396 4.52108 44.1187 4.55867C44.1978 4.59625 44.2689 4.64933 44.3278 4.71485C44.3867 4.78038 44.4324 4.85709 44.4622 4.94058C44.4921 5.02407 44.5054 5.11272 44.5015 5.20146C44.4977 5.29021 44.4767 5.37729 44.4398 5.45778L43.4744 7.55799C43.4216 7.67532 43.3367 7.77469 43.2299 7.84423C43.1231 7.91377 42.9989 7.95052 42.8721 7.95008Z" fill="black"/>
<path d="M57.3132 53.5188C57.2342 53.5191 57.156 53.5038 57.0829 53.4737L52.8714 51.8738C52.7807 51.8517 52.6956 51.8106 52.6216 51.7528C52.5475 51.6951 52.4863 51.6221 52.4418 51.5387C52.3973 51.4553 52.3706 51.3633 52.3633 51.2687C52.3561 51.1741 52.3686 51.079 52.3998 50.9896C52.4311 50.9001 52.4805 50.8184 52.5448 50.7497C52.6091 50.6811 52.687 50.6269 52.7733 50.5909C52.8595 50.5548 52.9523 50.5377 53.0455 50.5405C53.1387 50.5434 53.2303 50.5661 53.3143 50.6074L57.5257 52.2073C57.6732 52.2618 57.7971 52.3676 57.8752 52.5061C57.9534 52.6446 57.9809 52.8068 57.9528 52.9639C57.9246 53.1211 57.8427 53.263 57.7216 53.3646C57.6005 53.4661 57.4479 53.5208 57.291 53.5188H57.3132Z" fill="black"/>
</g>
<defs>
<clipPath id="clip0_5_1786">
<rect width="58" height="78" fill="white"/>
</clipPath>
</defs>
</svg>
