<svg width="76" height="68" viewBox="0 0 76 68" fill="none" xmlns="http://www.w3.org/2000/svg">
<g clip-path="url(#clip0_5_1817)">
<path d="M65.0709 32.4994H11.933C9.59366 32.4994 7.69727 34.3838 7.69727 36.7083V40.8322C7.69727 43.1568 9.59366 45.0412 11.933 45.0412H65.0709C67.4102 45.0412 69.3066 43.1568 69.3066 40.8322V36.7083C69.3066 34.3838 67.4102 32.4994 65.0709 32.4994Z" fill="#FBB900"/>
<path d="M71.7686 43.7306H18.6307C16.2914 43.7306 14.395 45.615 14.395 47.9395V52.0634C14.395 54.388 16.2914 56.2724 18.6307 56.2724H71.7686C74.108 56.2724 76.0044 54.388 76.0044 52.0634V47.9395C76.0044 45.615 74.108 43.7306 71.7686 43.7306Z" fill="#FBB900"/>
<path d="M61.4879 55.4539H8.34998C6.01066 55.4539 4.11426 57.3383 4.11426 59.6628V63.7867C4.11426 66.1112 6.01066 67.9956 8.34998 67.9956H61.4879C63.8272 67.9956 65.7236 66.1112 65.7236 63.7867V59.6628C65.7236 57.3383 63.8272 55.4539 61.4879 55.4539Z" fill="#FBB900"/>
<path d="M58.7332 66.6045H0.666406C0.487333 66.6045 0.315605 66.5339 0.188981 66.408C0.0623572 66.2822 -0.00878906 66.1116 -0.00878906 65.9336V54.112C-0.00878906 53.934 0.0623572 53.7634 0.188981 53.6375C0.315605 53.5117 0.487333 53.441 0.666406 53.441H58.7332C58.9123 53.441 59.084 53.5117 59.2107 53.6375C59.3373 53.7634 59.4084 53.934 59.4084 54.112V65.9336C59.4084 66.1116 59.3373 66.2822 59.2107 66.408C59.084 66.5339 58.9123 66.6045 58.7332 66.6045ZM1.35061 65.2627H58.067V54.7829H1.35061V65.2627Z" fill="black"/>
<path d="M68.2801 54.7829H10.2133C10.0342 54.7829 9.86247 54.7122 9.73584 54.5864C9.60922 54.4606 9.53809 54.2899 9.53809 54.112V42.2903C9.53809 42.1124 9.60922 41.9418 9.73584 41.8159C9.86247 41.6901 10.0342 41.6194 10.2133 41.6194H68.2801C68.4592 41.6194 68.6309 41.6901 68.7575 41.8159C68.8842 41.9418 68.9553 42.1124 68.9553 42.2903V54.112C68.9553 54.2899 68.8842 54.4606 68.7575 54.5864C68.6309 54.7122 68.4592 54.7829 68.2801 54.7829ZM10.8975 53.441H67.6139V42.9612H10.8975V53.441Z" fill="black"/>
<path d="M58.7332 42.9612H0.666406C0.487333 42.9612 0.315605 42.8906 0.188981 42.7647C0.0623572 42.6389 -0.00878906 42.4683 -0.00878906 42.2903V30.4687C-0.00878906 30.2908 0.0623572 30.1201 0.188981 29.9943C0.315605 29.8685 0.487333 29.7978 0.666406 29.7978H32.2205C32.3996 29.7978 32.5714 29.8685 32.698 29.9943C32.8246 30.1201 32.8957 30.2908 32.8957 30.4687C32.8957 30.6467 32.8246 30.8173 32.698 30.9431C32.5714 31.069 32.3996 31.1396 32.2205 31.1396H1.3416V41.6194H58.058V31.1396H54.8531C54.674 31.1396 54.5023 31.069 54.3757 30.9431C54.249 30.8173 54.1779 30.6467 54.1779 30.4687C54.1779 30.2908 54.249 30.1201 54.3757 29.9943C54.5023 29.8685 54.674 29.7978 54.8531 29.7978H58.7332C58.9123 29.7978 59.084 29.8685 59.2107 29.9943C59.3373 30.1201 59.4084 30.2908 59.4084 30.4687V42.2903C59.4084 42.4683 59.3373 42.6389 59.2107 42.7647C59.084 42.8906 58.9123 42.9612 58.7332 42.9612Z" fill="black"/>
<path d="M19.9589 42.9612C19.7798 42.9612 19.6081 42.8906 19.4814 42.7647C19.3548 42.6389 19.2837 42.4683 19.2837 42.2903V30.4687C19.2837 30.2908 19.3548 30.1201 19.4814 29.9943C19.6081 29.8685 19.7798 29.7978 19.9589 29.7978C20.138 29.7978 20.3097 29.8685 20.4363 29.9943C20.5629 30.1201 20.6341 30.2908 20.6341 30.4687V42.2903C20.6341 42.4683 20.5629 42.6389 20.4363 42.7647C20.3097 42.8906 20.138 42.9612 19.9589 42.9612Z" fill="black"/>
<path d="M39.2514 42.9613C39.0723 42.9613 38.9006 42.8906 38.7739 42.7648C38.6473 42.6389 38.5762 42.4683 38.5762 42.2903V36.4489C38.5762 36.2709 38.6473 36.1003 38.7739 35.9745C38.9006 35.8486 39.0723 35.778 39.2514 35.778C39.4304 35.778 39.6022 35.8486 39.7288 35.9745C39.8554 36.1003 39.9266 36.2709 39.9266 36.4489V42.2903C39.9266 42.4683 39.8554 42.6389 39.7288 42.7648C39.6022 42.8906 39.4304 42.9613 39.2514 42.9613Z" fill="black"/>
<path d="M29.704 54.7829C29.5249 54.7829 29.3532 54.7122 29.2266 54.5864C29.0999 54.4606 29.0288 54.2899 29.0288 54.112V42.2903C29.0288 42.1124 29.0999 41.9418 29.2266 41.8159C29.3532 41.6901 29.5249 41.6194 29.704 41.6194C29.8831 41.6194 30.0548 41.6901 30.1814 41.8159C30.3081 41.9418 30.3792 42.1124 30.3792 42.2903V54.112C30.3792 54.2899 30.3081 54.4606 30.1814 54.5864C30.0548 54.7122 29.8831 54.7829 29.704 54.7829Z" fill="black"/>
<path d="M49.1542 54.7829C48.9751 54.7829 48.8034 54.7122 48.6768 54.5864C48.5501 54.4606 48.479 54.2899 48.479 54.112V42.2903C48.479 42.1124 48.5501 41.9418 48.6768 41.8159C48.8034 41.6901 48.9751 41.6194 49.1542 41.6194C49.3333 41.6194 49.505 41.6901 49.6316 41.8159C49.7583 41.9418 49.8294 42.1124 49.8294 42.2903V54.112C49.8294 54.2899 49.7583 54.4606 49.6316 54.5864C49.505 54.7122 49.3333 54.7829 49.1542 54.7829Z" fill="black"/>
<path d="M19.9589 66.4391C19.7798 66.4391 19.6081 66.3683 19.4814 66.2425C19.3548 66.1167 19.2837 65.9461 19.2837 65.7681V54.112C19.2837 53.934 19.3548 53.7634 19.4814 53.6375C19.6081 53.5117 19.7798 53.441 19.9589 53.441C20.138 53.441 20.3097 53.5117 20.4363 53.6375C20.5629 53.7634 20.6341 53.934 20.6341 54.112V65.7681C20.6341 65.9461 20.5629 66.1167 20.4363 66.2425C20.3097 66.3683 20.138 66.4391 19.9589 66.4391Z" fill="black"/>
<path d="M39.4447 66.4391C39.2657 66.4391 39.0939 66.3683 38.9673 66.2425C38.8407 66.1167 38.7695 65.9461 38.7695 65.7681V54.112C38.7695 53.934 38.8407 53.7634 38.9673 53.6375C39.0939 53.5117 39.2657 53.441 39.4447 53.441C39.6238 53.441 39.7955 53.5117 39.9222 53.6375C40.0488 53.7634 40.1199 53.934 40.1199 54.112V65.7681C40.1199 65.9461 40.0488 66.1167 39.9222 66.2425C39.7955 66.3683 39.6238 66.4391 39.4447 66.4391Z" fill="black"/>
<path d="M4.58232 35.3575H0.675195C0.496122 35.3575 0.32438 35.2868 0.197756 35.161C0.0711325 35.0351 0 34.8645 0 34.6865C0 34.5086 0.0711325 34.338 0.197756 34.2122C0.32438 34.0864 0.496122 34.0156 0.675195 34.0156H4.58232C4.7614 34.0156 4.93314 34.0864 5.05976 34.2122C5.18639 34.338 5.25752 34.5086 5.25752 34.6865C5.25752 34.8645 5.18639 35.0351 5.05976 35.161C4.93314 35.2868 4.7614 35.3575 4.58232 35.3575Z" fill="black"/>
<path d="M14.3953 35.3575H8.59316C8.41409 35.3575 8.24235 35.2868 8.11572 35.161C7.9891 35.0351 7.91797 34.8645 7.91797 34.6865C7.91797 34.5086 7.9891 34.338 8.11572 34.2122C8.24235 34.0864 8.41409 34.0156 8.59316 34.0156H14.3953C14.5744 34.0156 14.7462 34.0864 14.8728 34.2122C14.9994 34.338 15.0705 34.5086 15.0705 34.6865C15.0705 34.8645 14.9994 35.0351 14.8728 35.161C14.7462 35.2868 14.5744 35.3575 14.3953 35.3575Z" fill="black"/>
<path d="M29.9832 39.4456C29.6404 39.4421 29.3043 39.3509 29.0073 39.1806C28.7104 39.0104 28.4626 38.7669 28.2879 38.4738C28.1133 38.1806 28.0176 37.8477 28.0102 37.5071C28.0028 37.1665 28.0839 36.8298 28.2457 36.5294L40.1246 14.5589C40.2824 14.2657 40.5121 14.0169 40.7926 13.8355C41.073 13.6542 41.3951 13.5462 41.7288 13.5217C42.0624 13.4971 42.397 13.5568 42.7012 13.6951C43.0055 13.8335 43.2696 14.046 43.4691 14.3129L55.393 30.2004C55.588 30.4604 55.7155 30.7641 55.7645 31.0847C55.8135 31.4053 55.7823 31.7329 55.6738 32.0387C55.5653 32.3445 55.3827 32.6191 55.1422 32.8383C54.9017 33.0575 54.6107 33.2145 54.2947 33.2955L30.4918 39.3786C30.3259 39.4225 30.1549 39.445 29.9832 39.4456ZM41.8711 14.8452H41.8306C41.7235 14.8534 41.6202 14.8884 41.5305 14.9471C41.4407 15.0058 41.3674 15.0861 41.3175 15.1806L29.4385 37.1511C29.3788 37.2599 29.3529 37.3838 29.3642 37.5072C29.3754 37.6306 29.4232 37.748 29.5015 37.8444C29.5758 37.943 29.6782 38.017 29.7954 38.0569C29.9127 38.0968 30.0393 38.1007 30.1587 38.068L53.9616 31.9805C54.0652 31.9576 54.161 31.9084 54.2398 31.8379C54.3187 31.7674 54.3779 31.6779 54.4118 31.578C54.4478 31.48 54.4585 31.3745 54.4428 31.2713C54.427 31.1682 54.3854 31.0706 54.3217 30.9876L42.3978 15.1002C42.3361 15.0206 42.256 14.9571 42.1643 14.9151C42.0726 14.873 41.972 14.8536 41.8711 14.8586V14.8452Z" fill="black"/>
<path d="M42.9335 28.2547C42.7918 28.2547 42.6537 28.2103 42.5387 28.128C42.4237 28.0457 42.3378 27.9295 42.293 27.7959C42.2481 27.6623 42.2468 27.5181 42.289 27.3837C42.3313 27.2493 42.415 27.1315 42.5284 27.047L50.9683 20.7851C51.5013 20.3893 51.9452 19.8873 52.2715 19.3111C52.5979 18.735 52.7995 18.0975 52.8634 17.4394L53.0254 15.78C53.0863 15.1477 53.2776 14.5346 53.5873 13.979C53.8971 13.4234 54.3187 12.9372 54.8259 12.5506L57.9768 10.1979C58.0478 10.1447 58.1286 10.106 58.2146 10.0839C58.3006 10.0617 58.3901 10.0566 58.4781 10.0689C58.5661 10.0811 58.6508 10.1105 58.7274 10.1553C58.8039 10.2001 58.8709 10.2594 58.9244 10.3299C58.9779 10.4003 59.0169 10.4806 59.0392 10.5661C59.0614 10.6515 59.0666 10.7405 59.0542 10.828C59.0419 10.9154 59.0123 10.9996 58.9673 11.0756C58.9222 11.1517 58.8625 11.2182 58.7916 11.2714L55.6407 13.6241C55.2775 13.8951 54.9751 14.2383 54.7527 14.6318C54.5303 15.0253 54.3927 15.4605 54.3488 15.9097L54.1868 17.5691C54.1029 18.4124 53.8435 19.2292 53.425 19.9676C53.0066 20.7061 52.4382 21.35 51.756 21.8585L43.3116 28.1205C43.2026 28.203 43.0705 28.2499 42.9335 28.2547Z" fill="black"/>
<path d="M60.3716 13.3558C60.2657 13.3556 60.1613 13.3309 60.0667 13.2835C59.9722 13.2361 59.89 13.1674 59.8269 13.0829L56.2259 8.26571C56.1212 8.12084 56.0776 7.9411 56.1044 7.76476C56.1152 7.67605 56.1444 7.59052 56.1901 7.51355C56.2358 7.43658 56.297 7.36983 56.3699 7.31748L65.3725 0.693219C65.7615 0.39519 66.2064 0.177309 66.6812 0.0523277C67.156 -0.0726538 67.6512 -0.102189 68.1376 -0.0345951C68.624 0.0329991 69.092 0.196383 69.5141 0.445992C69.9362 0.6956 70.3039 1.02639 70.5957 1.41901C70.8874 1.81164 71.0974 2.25817 71.2133 2.73246C71.3292 3.20676 71.3486 3.6993 71.2705 4.18116C71.1924 4.66301 71.0182 5.12449 70.7583 5.53862C70.4984 5.95275 70.1579 6.31118 69.7568 6.59288L60.7542 13.2171C60.6443 13.3019 60.5106 13.3504 60.3716 13.3558ZM57.7338 7.9884L60.5111 11.7321L68.9961 5.50597C69.4952 5.13846 69.8272 4.58919 69.9192 3.9787C70.0112 3.36822 69.8556 2.74646 69.4867 2.2498C69.117 1.75513 68.5651 1.42608 67.9518 1.33471C67.3385 1.24334 66.7138 1.39706 66.2143 1.76223L57.7338 7.9884Z" fill="black"/>
</g>
<defs>
<clipPath id="clip0_5_1817">
<rect width="76" height="68" fill="white"/>
</clipPath>
</defs>
</svg>
