<svg width="73" height="68" viewBox="0 0 73 68" fill="none" xmlns="http://www.w3.org/2000/svg">
<g clip-path="url(#clip0_5_1934)">
<path d="M57.3805 5.75464H10.1747C4.55565 5.75464 0.000488281 10.2967 0.000488281 15.8996V19.6163C0.000488281 25.2192 4.55565 29.7612 10.1747 29.7612H57.3805C62.9996 29.7612 67.5547 25.2192 67.5547 19.6163V15.8996C67.5547 10.2967 62.9996 5.75464 57.3805 5.75464Z" fill="#FBB900"/>
<path d="M38.1074 28.5765C29.4816 28.5765 14.848 28.4081 13.7501 27.8186C13.6713 27.7737 13.5587 27.7232 13.4123 27.6559C7.51154 24.8937 4.51611 20.2226 4.51611 13.7606C4.51611 3.25627 14.8875 0.0953512 14.9888 0.0616656C15.0689 0.0367762 15.1526 0.0253585 15.2365 0.0279471L45.7536 0.336759C46.6328 0.34709 47.4726 0.702204 48.0911 1.32529C48.7097 1.94837 49.0572 2.78926 49.0587 3.66598V15.7479C49.0587 15.9712 48.9697 16.1855 48.8113 16.3435C48.6529 16.5014 48.4381 16.59 48.2141 16.59C47.9901 16.59 47.7753 16.5014 47.617 16.3435C47.4586 16.1855 47.3695 15.9712 47.3695 15.7479V3.66598C47.3695 3.23261 47.1981 2.81674 46.8923 2.50872C46.5866 2.20071 46.1713 2.02548 45.7367 2.02104L15.3323 1.71223C14.2062 2.07154 6.18278 4.97985 6.18278 13.7606C6.18278 19.5096 8.85159 23.6697 14.1104 26.1119C14.2625 26.1849 14.3863 26.241 14.4764 26.2915C15.8615 26.662 29.6786 26.8529 38.0905 26.8529C38.3145 26.8529 38.5294 26.9417 38.6877 27.0997C38.8461 27.2576 38.9351 27.4717 38.9351 27.6951C38.9351 27.9184 38.8461 28.1327 38.6877 28.2906C38.5294 28.4486 38.3145 28.5372 38.0905 28.5372L38.1074 28.5765Z" fill="black"/>
<path d="M62.2733 23.9224H48.1971C47.9731 23.9224 47.7583 23.8337 47.5999 23.6758C47.4415 23.5179 47.3525 23.3036 47.3525 23.0802V19.7117C47.3525 19.4883 47.4415 19.2742 47.5999 19.1163C47.7583 18.9583 47.9731 18.8695 48.1971 18.8695C48.4211 18.8695 48.6359 18.9583 48.7943 19.1163C48.9527 19.2742 49.0417 19.4883 49.0417 19.7117V22.2212H62.1156L70.3248 19.3356C70.6078 19.2358 70.8528 19.0511 71.0262 18.8068C71.1997 18.5625 71.293 18.2706 71.2933 17.9713V7.19184C71.2926 6.8934 71.1998 6.6024 71.0275 6.35833C70.8553 6.11427 70.6119 5.92901 70.3304 5.82761L61.4287 2.64436H48.3379C48.1139 2.64436 47.8991 2.55557 47.7407 2.39764C47.5823 2.23971 47.4933 2.02557 47.4933 1.80222C47.4933 1.57887 47.5823 1.3646 47.7407 1.20667C47.8991 1.04873 48.1139 0.960083 48.3379 0.960083H61.6201C61.7162 0.960036 61.8116 0.977061 61.9016 1.01052L70.9497 4.24435C71.5581 4.46274 72.0842 4.86299 72.456 5.3905C72.8278 5.91801 73.0274 6.54707 73.0274 7.19184V17.9713C73.0257 18.6187 72.8236 19.2498 72.4487 19.7783C72.0738 20.3068 71.5445 20.7071 70.9329 20.9244L62.5829 23.8551C62.4852 23.8978 62.3799 23.9206 62.2733 23.9224Z" fill="black"/>
<path d="M40.0781 68H10.293C10.0719 68 9.85961 67.9136 9.7017 67.7593C9.54379 67.605 9.45285 67.3951 9.44842 67.1747C9.44842 66.6806 9.20631 54.9468 9.44842 51.4154C9.65112 48.5072 12.3594 45.8349 14.7411 43.4769C15.5575 42.6741 16.3289 41.9105 16.9201 41.2312C18.9414 38.8507 18.4403 34.8701 18.4347 34.8308C18.4058 34.6363 18.4456 34.4379 18.5473 34.2694C17.359 33.9517 16.2402 33.4169 15.2478 32.6919C12.8211 30.8448 12.8605 27.3696 12.8662 27.2236C12.8691 27.0027 12.9595 26.792 13.1178 26.6374C13.276 26.4828 13.4892 26.3968 13.7107 26.3983C13.8216 26.4005 13.931 26.4244 14.0327 26.4688C14.1343 26.5131 14.2261 26.5771 14.303 26.6568C14.3798 26.7366 14.4402 26.8307 14.4806 26.9337C14.521 27.0367 14.5406 27.1466 14.5384 27.2572C14.5384 27.2572 14.5384 30.0307 16.2275 31.35C17.9167 32.6694 20.7657 33.3038 24.6338 33.3038H28.9636C29.1876 33.3038 29.4024 33.3926 29.5608 33.5505C29.7192 33.7084 29.8082 33.9226 29.8082 34.1459V41.3378H40.7144C40.9398 41.339 41.1558 41.4275 41.3168 41.5848C41.3945 41.6632 41.4559 41.7561 41.4974 41.8583C41.539 41.9604 41.5599 42.0698 41.5589 42.18V46.9577C41.5576 47.1768 41.4713 47.3868 41.318 47.5438C41.1648 47.7008 40.9565 47.7926 40.7369 47.7998L31.4748 48.0412H24.9885C24.7295 48.0412 18.6148 48.148 18.6148 54.5538C18.5686 55.3114 18.6865 56.0701 18.9605 56.7783C19.2344 57.4864 19.6581 58.1275 20.2026 58.6579C22.3591 60.6117 25.9851 60.2916 26.0245 60.286H36.5478C36.666 60.2875 36.7827 60.3123 36.8913 60.359C40.4047 61.9142 41.0747 65.5354 40.934 67.2309C40.9168 67.4438 40.8185 67.642 40.6594 67.7851C40.5003 67.9281 40.2923 68.005 40.0781 68ZM11.1263 66.3157H39.2167C39.1669 65.4027 38.8756 64.5191 38.3722 63.7549C37.8688 62.9906 37.1713 62.3729 36.3508 61.9646H26.1484C25.6585 62.0039 21.644 62.2454 19.0709 59.8986C17.6521 58.613 16.9313 56.8164 16.9313 54.5538C16.9313 46.4468 24.9153 46.3569 24.9941 46.3569H31.4579L39.8754 46.1324V43.0165H28.9636C28.7396 43.0165 28.5248 42.9278 28.3664 42.7699C28.208 42.612 28.119 42.3977 28.119 42.1743V34.9824H24.7014C23.1716 34.9981 21.6434 34.8779 20.135 34.6232C20.1913 35.0948 20.6587 39.4458 18.2319 42.3035C17.5957 43.0558 16.7962 43.8418 15.9797 44.6727C13.8008 46.8229 11.3347 49.2595 11.177 51.5333C10.9462 54.4583 11.0756 63.5254 11.1263 66.3157Z" fill="black"/>
<path d="M33.1525 61.8075C33.0188 61.8086 32.8871 61.7758 32.7696 61.7121C32.5613 61.6055 27.6685 59.051 27.5727 54.5708C27.4489 48.6084 33.282 46.4245 33.344 46.402C33.5497 46.3457 33.7692 46.3691 33.9584 46.4675C34.1475 46.566 34.2923 46.7321 34.3636 46.9326C34.4349 47.1331 34.4275 47.3532 34.3428 47.5484C34.2581 47.7437 34.1024 47.8998 33.907 47.9853C33.7043 48.0639 29.1493 49.7986 29.245 54.5371C29.3182 58.0067 33.4847 60.1963 33.5241 60.2188C33.7206 60.3207 33.8691 60.4955 33.9375 60.7055C34.006 60.9155 33.9889 61.144 33.8901 61.3416C33.8209 61.4785 33.7158 61.5942 33.5859 61.6762C33.456 61.7583 33.3062 61.8036 33.1525 61.8075Z" fill="black"/>
<path d="M47.8088 7.09639H30.5008C30.2768 7.09639 30.062 7.00774 29.9036 6.84981C29.7452 6.69187 29.6562 6.4776 29.6562 6.25425C29.6562 6.0309 29.7452 5.81676 29.9036 5.65883C30.062 5.5009 30.2768 5.41211 30.5008 5.41211H47.8088C48.0328 5.41211 48.2477 5.5009 48.406 5.65883C48.5644 5.81676 48.6534 6.0309 48.6534 6.25425C48.6534 6.4776 48.5644 6.69187 48.406 6.84981C48.2477 7.00774 48.0328 7.09639 47.8088 7.09639Z" fill="black"/>
<path d="M45.3651 23.9224H20.1575C20.0674 23.9224 11.543 22.7154 11.543 14.5073C11.543 11.644 12.4269 9.38149 14.1667 7.77019C17.2578 4.92376 21.8974 5.25503 22.0944 5.27187C22.205 5.28107 22.3126 5.31192 22.4112 5.36261C22.5098 5.4133 22.5974 5.48279 22.669 5.56725C22.7407 5.65171 22.7949 5.74945 22.8287 5.85482C22.8625 5.96018 22.8751 6.07122 22.8658 6.18145C22.858 6.2917 22.8283 6.3993 22.7782 6.49793C22.7282 6.59657 22.659 6.68427 22.5746 6.75589C22.4902 6.82752 22.3923 6.8816 22.2866 6.91503C22.181 6.94846 22.0697 6.96051 21.9593 6.95053C21.9199 6.95053 17.8434 6.66978 15.3097 9.01654C13.9303 10.2854 13.2321 12.1325 13.2321 14.5017C13.2321 21.0255 19.6339 22.1371 20.3208 22.2382H45.3651C45.5891 22.2382 45.8039 22.327 45.9623 22.4849C46.1207 22.6428 46.2097 22.857 46.2097 23.0803C46.2097 23.3037 46.1207 23.5179 45.9623 23.6759C45.8039 23.8338 45.5891 23.9224 45.3651 23.9224Z" fill="black"/>
<path d="M61.2992 23.0297C61.0752 23.0297 60.8603 22.941 60.702 22.783C60.5436 22.6251 60.4546 22.411 60.4546 22.1876V2.41404C60.4546 2.19069 60.5436 1.97655 60.702 1.81862C60.8603 1.66069 61.0752 1.5719 61.2992 1.5719C61.5232 1.5719 61.7379 1.66069 61.8963 1.81862C62.0547 1.97655 62.1437 2.19069 62.1437 2.41404V22.1876C62.1437 22.411 62.0547 22.6251 61.8963 22.783C61.7379 22.941 61.5232 23.0297 61.2992 23.0297Z" fill="black"/>
<path d="M61.2996 11.4363H52.2909C52.0669 11.4363 51.852 11.3476 51.6937 11.1897C51.5353 11.0318 51.4463 10.8175 51.4463 10.5941V6.68101C51.4463 6.45766 51.5353 6.24352 51.6937 6.08559C51.852 5.92766 52.0669 5.83887 52.2909 5.83887H61.2996C61.5236 5.83887 61.7383 5.92766 61.8967 6.08559C62.0551 6.24352 62.1442 6.45766 62.1442 6.68101V10.611C62.1397 10.8314 62.0488 11.0413 61.8909 11.1956C61.733 11.3499 61.5207 11.4363 61.2996 11.4363ZM53.1298 9.75199H60.4494V7.53439H53.1298V9.75199Z" fill="black"/>
<path d="M61.2996 19.504H52.2909C52.0669 19.504 51.852 19.4152 51.6937 19.2573C51.5353 19.0994 51.4463 18.8852 51.4463 18.6619V14.7319C51.4463 14.5086 51.5353 14.2943 51.6937 14.1364C51.852 13.9784 52.0669 13.8898 52.2909 13.8898H61.2996C61.5236 13.8898 61.7383 13.9784 61.8967 14.1364C62.0551 14.2943 62.1442 14.5086 62.1442 14.7319V18.6619C62.1442 18.8852 62.0551 19.0994 61.8967 19.2573C61.7383 19.4152 61.5236 19.504 61.2996 19.504ZM53.1298 17.8198H60.4494V15.5741H53.1298V17.8198Z" fill="black"/>
<path d="M42.5836 13.8223H24.493C24.269 13.8223 24.0542 13.7336 23.8958 13.5757C23.7374 13.4178 23.6484 13.2035 23.6484 12.9801V9.05015C23.6484 8.8268 23.7374 8.61266 23.8958 8.45473C24.0542 8.2968 24.269 8.20801 24.493 8.20801H42.5836C42.8076 8.20801 43.0224 8.2968 43.1808 8.45473C43.3392 8.61266 43.4282 8.8268 43.4282 9.05015V12.9801C43.4282 13.2035 43.3392 13.4178 43.1808 13.5757C43.0224 13.7336 42.8076 13.8223 42.5836 13.8223ZM25.3376 12.138H41.739V9.89229H25.3376V12.138Z" fill="black"/>
<path d="M42.5836 20.1553H24.493C24.269 20.1553 24.0542 20.0665 23.8958 19.9085C23.7374 19.7506 23.6484 19.5365 23.6484 19.3131V15.4112C23.6484 15.1879 23.7374 14.9736 23.8958 14.8157C24.0542 14.6577 24.269 14.5691 24.493 14.5691H42.5836C42.8076 14.5691 43.0224 14.6577 43.1808 14.8157C43.3392 14.9736 43.4282 15.1879 43.4282 15.4112V19.3131C43.4282 19.5365 43.3392 19.7506 43.1808 19.9085C43.0224 20.0665 42.8076 20.1553 42.5836 20.1553ZM25.3376 18.471H41.739V16.2534H25.3376V18.471Z" fill="black"/>
<path d="M41.6659 42.9827C41.4423 42.9813 41.2283 42.8921 41.0702 42.7345C40.9122 42.5769 40.8228 42.3635 40.8213 42.1406V34.9207C40.8213 29.8005 43.6365 27.9534 44.9315 27.3752V23.0802C44.9315 22.8568 45.0205 22.6427 45.1788 22.4848C45.3372 22.3268 45.5521 22.238 45.7761 22.238C46 22.238 46.2149 22.3268 46.3733 22.4848C46.5316 22.6427 46.6206 22.8568 46.6206 23.0802V27.9533C46.6204 28.1409 46.5579 28.3231 46.4427 28.4714C46.3276 28.6198 46.1664 28.7259 45.9844 28.7731C45.8492 28.8068 42.5104 29.7612 42.5104 34.9488V42.1687C42.5031 42.3871 42.4109 42.5942 42.2533 42.7461C42.0957 42.8981 41.8851 42.9828 41.6659 42.9827Z" fill="black"/>
<path d="M41.5477 40.7201H37.8203C37.7753 40.7201 33.5749 40.6585 33.5749 35.2351C33.5376 34.5486 33.6485 33.862 33.9001 33.2218C34.1517 32.5816 34.5381 32.0026 35.0333 31.524C36.1915 30.5836 37.6644 30.116 39.1547 30.2159H41.666C41.89 30.2159 42.1047 30.3047 42.2631 30.4626C42.4215 30.6205 42.5105 30.8347 42.5105 31.058C42.5105 31.2814 42.4215 31.4956 42.2631 31.6536C42.1047 31.8115 41.89 31.9002 41.666 31.9002H39.0534C39.0534 31.9002 37.2629 31.7711 36.165 32.776C35.8496 33.1007 35.6064 33.4879 35.4512 33.9126C35.2959 34.3372 35.2322 34.7899 35.2641 35.2408C35.2641 38.8844 37.567 39.0359 37.826 39.0415H41.5477C41.7717 39.0415 41.9865 39.1303 42.1449 39.2882C42.3033 39.4461 42.3923 39.6603 42.3923 39.8836C42.3923 40.107 42.3033 40.3213 42.1449 40.4792C41.9865 40.6371 41.7717 40.7258 41.5477 40.7258V40.7201Z" fill="black"/>
</g>
<defs>
<clipPath id="clip0_5_1934">
<rect width="73" height="68" fill="white"/>
</clipPath>
</defs>
</svg>
