<svg width="300" height="146" viewBox="0 0 378 146" fill="none" xmlns="http://www.w3.org/2000/svg">
<path d="M100 84H116.6V114.4H100V143H65.8V114.4H0.8V78.4L61.6 2.99999H100V84ZM32.8 84H67.2V42.8H61.6L32.8 78.4V84ZM148.187 18.2C158.587 6.19999 172.321 0.199991 189.387 0.199991C206.454 0.199991 220.188 6.19999 230.587 18.2C240.988 30.2 246.188 48.4 246.188 72.8C246.188 97.2 240.988 115.467 230.587 127.6C220.188 139.6 206.454 145.6 189.387 145.6C172.321 145.6 158.587 139.6 148.187 127.6C137.787 115.467 132.587 97.2 132.587 72.8C132.587 48.4 137.787 30.2 148.187 18.2ZM168.387 72.8C168.387 100.4 175.387 114.2 189.387 114.2C203.388 114.2 210.388 100.4 210.388 72.8C210.388 45.3333 203.388 31.6 189.387 31.6C175.387 31.6 168.387 45.3333 168.387 72.8ZM361.119 84H377.719V114.4H361.119V143H326.919V114.4H261.919V78.4L322.719 2.99999H361.119V84ZM293.919 84H328.319V42.8H322.719L293.919 78.4V84Z" fill="#939299" fill-opacity="0.46"/>
</svg>
