<svg width="300" height="146" viewBox="0 0 374 146" fill="none" xmlns="http://www.w3.org/2000/svg">
<path d="M66 47C78.2667 47 88.8 51.3333 97.6 60C106.4 68.5333 110.8 79.9333 110.8 94.2C110.8 109.267 105.6 121.6 95.2 131.2C84.9333 140.8 72.0667 145.6 56.6 145.6C39.9333 145.6 26.6 141.2 16.6 132.4C6.73333 123.6 1.4 112.267 0.6 98.4H36.4C38.1333 109.467 44.4667 115 55.4 115C61.5333 115 66.3333 113.133 69.8 109.4C73.2667 105.533 75 100.667 75 94.8C75 87.8667 73.1333 82.7333 69.4 79.4C65.8 75.9333 61.1333 74.2 55.4 74.2C47.4 74.2 41.2 77.1333 36.8 83H4.2L10.4 2.99999H100.8V32.6H37.8L36.4 54.4H42C48.2667 49.4667 56.2667 47 66 47ZM143.82 18.2C154.22 6.19999 167.954 0.199991 185.02 0.199991C202.087 0.199991 215.82 6.19999 226.22 18.2C236.62 30.2 241.82 48.4 241.82 72.8C241.82 97.2 236.62 115.467 226.22 127.6C215.82 139.6 202.087 145.6 185.02 145.6C167.954 145.6 154.22 139.6 143.82 127.6C133.42 115.467 128.22 97.2 128.22 72.8C128.22 48.4 133.42 30.2 143.82 18.2ZM164.02 72.8C164.02 100.4 171.02 114.2 185.02 114.2C199.02 114.2 206.02 100.4 206.02 72.8C206.02 45.3333 199.02 31.6 185.02 31.6C171.02 31.6 164.02 45.3333 164.02 72.8ZM275.552 18.2C285.952 6.19999 299.685 0.199991 316.752 0.199991C333.818 0.199991 347.552 6.19999 357.952 18.2C368.352 30.2 373.552 48.4 373.552 72.8C373.552 97.2 368.352 115.467 357.952 127.6C347.552 139.6 333.818 145.6 316.752 145.6C299.685 145.6 285.952 139.6 275.552 127.6C265.152 115.467 259.952 97.2 259.952 72.8C259.952 48.4 265.152 30.2 275.552 18.2ZM295.752 72.8C295.752 100.4 302.752 114.2 316.752 114.2C330.752 114.2 337.752 100.4 337.752 72.8C337.752 45.3333 330.752 31.6 316.752 31.6C302.752 31.6 295.752 45.3333 295.752 72.8Z" fill="#939299" fill-opacity="0.46"/>
</svg>
