<svg viewBox="0 0 91 91" xml:space="preserve" xmlns="http://www.w3.org/2000/svg"><g fill="#000000" class="fill-647f94"><path d="M85.713 12.142H5.861a4.175 4.175 0 0 1 0-8.35h79.852a4.174 4.174 0 0 1 0 8.35zM85.713 49.858H5.861a4.175 4.175 0 0 1-4.174-4.175 4.175 4.175 0 0 1 4.174-4.176h79.852a4.175 4.175 0 0 1 4.174 4.176 4.175 4.175 0 0 1-4.174 4.175zM85.713 87.571H5.861c-2.305 0-4.174-1.869-4.174-4.176s1.869-4.176 4.174-4.176h79.852c2.305 0 4.174 1.869 4.174 4.176s-1.869 4.176-4.174 4.176z"></path></g></svg>