<svg xmlns="http://www.w3.org/2000/svg" width="20" height="20" viewBox="0 0 20 20" fill="none">
<path fill-rule="evenodd" clip-rule="evenodd" d="M9.99992 2.49999C5.85778 2.49999 2.49992 5.85786 2.49992 9.99999C2.49992 14.1421 5.85778 17.5 9.99992 17.5C14.1421 17.5 17.4999 14.1421 17.4999 9.99999C17.4999 5.85786 14.1421 2.49999 9.99992 2.49999ZM0.833252 9.99999C0.833252 4.93738 4.93731 0.833328 9.99992 0.833328C15.0625 0.833328 19.1666 4.93738 19.1666 9.99999C19.1666 15.0626 15.0625 19.1667 9.99992 19.1667C4.93731 19.1667 0.833252 15.0626 0.833252 9.99999Z" fill="black"/>
<path fill-rule="evenodd" clip-rule="evenodd" d="M9.99984 4.16666C10.4601 4.16666 10.8332 4.53975 10.8332 4.99999V9.48496L13.7058 10.9213C14.1175 11.1271 14.2844 11.6277 14.0785 12.0393C13.8727 12.451 13.3721 12.6178 12.9605 12.412L9.62716 10.7453C9.34484 10.6042 9.1665 10.3156 9.1665 9.99999V4.99999C9.1665 4.53975 9.5396 4.16666 9.99984 4.16666Z" fill="black"/>
</svg>