<svg xmlns="http://www.w3.org/2000/svg" width="20" height="16" viewBox="0 0 20 16" fill="none">
<path fill-rule="evenodd" clip-rule="evenodd" d="M2.58873 2.62829C2.72655 2.35577 3.00995 2.16667 3.33325 2.16667H16.6666C16.9899 2.16667 17.2733 2.35577 17.4111 2.62829L9.99992 7.81612L2.58873 2.62829ZM2.49992 4.60055V13C2.49992 13.4564 2.87682 13.8333 3.33325 13.8333H16.6666C17.123 13.8333 17.4999 13.4564 17.4999 13V4.60054L10.4778 9.51603C10.1909 9.71688 9.80896 9.71688 9.52203 9.51603L2.49992 4.60055ZM3.33325 0.5C1.95635 0.5 0.833252 1.6231 0.833252 3V13C0.833252 14.3769 1.95635 15.5 3.33325 15.5H16.6666C18.0435 15.5 19.1666 14.3769 19.1666 13V3C19.1666 1.6231 18.0435 0.5 16.6666 0.5H3.33325Z" fill="black"/>
</svg>