<svg width="33" height="21" viewBox="0 0 33 21" fill="none" xmlns="http://www.w3.org/2000/svg">
<path d="M19.8864 10.5586C19.8864 16.1139 15.4347 20.6173 9.94321 20.6173C4.45173 20.6173 0 16.1139 0 10.5586C0 5.0034 4.45173 0.5 9.94321 0.5C15.4347 0.5 19.8864 5.0034 19.8864 10.5586Z" fill="#ED0006"/>
<path d="M32.7858 10.5586C32.7858 16.1139 28.3341 20.6173 22.8426 20.6173C17.3511 20.6173 12.8994 16.1139 12.8994 10.5586C12.8994 5.0034 17.3511 0.5 22.8426 0.5C28.3341 0.5 32.7858 5.0034 32.7858 10.5586Z" fill="#0099DF"/>
<path fill-rule="evenodd" clip-rule="evenodd" d="M16.3929 2.90283C18.5308 4.74777 19.8864 7.49301 19.8864 10.5586C19.8864 13.6241 18.5308 16.3693 16.3929 18.2143C14.255 16.3693 12.8994 13.6241 12.8994 10.5586C12.8994 7.49301 14.255 4.74777 16.3929 2.90283Z" fill="#6C6BBD"/>
</svg>
