<svg width="24" height="24" viewBox="0 0 24 24" fill="none" xmlns="http://www.w3.org/2000/svg">
<path fill-rule="evenodd" clip-rule="evenodd" d="M3.10658 5.55395C3.27196 5.22692 3.61204 5 4 5H20C20.388 5 20.728 5.22692 20.8934 5.55395L12 11.7793L3.10658 5.55395ZM3 7.92066V18C3 18.5477 3.45228 19 4 19H20C20.5477 19 21 18.5477 21 18V7.92065L12.5735 13.8192C12.2291 14.0603 11.7709 14.0603 11.4265 13.8192L3 7.92066ZM4 3C2.34772 3 1 4.34772 1 6V18C1 19.6523 2.34772 21 4 21H20C21.6523 21 23 19.6523 23 18V6C23 4.34772 21.6523 3 20 3H4Z" fill="#FBB900"/>
</svg>
