<svg width="34" height="21" viewBox="0 0 34 21" fill="none" xmlns="http://www.w3.org/2000/svg">
<path fill-rule="evenodd" clip-rule="evenodd" d="M16.7685 18.244C14.9925 19.7411 12.6886 20.6449 10.171 20.6449C4.55373 20.6449 0 16.1454 0 10.5949C0 5.04446 4.55373 0.544922 10.171 0.544922C12.6886 0.544922 14.9925 1.4487 16.7685 2.9458C18.5446 1.4487 20.8485 0.544922 23.366 0.544922C28.9834 0.544922 33.5371 5.04446 33.5371 10.5949C33.5371 16.1454 28.9834 20.6449 23.366 20.6449C20.8485 20.6449 18.5446 19.7411 16.7685 18.244Z" fill="#ED0006"/>
<path fill-rule="evenodd" clip-rule="evenodd" d="M16.7683 18.2443C18.9553 16.4009 20.3421 13.6579 20.3421 10.5949C20.3421 7.53191 18.9553 4.78895 16.7683 2.94559C18.5444 1.44861 20.8482 0.544922 23.3656 0.544922C28.9829 0.544922 33.5366 5.04446 33.5366 10.5949C33.5366 16.1454 28.9829 20.6449 23.3656 20.6449C20.8482 20.6449 18.5444 19.7412 16.7683 18.2443Z" fill="#F9A000"/>
<path fill-rule="evenodd" clip-rule="evenodd" d="M16.7686 18.244C18.9554 16.4007 20.3421 13.6578 20.3421 10.5949C20.3421 7.53202 18.9554 4.78916 16.7686 2.9458C14.5817 4.78916 13.1951 7.53202 13.1951 10.5949C13.1951 13.6578 14.5817 16.4007 16.7686 18.244Z" fill="#FF5E00"/>
</svg>
