<svg width="28" height="24" viewBox="0 0 28 24" fill="none" xmlns="http://www.w3.org/2000/svg">
<path fill-rule="evenodd" clip-rule="evenodd" d="M22.1667 10C23.4553 10 24.5 10.8954 24.5 12C24.5 13.1046 23.4553 14 22.1667 14C20.878 14 19.8333 13.1046 19.8333 12C19.8333 10.8954 20.878 10 22.1667 10ZM14 10C15.2887 10 16.3333 10.8954 16.3333 12C16.3333 13.1046 15.2887 14 14 14C12.7113 14 11.6667 13.1046 11.6667 12C11.6667 10.8954 12.7113 10 14 10ZM8.16667 12C8.16667 10.8954 7.122 10 5.83333 10C4.54467 10 3.5 10.8954 3.5 12C3.5 13.1046 4.54467 14 5.83333 14C7.122 14 8.16667 13.1046 8.16667 12Z" fill="#6C757D"/>
</svg>
