<svg xmlns="http://www.w3.org/2000/svg" width="18" height="20" viewBox="0 0 18 20" fill="none">
<path fill-rule="evenodd" clip-rule="evenodd" d="M4.28604 3.61929C5.53628 2.36905 7.23197 1.66667 9.00008 1.66667C10.7682 1.66667 12.4639 2.36905 13.7141 3.61929C14.9644 4.86953 15.6667 6.56522 15.6667 8.33333C15.6667 10.915 13.987 13.4202 12.1451 15.3644C11.2412 16.3185 10.3345 17.0996 9.65285 17.6424C9.39915 17.8444 9.17756 18.0127 9.00008 18.1438C8.8226 18.0127 8.60101 17.8444 8.34731 17.6424C7.66564 17.0996 6.75892 16.3185 5.85504 15.3644C4.0132 13.4202 2.33341 10.915 2.33341 8.33333C2.33341 6.56522 3.03579 4.86953 4.28604 3.61929ZM8.53738 19.8597C8.53738 19.8597 8.53783 19.86 9.00008 19.1667L9.46233 19.86C9.18242 20.0467 8.8173 20.0464 8.53738 19.8597ZM8.53738 19.8597L9.00008 19.1667C9.46233 19.86 9.46341 19.8593 9.46341 19.8593L9.46517 19.8582L9.47072 19.8544L9.48982 19.8415C9.50604 19.8305 9.52919 19.8147 9.55878 19.7942C9.61797 19.7532 9.70303 19.6934 9.81026 19.616C10.0246 19.4612 10.3281 19.2352 10.6911 18.9462C11.4156 18.3692 12.3839 17.5357 13.355 16.5106C15.2632 14.4965 17.3334 11.585 17.3334 8.33333C17.3334 6.1232 16.4554 4.00358 14.8926 2.44078C13.3298 0.877974 11.2102 0 9.00008 0C6.78994 0 4.67033 0.877974 3.10752 2.44078C1.54472 4.00358 0.666748 6.1232 0.666748 8.33333C0.666748 11.585 2.73697 14.4965 4.64512 16.5106C5.61624 17.5357 6.58453 18.3692 7.3091 18.9462C7.67205 19.2352 7.97554 19.4612 8.18991 19.616C8.29713 19.6934 8.38219 19.7532 8.44138 19.7942C8.47098 19.8147 8.49412 19.8305 8.51035 19.8415L8.52945 19.8544L8.535 19.8582L8.53738 19.8597ZM7.33342 8.33333C7.33342 7.41286 8.07961 6.66667 9.00008 6.66667C9.92056 6.66667 10.6667 7.41286 10.6667 8.33333C10.6667 9.25381 9.92056 10 9.00008 10C8.07961 10 7.33342 9.25381 7.33342 8.33333ZM9.00008 5C7.15913 5 5.66675 6.49238 5.66675 8.33333C5.66675 10.1743 7.15913 11.6667 9.00008 11.6667C10.841 11.6667 12.3334 10.1743 12.3334 8.33333C12.3334 6.49238 10.841 5 9.00008 5Z" fill="black"/>
</svg>