<svg xmlns="http://www.w3.org/2000/svg" width="24" height="24" viewBox="0 0 448 448" fill="none">
    <path d="M184.2 145.1C184.2 123 202.1 105.1 224 105.1C245.9 105.1 263.8 123 263.8 145.1C263.8 167.1 245.9 184.9 224 184.9C202.1 184.9 184.2 167 184.2 145.1V145.1ZM448 48V400C448 426.5 426.5 448 400 448H48C21.5 448 0 426.5 0 400V48C0 21.5 21.5 0 48 0H400C426.5 0 448 21.5 448 48ZM142.9 145.1C142.9 189.7 179.3 226 224 226C268.7 226 305.1 189.8 305.1 145.1C305.1 100.3 268.7 64 224 64C179.3 64 142.9 100.2 142.9 145.1ZM317.4 235.8C312.8 226.7 300.1 219 283.3 232.2C283.3 232.2 260.6 250.2 224 250.2C187.4 250.2 164.7 232.2 164.7 232.2C147.9 219 135.2 226.7 130.6 235.8C122.7 251.9 131.7 259.5 152 272.8C169.3 283.9 193.2 288 208.6 289.6L195.7 302.5C177.5 320.5 160.2 338 148 350.2C130.4 367.8 158.7 396 176.4 378.8L224.1 330.9C242.3 349.1 259.8 366.6 271.8 378.8C289.4 396 317.8 368.1 300.4 350.2L252.7 302.5L239.7 289.6C255.2 288 278.8 283.7 295.9 272.8C316.3 259.5 325.2 251.8 317.4 235.8Z" fill="white"/>
</svg>