<svg width="20" height="20" viewBox="0 0 20 20" fill="none" xmlns="http://www.w3.org/2000/svg">
<path fill-rule="evenodd" clip-rule="evenodd" d="M13.9196 3.09228L13.6785 3.33332L16.6667 6.32147L16.9071 6.08113L16.9077 6.08042L16.9143 6.07345C16.9224 6.06486 16.9366 6.04931 16.9557 6.02729C16.9941 5.98304 17.0507 5.91401 17.1149 5.82421C17.2455 5.64137 17.3943 5.39028 17.4907 5.10105C17.5859 4.81528 17.6249 4.50906 17.5618 4.19336C17.4999 3.88382 17.3285 3.50696 16.9107 3.08924C16.493 2.67152 16.1162 2.50014 15.8066 2.43823C15.4909 2.37509 15.1847 2.41405 14.8989 2.5093C14.6097 2.60572 14.3586 2.75453 14.1758 2.88513C14.086 2.94926 14.017 3.00593 13.9727 3.04428C13.9507 3.06336 13.9351 3.07762 13.9265 3.08566L13.9196 3.09228ZM15.4882 7.49998L12.5 4.51183L3.33334 13.6785V16.6666H6.32149L15.4882 7.49998ZM16.1335 0.803929C16.8005 0.937332 17.4653 1.28679 18.0893 1.91073C18.7132 2.53467 19.0627 3.19949 19.1961 3.8665C19.3282 4.52737 19.237 5.13261 19.0718 5.62809C18.9078 6.12011 18.666 6.52006 18.4711 6.79294C18.3725 6.93102 18.2826 7.04102 18.2152 7.11884C18.1814 7.15786 18.1529 7.1891 18.1315 7.21204C18.1207 7.22353 18.1117 7.23296 18.1046 7.24029L18.0954 7.24969L18.092 7.2532L18.0905 7.25466L18.0899 7.25531C18.0896 7.25561 18.0893 7.25591 17.5 6.66665L18.0893 7.25591L7.25593 18.0892C7.09965 18.2455 6.88769 18.3333 6.66667 18.3333H2.50001C2.03977 18.3333 1.66667 17.9602 1.66667 17.5V13.3333C1.66667 13.1123 1.75447 12.9003 1.91075 12.7441L12.7441 1.91073L13.3333 2.49999C12.7441 1.91073 12.7444 1.91043 12.7447 1.91013L12.7453 1.90948L12.7468 1.90804L12.7503 1.90457L12.7597 1.89539C12.767 1.8883 12.7765 1.87928 12.7879 1.86854C12.8109 1.84707 12.8421 1.81861 12.8812 1.7848C12.959 1.71735 13.069 1.62753 13.207 1.52891C13.4799 1.33399 13.8799 1.09217 14.3719 0.928166C14.8674 0.763006 15.4726 0.671755 16.1335 0.803929Z" fill="#FBB900"/>
</svg>
