<svg xmlns="http://www.w3.org/2000/svg" width="20" height="20" viewBox="0 0 20 20" fill="none">
<path d="M19.1651 16.5967C19.168 17.3006 18.874 17.9731 18.3552 18.449C17.8365 18.9249 17.1412 19.1601 16.4251 19.0952C13.7313 18.8025 11.1436 17.882 8.87655 16.4118C6.75982 15.0667 4.9652 13.2721 3.62409 11.1615C2.14457 8.87764 1.22384 6.2774 0.935204 3.55841C0.872045 2.8595 1.10554 2.16623 1.57866 1.64794C2.05178 1.12965 2.72095 0.834072 3.42349 0.833411L5.91529 0.833451C7.17012 0.821101 8.23966 1.74091 8.41633 2.99111C8.51364 3.72886 8.69408 4.45323 8.95353 5.14853C9.29695 6.06212 9.0773 7.09203 8.38774 7.78933L7.79017 8.38691C8.77005 9.92412 10.0745 11.2285 11.6117 12.2084L12.2125 11.6075C12.9065 10.9213 13.9364 10.7016 14.8482 11.0443C15.5453 11.3045 16.2697 11.4849 17.0149 11.5832C18.2681 11.76 19.1909 12.8452 19.1652 14.1094L19.1651 16.5967ZM17.4985 14.1001L17.4987 14.0794C17.5092 13.6564 17.2011 13.2927 16.7895 13.2346C15.9272 13.1209 15.0804 12.9099 14.2636 12.6051C13.9591 12.4906 13.6158 12.5639 13.3877 12.7893L12.3294 13.8477C12.0641 14.1129 11.6543 14.1683 11.3282 13.9828C9.11156 12.7224 7.27618 10.887 6.01574 8.67032C5.83032 8.34422 5.88564 7.93442 6.1509 7.66916L7.20595 6.61413C7.4347 6.3828 7.50792 6.03949 7.39274 5.73308C7.08864 4.91814 6.87771 4.07141 6.76502 3.2167C6.70648 2.80252 6.34997 2.49592 5.92349 2.50008L3.42427 2.50008C3.19035 2.5003 2.9673 2.59882 2.80959 2.77159C2.65189 2.94435 2.57405 3.17544 2.59383 3.39541C2.85354 5.84108 3.6857 8.19118 5.02683 10.2615C6.24067 12.1717 7.8602 13.7912 9.77691 15.0092C11.8317 16.3418 14.1704 17.1737 16.5902 17.4368C16.8239 17.4579 17.0556 17.3795 17.2285 17.2209C17.4014 17.0623 17.4994 16.8381 17.4985 16.6001V14.1001Z" fill="black"/>
</svg>