<svg width="14" height="14" viewBox="0 0 14 14" fill="none" xmlns="http://www.w3.org/2000/svg">
<path fill-rule="evenodd" clip-rule="evenodd" d="M7.66665 1.00004C7.66665 0.631851 7.36817 0.333374 6.99998 0.333374C6.63179 0.333374 6.33331 0.631851 6.33331 1.00004V6.33337H0.99998C0.63179 6.33337 0.333313 6.63185 0.333313 7.00004C0.333313 7.36823 0.63179 7.66671 0.99998 7.66671H6.33331V13C6.33331 13.3682 6.63179 13.6667 6.99998 13.6667C7.36817 13.6667 7.66665 13.3682 7.66665 13V7.66671H13C13.3682 7.66671 13.6666 7.36823 13.6666 7.00004C13.6666 6.63185 13.3682 6.33337 13 6.33337H7.66665V1.00004Z" fill="none"/>
</svg>
