<svg width="20" height="20" viewBox="0 0 20 20" fill="none" xmlns="http://www.w3.org/2000/svg">
<path fill-rule="evenodd" clip-rule="evenodd" d="M3.33317 9.16666C3.33317 5.945 5.94484 3.33332 9.1665 3.33332C12.3882 3.33332 14.9998 5.945 14.9998 9.16666C14.9998 10.7383 14.3783 12.1647 13.3677 13.2136C13.3391 13.2356 13.3117 13.2596 13.2856 13.2857C13.2594 13.3119 13.2354 13.3393 13.2135 13.3678C12.1646 14.3785 10.7381 15 9.1665 15C5.94484 15 3.33317 12.3883 3.33317 9.16666ZM13.8479 15.0266C12.5648 16.0529 10.9373 16.6667 9.1665 16.6667C5.02437 16.6667 1.6665 13.3088 1.6665 9.16666C1.6665 5.02452 5.02437 1.66666 9.1665 1.66666C13.3086 1.66666 16.6665 5.02452 16.6665 9.16666C16.6665 10.9375 16.0528 12.565 15.0264 13.8481L18.0891 16.9107C18.4145 17.2362 18.4145 17.7638 18.0891 18.0892C17.7637 18.4147 17.236 18.4147 16.9106 18.0892L13.8479 15.0266Z" fill="#212529"/>
</svg>
