<svg width="17" height="16" viewBox="0 0 17 16" fill="none" xmlns="http://www.w3.org/2000/svg">
<path d="M3.59615 10.5564C5.02997 10.5564 6.19231 9.45619 6.19231 8.09903C6.19231 6.74187 5.02997 5.64168 3.59615 5.64168C2.16234 5.64168 1 6.74187 1 8.09903C1 9.45619 2.16234 10.5564 3.59615 10.5564Z" stroke="none" stroke-linecap="round" stroke-linejoin="round"/>
<path d="M13.4039 15.198C14.8377 15.198 16 14.0978 16 12.7407C16 11.3835 14.8377 10.2833 13.4039 10.2833C11.9701 10.2833 10.8077 11.3835 10.8077 12.7407C10.8077 14.0978 11.9701 15.198 13.4039 15.198Z" stroke="none" stroke-linecap="round" stroke-linejoin="round"/>
<path d="M13.4039 5.9147C14.8377 5.9147 16 4.81451 16 3.45735C16 2.10019 14.8377 1 13.4039 1C11.9701 1 10.8077 2.10019 10.8077 3.45735C10.8077 4.81451 11.9701 5.9147 13.4039 5.9147Z" stroke="none" stroke-linecap="round" stroke-linejoin="round"/>
<path d="M5.91541 7.00687L11.0846 4.54952" stroke="none" stroke-linecap="round" stroke-linejoin="round"/>
<path d="M5.91541 9.19118L11.0846 11.6485" stroke="none" stroke-linecap="round" stroke-linejoin="round"/>
</svg>
