<svg width="24" height="24" viewBox="0 0 24 24" fill="none" xmlns="http://www.w3.org/2000/svg">
<path fill-rule="evenodd" clip-rule="evenodd" d="M5.01 20C5.01 18.9 5.9 18 7 18C8.1 18 9 18.9 9 20C9 21.1 8.1 22 7 22C5.9 22 5.01 21.1 5.01 20ZM15.01 20C15.01 18.9 15.9 18 17 18C18.1 18 19 18.9 19 20C19 21.1 18.1 22 17 22C15.9 22 15.01 21.1 15.01 20ZM15.55 13H8.1L7 15H18C18.5523 15 19 15.4477 19 16C19 16.5523 18.5523 17 18 17H7C5.48 17 4.52 15.37 5.25 14.03L6.6 11.59L3.27104 4.57145C3.10551 4.22246 2.75379 4 2.36753 4H2C1.44772 4 1 3.55228 1 3C1 2.44772 1.44772 2 2 2H3.00394C3.77704 2 4.4809 2.44557 4.81166 3.14435L8.53 11H15.55L18.3071 6H9C8.44772 6 8 5.55228 8 5C8 4.44772 8.44772 4 9 4H20C20.5523 4 21 4.44772 21 5C21 5.25077 20.9077 5.47998 20.7552 5.65551C20.7357 5.7169 20.71 5.77731 20.6777 5.83589L17.3 11.97C16.96 12.59 16.3 13 15.55 13Z" fill="none"/>
</svg>
