<svg width="16" height="16" viewBox="0 0 16 16" fill="none" xmlns="http://www.w3.org/2000/svg">
<path fill-rule="evenodd" clip-rule="evenodd" d="M3.85836 9.34642C3.88754 9.35624 3.917 9.36322 3.94642 9.3675C3.97851 9.44291 4.01998 9.54047 4.06835 9.65455C4.1864 9.93297 4.34546 10.3095 4.50964 10.7024C4.84447 11.5035 5.18221 12.3293 5.2568 12.5657C5.34914 12.8579 5.44675 13.0566 5.55331 13.1922C5.6084 13.2623 5.67212 13.3236 5.74669 13.3699C5.78422 13.3933 5.82387 13.4124 5.86526 13.4267C5.86708 13.4273 5.8689 13.4279 5.87072 13.4285C6.08406 13.5091 6.27857 13.4755 6.40035 13.4345C6.46551 13.4126 6.51823 13.386 6.5556 13.3646C6.57465 13.3536 6.59074 13.3434 6.60359 13.3348L6.60661 13.3327L8.49076 12.1577L10.6671 13.8263C10.6992 13.8509 10.7342 13.8715 10.7713 13.8877C11.0328 14.0018 11.286 14.0416 11.5242 14.0091C11.7619 13.9766 11.9507 13.8767 12.0912 13.7643C12.2288 13.6542 12.3221 13.5309 12.3802 13.4393C12.4099 13.3925 12.4321 13.3511 12.4479 13.3194C12.4557 13.3035 12.4621 13.2897 12.467 13.2787L12.4733 13.2642L12.4756 13.2585L12.4766 13.256L12.4771 13.2549L12.4775 13.2539C12.4889 13.2253 12.4977 13.1957 12.5037 13.1655L14.4905 3.1485C14.4969 3.11646 14.5001 3.08388 14.5001 3.05122C14.5001 2.75788 14.3896 2.47894 14.1297 2.30968C13.9075 2.16502 13.6601 2.15879 13.5037 2.17066C13.335 2.18346 13.1792 2.22511 13.0747 2.25839C13.0202 2.2757 12.9746 2.29241 12.9417 2.30516C12.9252 2.31157 12.9117 2.31706 12.9016 2.32126L12.894 2.32445L1.7515 6.69548L1.75006 6.69599C1.74296 6.69858 1.73384 6.70198 1.72301 6.7062C1.70143 6.7146 1.67252 6.72644 1.63875 6.74174C1.5729 6.77159 1.48051 6.81823 1.38571 6.88316C1.23425 6.98688 0.88592 7.27095 0.944574 7.73981C0.991367 8.11386 1.24762 8.34358 1.40375 8.45405C1.48948 8.51471 1.57092 8.55809 1.63023 8.58633C1.65775 8.59943 1.71488 8.62264 1.73967 8.63271L1.74592 8.63525L3.85836 9.34642ZM13.2839 3.24525L13.2824 3.24592C13.2768 3.24834 13.2712 3.25065 13.2656 3.25286L2.1096 7.62919C2.10378 7.63148 2.09791 7.63365 2.092 7.63572L2.08579 7.63807C2.07865 7.64085 2.06664 7.64573 2.05156 7.65256C2.04301 7.65644 2.03408 7.66067 2.02498 7.66521C2.03748 7.67225 2.04945 7.67836 2.06008 7.68343C2.07029 7.68828 2.07807 7.69161 2.08233 7.69336L4.17742 8.39868C4.21577 8.41159 4.25151 8.4287 4.28433 8.44932L11.2022 4.39966L11.2086 4.39583C11.2137 4.39285 11.2203 4.38903 11.2282 4.38454C11.244 4.37564 11.2656 4.36379 11.2913 4.35069C11.3394 4.32626 11.4162 4.28998 11.5027 4.26324C11.563 4.24462 11.7406 4.19216 11.9327 4.25376C12.0512 4.29178 12.1739 4.37352 12.2538 4.51199C12.2934 4.58079 12.3146 4.64989 12.3248 4.71315C12.352 4.81281 12.3477 4.91121 12.3264 4.99617C12.2806 5.17917 12.152 5.32192 12.035 5.4311C11.9348 5.52471 10.6378 6.77528 9.3584 8.00979C8.72037 8.62542 8.08884 9.23498 7.61681 9.69063L7.30678 9.98993L11.2214 12.9912C11.3112 13.0233 11.3642 13.0216 11.3888 13.0183C11.4181 13.0143 11.442 13.003 11.4665 12.9835C11.4938 12.9616 11.5177 12.932 11.5356 12.9038L11.5364 12.9027L13.4633 3.18735C13.4347 3.19422 13.4058 3.20241 13.378 3.21128C13.3464 3.22133 13.3204 3.2309 13.3031 3.23759C13.2946 3.2409 13.2884 3.24341 13.2851 3.2448L13.2839 3.24525ZM7.64309 11.5078L6.8621 10.9091L6.67285 12.1129L7.64309 11.5078ZM6.14564 9.72094L6.92229 8.97116C7.39435 8.51548 8.02593 7.90587 8.66404 7.29017L9.31237 6.66467L4.96568 9.2092L4.98901 9.26419C5.10748 9.54359 5.26724 9.92181 5.4323 10.3167C5.55572 10.612 5.68478 10.923 5.80233 11.2108L5.99102 10.0106C6.00921 9.89483 6.06574 9.79466 6.14564 9.72094Z" fill="black"/>
</svg>
