<svg width="20" height="20" viewBox="0 0 20 20" fill="none" xmlns="http://www.w3.org/2000/svg">
<path fill-rule="evenodd" clip-rule="evenodd" d="M7.7441 2.74409C7.90038 2.58781 8.11234 2.50001 8.33335 2.50001H11.6667C11.8877 2.50001 12.0997 2.58781 12.2559 2.74409C12.4122 2.90037 12.5 3.11233 12.5 3.33334V4.16668H7.50002V3.33334C7.50002 3.11233 7.58782 2.90037 7.7441 2.74409ZM5.83335 4.16668V3.33334C5.83335 2.6703 6.09675 2.03442 6.56559 1.56558C7.03443 1.09674 7.67031 0.833344 8.33335 0.833344H11.6667C12.3297 0.833344 12.9656 1.09674 13.4345 1.56558C13.9033 2.03442 14.1667 2.6703 14.1667 3.33334V4.16668H15.8334H17.5C17.9603 4.16668 18.3334 4.53977 18.3334 5.00001C18.3334 5.46025 17.9603 5.83334 17.5 5.83334H16.6667V16.6667C16.6667 17.3297 16.4033 17.9656 15.9345 18.4344C15.4656 18.9033 14.8297 19.1667 14.1667 19.1667H5.83335C5.17031 19.1667 4.53443 18.9033 4.06559 18.4344C3.59675 17.9656 3.33335 17.3297 3.33335 16.6667V5.83334H2.50002C2.03978 5.83334 1.66669 5.46025 1.66669 5.00001C1.66669 4.53977 2.03978 4.16668 2.50002 4.16668H4.16669H5.83335ZM5.00002 5.83334V16.6667C5.00002 16.8877 5.08782 17.0996 5.2441 17.2559C5.40038 17.4122 5.61234 17.5 5.83335 17.5H14.1667C14.3877 17.5 14.5997 17.4122 14.7559 17.2559C14.9122 17.0996 15 16.8877 15 16.6667V5.83334H5.00002ZM8.33335 8.33334C8.79359 8.33334 9.16669 8.70644 9.16669 9.16668V14.1667C9.16669 14.6269 8.79359 15 8.33335 15C7.87312 15 7.50002 14.6269 7.50002 14.1667V9.16668C7.50002 8.70644 7.87312 8.33334 8.33335 8.33334ZM12.5 14.1667V9.16668C12.5 8.70644 12.1269 8.33334 11.6667 8.33334C11.2064 8.33334 10.8334 8.70644 10.8334 9.16668V14.1667C10.8334 14.6269 11.2064 15 11.6667 15C12.1269 15 12.5 14.6269 12.5 14.1667Z" fill="#313033"/>
</svg>
