<svg width="38" height="18" viewBox="0 0 38 18" fill="none" xmlns="http://www.w3.org/2000/svg">
<path fill-rule="evenodd" clip-rule="evenodd" d="M11.7502 7.65595H9.93276L8.56993 2.30378C8.50525 2.05758 8.3679 1.83992 8.16587 1.73734C7.66168 1.47954 7.10609 1.27438 6.5 1.1709V0.964843H9.42768C9.83174 0.964843 10.1348 1.27438 10.1853 1.63386L10.8924 5.49456L12.7089 0.964843H14.4758L11.7502 7.65595ZM15.4865 7.65595H13.7701L15.1835 0.964843H16.8998L15.4865 7.65595ZM19.1192 2.8185C19.1698 2.45812 19.4728 2.25207 19.8264 2.25207C20.3819 2.20033 20.9871 2.3038 21.4922 2.56071L21.7953 1.12008C21.2902 0.914022 20.7346 0.810547 20.2304 0.810547C18.5645 0.810547 17.3524 1.73736 17.3524 3.02367C17.3524 4.00223 18.211 4.51603 18.8171 4.82557C19.4728 5.13421 19.7253 5.34027 19.6748 5.64891C19.6748 6.11187 19.1698 6.31793 18.6656 6.31793C18.0595 6.31793 17.4534 6.16361 16.8987 5.90582L16.5956 7.34733C17.2017 7.60424 17.8574 7.70771 18.4635 7.70771C20.3314 7.75856 21.4922 6.83263 21.4922 5.44285C21.4922 3.69269 19.1192 3.59011 19.1192 2.8185ZM27.4999 7.65595L26.1371 0.964843H24.6733C24.3702 0.964843 24.0672 1.1709 23.9662 1.47954L21.4425 7.65595H23.2094L23.5621 6.67829H25.7331L25.9351 7.65595H27.4999ZM24.9261 2.76674L25.4303 5.28851H24.017L24.9261 2.76674Z" fill="#172B85"/>
<path d="M6.38281 15.96V17H2.04681V11.4H6.27881V12.44H3.33481V13.656H5.93481V14.664H3.33481V15.96H6.38281ZM7.326 11.064H8.574V17H7.326V11.064ZM13.9483 14.864C13.9483 14.88 13.9403 14.992 13.9243 15.2H10.6683C10.7269 15.4667 10.8656 15.6773 11.0843 15.832C11.3029 15.9867 11.5749 16.064 11.9003 16.064C12.1243 16.064 12.3216 16.032 12.4923 15.968C12.6683 15.8987 12.8309 15.792 12.9803 15.648L13.6443 16.368C13.2389 16.832 12.6469 17.064 11.8683 17.064C11.3829 17.064 10.9536 16.9707 10.5803 16.784C10.2069 16.592 9.91892 16.328 9.71625 15.992C9.51358 15.656 9.41225 15.2747 9.41225 14.848C9.41225 14.4267 9.51092 14.048 9.70825 13.712C9.91092 13.3707 10.1856 13.1067 10.5323 12.92C10.8843 12.728 11.2763 12.632 11.7083 12.632C12.1296 12.632 12.5109 12.7227 12.8523 12.904C13.1936 13.0853 13.4603 13.3467 13.6523 13.688C13.8496 14.024 13.9483 14.416 13.9483 14.864ZM11.7163 13.576C11.4336 13.576 11.1963 13.656 11.0043 13.816C10.8123 13.976 10.6949 14.1947 10.6523 14.472H12.7723C12.7296 14.2 12.6123 13.984 12.4203 13.824C12.2283 13.6587 11.9936 13.576 11.7163 13.576ZM16.8591 17.064C16.4005 17.064 15.9871 16.9707 15.6191 16.784C15.2565 16.592 14.9711 16.328 14.7631 15.992C14.5605 15.656 14.4591 15.2747 14.4591 14.848C14.4591 14.4213 14.5605 14.04 14.7631 13.704C14.9711 13.368 15.2565 13.1067 15.6191 12.92C15.9871 12.728 16.4005 12.632 16.8591 12.632C17.3125 12.632 17.7071 12.728 18.0431 12.92C18.3845 13.1067 18.6325 13.376 18.7871 13.728L17.8191 14.248C17.5951 13.8533 17.2725 13.656 16.8511 13.656C16.5258 13.656 16.2565 13.7627 16.0431 13.976C15.8298 14.1893 15.7231 14.48 15.7231 14.848C15.7231 15.216 15.8298 15.5067 16.0431 15.72C16.2565 15.9333 16.5258 16.04 16.8511 16.04C17.2778 16.04 17.6005 15.8427 17.8191 15.448L18.7871 15.976C18.6325 16.3173 18.3845 16.584 18.0431 16.776C17.7071 16.968 17.3125 17.064 16.8591 17.064ZM22.3442 16.792C22.2215 16.8827 22.0695 16.952 21.8882 17C21.7122 17.0427 21.5255 17.064 21.3282 17.064C20.8162 17.064 20.4189 16.9333 20.1362 16.672C19.8589 16.4107 19.7202 16.0267 19.7202 15.52V13.752H19.0562V12.792H19.7202V11.744H20.9682V12.792H22.0402V13.752H20.9682V15.504C20.9682 15.6853 21.0135 15.8267 21.1042 15.928C21.2002 16.024 21.3335 16.072 21.5042 16.072C21.7015 16.072 21.8695 16.0187 22.0082 15.912L22.3442 16.792ZM24.2368 13.264C24.3861 13.056 24.5861 12.8987 24.8368 12.792C25.0928 12.6853 25.3861 12.632 25.7168 12.632V13.784C25.5781 13.7733 25.4848 13.768 25.4368 13.768C25.0794 13.768 24.7994 13.8693 24.5968 14.072C24.3941 14.2693 24.2928 14.568 24.2928 14.968V17H23.0448V12.696H24.2368V13.264ZM28.4678 17.064C28.0144 17.064 27.6064 16.9707 27.2438 16.784C26.8864 16.592 26.6064 16.328 26.4038 15.992C26.2011 15.656 26.0998 15.2747 26.0998 14.848C26.0998 14.4213 26.2011 14.04 26.4038 13.704C26.6064 13.368 26.8864 13.1067 27.2438 12.92C27.6064 12.728 28.0144 12.632 28.4678 12.632C28.9211 12.632 29.3264 12.728 29.6838 12.92C30.0411 13.1067 30.3211 13.368 30.5238 13.704C30.7264 14.04 30.8278 14.4213 30.8278 14.848C30.8278 15.2747 30.7264 15.656 30.5238 15.992C30.3211 16.328 30.0411 16.592 29.6838 16.784C29.3264 16.9707 28.9211 17.064 28.4678 17.064ZM28.4678 16.04C28.7878 16.04 29.0491 15.9333 29.2518 15.72C29.4598 15.5013 29.5638 15.2107 29.5638 14.848C29.5638 14.4853 29.4598 14.1973 29.2518 13.984C29.0491 13.7653 28.7878 13.656 28.4678 13.656C28.1478 13.656 27.8838 13.7653 27.6758 13.984C27.4678 14.1973 27.3638 14.4853 27.3638 14.848C27.3638 15.2107 27.4678 15.5013 27.6758 15.72C27.8838 15.9333 28.1478 16.04 28.4678 16.04ZM34.2779 12.632C34.8113 12.632 35.2406 12.792 35.5659 13.112C35.8966 13.432 36.0619 13.9067 36.0619 14.536V17H34.8139V14.728C34.8139 14.3867 34.7393 14.1333 34.5899 13.968C34.4406 13.7973 34.2246 13.712 33.9419 13.712C33.6273 13.712 33.3766 13.8107 33.1899 14.008C33.0033 14.2 32.9099 14.488 32.9099 14.872V17H31.6619V12.696H32.8539V13.2C33.0193 13.0187 33.2246 12.88 33.4699 12.784C33.7153 12.6827 33.9846 12.632 34.2779 12.632Z" fill="#172B85"/>
</svg>
