<svg width="36" height="12" viewBox="0 0 36 12" fill="none" xmlns="http://www.w3.org/2000/svg">
<path fill-rule="evenodd" clip-rule="evenodd" d="M9.12533 11.7873H6.03572L3.71888 2.68845C3.60892 2.2699 3.37543 1.89989 3.03197 1.72549C2.17483 1.28723 1.23032 0.938445 0.199951 0.762535V0.41223H5.17707C5.86399 0.41223 6.37917 0.938445 6.46504 1.54958L7.66714 8.11286L10.7552 0.41223H13.759L9.12533 11.7873ZM15.4764 11.7873H12.5585L14.9612 0.41223H17.8791L15.4764 11.7873ZM21.6539 3.56347C21.7398 2.95082 22.255 2.60052 22.856 2.60052C23.8005 2.51256 24.8294 2.68847 25.688 3.12521L26.2032 0.676117C25.3446 0.325813 24.4001 0.149902 23.5429 0.149902C20.7109 0.149902 18.6502 1.72551 18.6502 3.91226C18.6502 5.57583 20.1099 6.44931 21.1402 6.97553C22.255 7.50022 22.6843 7.85053 22.5984 8.37523C22.5984 9.16227 21.7398 9.51258 20.8826 9.51258C19.8523 9.51258 18.8219 9.25023 17.8789 8.81197L17.3637 11.2626C18.3941 11.6993 19.5088 11.8752 20.5392 11.8752C23.7147 11.9617 25.688 10.3876 25.688 8.02492C25.688 5.04961 21.6539 4.87522 21.6539 3.56347ZM35.8998 11.7873L33.583 0.41223H31.0944C30.5792 0.41223 30.064 0.762535 29.8923 1.28723L25.6021 11.7873H28.6059L29.2054 10.1252H32.8961L33.2395 11.7873H35.8998ZM31.524 3.47553L32.3812 7.76259H29.9785L31.524 3.47553Z" fill="#172B85"/>
</svg>
