<svg width="16" height="9" viewBox="0 0 16 9" fill="none" xmlns="http://www.w3.org/2000/svg">
<path fill-rule="evenodd" clip-rule="evenodd" d="M15.8727 7.32637C15.4999 6.66387 15.0086 6.05871 14.4178 5.5341C14.2167 5.32792 13.9809 5.12443 13.7969 4.96558L13.7712 4.94339C13.6763 4.86144 13.5978 4.7934 13.5336 4.73478C14.3415 3.74376 15.033 2.68258 15.5972 1.56761L15.6199 1.52262L15.6359 1.47541C15.71 1.25596 15.7954 0.838648 15.4933 0.461516C15.1811 0.0717153 14.681 0.00141639 14.3463 0.00141639H12.8059C12.4848 -0.0115713 12.1668 0.0650131 11.8974 0.220716C11.6259 0.377594 11.4183 0.606415 11.304 0.873903C10.9723 1.57098 10.5572 2.23401 10.0664 2.85192V1.25948C10.0664 1.05363 10.0444 0.709291 9.79455 0.418653C9.49541 0.0706658 9.06278 0.00141639 8.76249 0.00141639H6.3183C6.0034 -0.00500857 5.69714 0.0943233 5.46179 0.279744C5.22076 0.469633 5.07305 0.73488 5.04998 1.01924L5.0478 1.04618V1.07318C5.0478 1.36677 5.17967 1.58333 5.28503 1.71953C5.33219 1.78051 5.38265 1.83601 5.41451 1.87107L5.42187 1.87917C5.45585 1.91655 5.47854 1.9415 5.5013 1.96882C5.56118 2.04067 5.64731 2.15146 5.67167 2.43814V3.32889C5.25031 2.71782 4.8058 1.90465 4.47135 1.03618L4.46621 1.02285L4.46052 1.0097C4.37713 0.817017 4.24337 0.536662 3.97549 0.322121C3.66254 0.0714871 3.29238 0.00141639 2.95575 0.00141639H1.39285C1.05228 0.00141639 0.641719 0.0717012 0.335371 0.35679C0.0341193 0.637136 0 0.973061 0 1.15167V1.23218L0.0192206 1.31088C0.452117 3.08343 1.3441 4.74335 2.62509 6.16084C3.20586 6.96882 3.99281 7.64606 4.92334 8.13826C5.86872 8.63832 6.93525 8.9331 8.03506 8.9983L8.06376 9H8.09252C8.59008 9 9.10877 8.96211 9.49881 8.73282C10.025 8.42348 10.0664 7.94839 10.0664 7.71168V7.02352C10.2014 7.11982 10.3689 7.24945 10.574 7.42365C10.822 7.64261 11.0194 7.83228 11.1887 7.99787L11.2791 8.08651L11.2796 8.08703C11.4111 8.21619 11.5405 8.34334 11.6584 8.44785C11.8065 8.57923 11.9891 8.72397 12.2187 8.83091C12.4672 8.9467 12.7281 8.99905 13.0053 8.99905H14.5692C14.8987 8.99905 15.3713 8.93032 15.7035 8.59052C16.0656 8.22016 16.038 7.76625 15.9241 7.44007L15.9037 7.38138L15.8727 7.32637ZM11.9522 7.39025C11.7761 7.21807 11.5638 7.01398 11.2955 6.77733L11.2933 6.77539C10.3637 5.98474 9.92935 5.84697 9.62219 5.84697C9.45885 5.84697 9.2781 5.86313 9.1608 5.99205C9.10543 6.05289 9.07635 6.12627 9.06003 6.20278C9.04373 6.27916 9.03811 6.36883 9.03811 6.47098V7.71168C9.03811 7.86576 9.0094 7.93046 8.92861 7.97796C8.821 8.04122 8.59101 8.0925 8.09827 8.09289C7.16301 8.03664 6.25615 7.78559 5.45211 7.36029C4.64643 6.93412 3.96704 6.34519 3.46991 5.64201L3.4645 5.63436L3.45809 5.62733C2.26446 4.31669 1.43271 2.77919 1.02846 1.13636C1.03065 1.05716 1.0501 1.01018 1.08161 0.980854C1.11408 0.950635 1.19276 0.90852 1.39285 0.90852H2.95575C3.12961 0.90852 3.21958 0.941883 3.28434 0.993745C3.35776 1.05254 3.42143 1.15239 3.49879 1.33067C3.88241 2.32605 4.40117 3.25691 4.89241 3.94137C5.13794 4.28348 5.37958 4.56823 5.5973 4.76946C5.70598 4.86991 5.81256 4.95317 5.91428 5.01234C6.01273 5.06961 6.12434 5.11479 6.23912 5.11479C6.29969 5.11479 6.37054 5.10929 6.43875 5.08265C6.51213 5.05399 6.56908 5.00622 6.60929 4.94222C6.68044 4.829 6.69992 4.66129 6.69992 4.4416V2.40745L6.69958 2.40268C6.66405 1.90779 6.49468 1.62942 6.32977 1.43152C6.29362 1.38815 6.25798 1.34897 6.22679 1.31469L6.21825 1.3053C6.18401 1.26762 6.15676 1.23718 6.13436 1.20823C6.09334 1.15519 6.07744 1.11821 6.07614 1.07858C6.08148 1.03155 6.10662 0.9879 6.1467 0.956323C6.1883 0.923544 6.24274 0.906481 6.29848 0.90852H8.76249C8.90374 0.90852 8.95131 0.938927 8.97526 0.966779C9.00906 1.0061 9.03811 1.08788 9.03811 1.25948V3.99809C9.03811 4.3234 9.20808 4.54361 9.45496 4.54361C9.73901 4.54361 9.94378 4.39156 10.3019 4.07568L10.3078 4.07041L10.3132 4.06464C11.1158 3.2012 11.7717 2.23933 12.2599 1.20913L12.2631 1.20141C12.2998 1.11037 12.3692 1.03244 12.4609 0.979492C12.5525 0.926545 12.6612 0.901493 12.7705 0.90816L12.7764 0.90852H14.3463C14.5604 0.90852 14.6308 0.95659 14.6536 0.985016C14.6778 1.01526 14.6947 1.08008 14.6535 1.20721C14.0906 2.31774 13.3946 3.37188 12.5776 4.3519L12.5724 4.35884C12.4931 4.46584 12.4061 4.58424 12.3935 4.7202C12.38 4.86619 12.4516 4.9989 12.5769 5.14116C12.6682 5.26026 12.8565 5.42287 13.0475 5.58783L13.0655 5.60338C13.2658 5.77633 13.4828 5.96368 13.657 6.14506L13.6617 6.14989L13.6667 6.15436C14.186 6.61129 14.6178 7.13948 14.9453 7.71835C14.9975 7.87596 14.9655 7.95651 14.9249 7.99805C14.8774 8.04669 14.7709 8.09195 14.5692 8.09195H13.0053C12.8832 8.09195 12.7889 8.07072 12.6988 8.02877C12.6049 7.98505 12.5084 7.91548 12.3874 7.80814C12.2899 7.72168 12.1834 7.61707 12.0534 7.48951C12.0212 7.45788 11.9875 7.42478 11.9522 7.39025Z" fill="black"/>
</svg>
