<svg width="15" height="15" viewBox="0 0 15 15" fill="none" xmlns="http://www.w3.org/2000/svg">
<path d="M5 13L1 14L2 11V2C2 1.73478 2.10536 1.48043 2.29289 1.29289C2.48043 1.10536 2.73478 1 3 1H13C13.2652 1 13.5196 1.10536 13.7071 1.29289C13.8946 1.48043 14 1.73478 14 2V12C14 12.2652 13.8946 12.5196 13.7071 12.7071C13.5196 12.8946 13.2652 13 13 13H5Z" stroke="#313033" stroke-linecap="round" stroke-linejoin="round"/>
<path d="M8 3.5V6.5" stroke="#313033" stroke-linecap="round" stroke-linejoin="round"/>
<path d="M8 10C8.27614 10 8.5 9.77614 8.5 9.5C8.5 9.22386 8.27614 9 8 9C7.72386 9 7.5 9.22386 7.5 9.5C7.5 9.77614 7.72386 10 8 10Z" stroke="#313033" stroke-linecap="round" stroke-linejoin="round"/>
</svg>
